<svg width="224" height="43" viewBox="0 0 224 43" fill="none" xmlns="http://www.w3.org/2000/svg">
<g clip-path="url(#clip0_140_3112)">
<path d="M26.9546 5.73373C21.9127 5.78366 16.9949 7.28638 12.8025 10.0581V6.1606H0.498047V42.5H12.8025V31.2251C17.0333 33.8685 21.9517 35.2327 26.9546 35.1504C36.4924 35.1504 44.5766 32.5057 44.5766 20.4421C44.5766 8.37845 36.5487 5.73373 26.9546 5.73373ZM22.8749 26.9008C18.5327 26.9008 14.6126 25.5367 12.8025 23.3002V17.8066C14.7251 15.5146 18.9548 13.9927 22.8749 13.9927C28.0143 13.9927 32.7223 15.4218 32.7223 20.4885C32.7223 25.5552 28.0987 26.9843 22.8749 26.9843" fill="currentColor"/>
<path d="M166.759 22.929C165.277 25.9913 161.066 26.8544 158.318 26.8544H157.727C155.261 26.8544 149.437 26.4275 149.437 20.4235C149.437 14.4195 155.261 14.002 157.727 14.002H158.318C161.197 14.002 165.296 14.9299 166.759 17.9644L178.285 15.8857C175.781 7.53399 166.252 5.77084 158.75 5.77084H157.315C150.084 5.77084 137.142 7.81238 137.142 20.4606C137.142 33.4522 150.084 35.1597 157.315 35.1597H158.75C166.252 35.1597 175.743 33.1924 178.276 24.952L166.759 22.929Z" fill="currentColor"/>
<path d="M208.587 5.84509C198.617 5.84509 194.041 9.74257 192.278 11.4872V0.499969H179.973V34.4452H192.278V20.572C192.278 19.3471 195.569 15.0506 201.74 15.0506C205.961 15.0506 211.185 16.4518 211.185 24.256C211.185 31.6798 211.185 34.4637 211.185 34.4637H223.489V21.2587C223.489 14.1133 219.738 5.84509 208.577 5.84509" fill="currentColor"/>
<path d="M83.7505 34.4081L87.8676 23.9962H80.7212L93.6166 6.65244H77.617V20.4235C77.617 21.6485 74.3252 25.9914 68.1542 25.9914C63.9339 25.9914 58.7101 24.5901 58.7101 16.7859C58.7101 9.36211 58.7101 6.69883 58.7101 6.69883H46.3962V19.7461C46.3962 26.8822 50.1476 35.1505 61.3079 35.1505C71.2772 35.1505 75.8539 31.253 77.617 29.5084V34.4081H83.7505Z" fill="currentColor"/>
<path d="M120.748 5.84509C110.769 5.84509 106.202 9.74257 104.43 11.4872V6.66171H97.1519L94.2071 17.0736H101.353L87.0232 34.4452H104.43V20.572C104.43 19.3471 107.721 15.0506 113.892 15.0506C118.122 15.0506 123.336 16.4518 123.336 24.2561C123.336 31.6798 123.336 34.4637 123.336 34.4637H135.641V21.2587C135.641 14.1133 131.89 5.84509 120.739 5.84509" fill="currentColor"/>
</g>
<defs>
<clipPath id="clip0_140_3112">
<rect width="223" height="42" fill="currentColor" transform="translate(0.5 0.5)"/>
</clipPath>
</defs>
</svg>
