<svg width="362" height="148" viewBox="0 0 362 148" fill="none" xmlns="http://www.w3.org/2000/svg">
<path d="M48.7667 70.5572L46.3177 84.3992H2.92813L5.32388 70.5572H48.7667ZM37.6931 49.794L27.8971 106.227H14.055L23.851 49.794H37.6931Z" fill="url(#paint0_linear_140_3147)"/>
<path d="M153.93 2.8125L151.391 19.8047L88.5977 145H59.4961L121.996 25.5664H66.918L70.4336 2.8125H153.93ZM242.309 61.4062L238.598 86.0156C237.556 92.9167 235.993 99.9479 233.91 107.109C231.827 114.271 228.93 120.944 225.219 127.129C221.508 133.249 216.755 138.164 210.961 141.875C205.232 145.521 198.201 147.214 189.867 146.953C183.487 146.823 178.181 145.423 173.949 142.754C169.783 140.085 166.495 136.602 164.086 132.305C161.677 128.008 159.984 123.223 159.008 117.949C158.031 112.676 157.543 107.305 157.543 101.836C157.608 96.3021 157.966 91.0612 158.617 86.1133L162.328 61.4062C163.305 54.5703 164.867 47.6042 167.016 40.5078C169.164 33.3464 172.061 26.7057 175.707 20.5859C179.418 14.4661 184.171 9.58333 189.965 5.9375C195.824 2.29167 202.921 0.598958 211.254 0.859375C217.569 0.989583 222.81 2.38932 226.977 5.05859C231.143 7.72786 234.431 11.2109 236.84 15.5078C239.249 19.7396 240.941 24.4922 241.918 29.7656C242.895 34.974 243.35 40.3125 243.285 45.7812C243.285 51.25 242.96 56.4583 242.309 61.4062ZM211.449 89.9219L216.234 57.3047C216.365 55.8724 216.592 53.8216 216.918 51.1523C217.243 48.418 217.471 45.5208 217.602 42.4609C217.797 39.3359 217.667 36.3737 217.211 33.5742C216.755 30.7096 215.876 28.3333 214.574 26.4453C213.272 24.4922 211.286 23.4831 208.617 23.418C204.776 23.1576 201.684 24.2643 199.34 26.7383C196.996 29.2122 195.141 32.3698 193.773 36.2109C192.471 39.987 191.495 43.8281 190.844 47.7344C190.258 51.6406 189.77 54.8633 189.379 57.4023L184.789 90.0195C184.659 91.4518 184.398 93.5352 184.008 96.2695C183.682 98.9388 183.454 101.868 183.324 105.059C183.194 108.184 183.324 111.178 183.715 114.043C184.105 116.908 184.952 119.316 186.254 121.27C187.621 123.158 189.639 124.199 192.309 124.395C196.085 124.655 199.177 123.548 201.586 121.074C203.995 118.535 205.85 115.312 207.152 111.406C208.454 107.5 209.398 103.561 209.984 99.5898C210.635 95.6185 211.124 92.3958 211.449 89.9219Z" fill="url(#paint1_linear_140_3147)"/>
<path d="M254.179 63.8906L254.449 61.3243C254.629 59.4784 255.125 57.7788 255.935 56.2256C256.746 54.6498 257.849 53.4004 259.244 52.4775C260.662 51.532 262.362 51.0706 264.343 51.0931C266.256 51.1381 267.821 51.6446 269.037 52.6126C270.275 53.558 271.153 54.8074 271.67 56.3606C272.211 57.8914 272.424 59.5347 272.312 61.2906L272.109 63.8906C271.929 65.6915 271.434 67.3798 270.624 68.9556C269.813 70.5088 268.699 71.7469 267.281 72.6699C265.862 73.5928 264.197 74.0431 262.283 74.0205C260.347 73.9755 258.76 73.4803 257.522 72.5348C256.307 71.5668 255.417 70.3175 254.855 68.7867C254.292 67.256 254.067 65.6239 254.179 63.8906ZM260.595 61.2906L260.325 63.9919C260.28 64.5096 260.291 65.1287 260.359 65.849C260.426 66.5469 260.617 67.1434 260.933 67.6387C261.248 68.1339 261.765 68.3928 262.486 68.4153C263.251 68.4378 263.87 68.2014 264.343 67.7062C264.838 67.1884 265.21 66.5806 265.457 65.8828C265.727 65.185 265.896 64.5209 265.964 63.8906L266.301 61.2568C266.346 60.694 266.335 60.075 266.268 59.3996C266.2 58.7018 266.009 58.0827 265.694 57.5425C265.401 57.0022 264.883 56.7321 264.14 56.7321C263.33 56.7096 262.677 56.9459 262.182 57.4412C261.709 57.9364 261.338 58.5442 261.068 59.2646C260.82 59.9849 260.662 60.6602 260.595 61.2906ZM268.26 91.5454L268.496 88.9453C268.654 87.122 269.138 85.4336 269.948 83.8804C270.781 82.3271 271.907 81.0777 273.325 80.1323C274.743 79.1868 276.431 78.7366 278.39 78.7816C280.326 78.8266 281.89 79.3331 283.083 80.3011C284.299 81.2691 285.177 82.5185 285.717 84.0492C286.28 85.5574 286.505 87.1895 286.393 88.9453L286.156 91.5454C285.954 93.3688 285.447 95.0683 284.637 96.6441C283.849 98.1974 282.746 99.4467 281.328 100.392C279.932 101.315 278.266 101.754 276.33 101.709C274.372 101.664 272.785 101.169 271.569 100.223C270.353 99.2554 269.464 98.006 268.901 96.4753C268.361 94.9445 268.147 93.3012 268.26 91.5454ZM274.608 88.9453L274.304 91.6129C274.282 92.1532 274.304 92.761 274.372 93.4363C274.462 94.1116 274.664 94.7194 274.979 95.2597C275.317 95.7774 275.824 96.0476 276.499 96.0701C277.354 96.1151 278.018 95.9013 278.491 95.4285C278.986 94.9558 279.347 94.3592 279.572 93.6389C279.819 92.9185 279.966 92.2207 280.011 91.5454L280.348 88.9453C280.393 88.4051 280.382 87.786 280.315 87.0882C280.27 86.3678 280.089 85.7488 279.774 85.231C279.482 84.6908 278.964 84.4206 278.221 84.4206C277.433 84.3981 276.78 84.6345 276.263 85.1297C275.767 85.6025 275.385 86.199 275.115 86.9194C274.844 87.6397 274.676 88.315 274.608 88.9453ZM285.244 59.197L259.244 97.2181L254.956 94.4155L280.889 56.3606L285.244 59.197Z" fill="url(#paint2_linear_140_3147)"/>
<defs>
<linearGradient id="paint0_linear_140_3147" x1="44.9187" y1="102.77" x2="-10.6026" y2="91.0378" gradientUnits="userSpaceOnUse">
<stop stop-color="#96FF09"/>
<stop offset="1" stop-color="#EBFF00"/>
</linearGradient>
<linearGradient id="paint1_linear_140_3147" x1="224.509" y1="102.77" x2="90.0483" y2="-6.97964" gradientUnits="userSpaceOnUse">
<stop stop-color="#96FF09"/>
<stop offset="1" stop-color="#EBFF00"/>
</linearGradient>
<linearGradient id="paint2_linear_140_3147" x1="285.873" y1="101.739" x2="238.599" y2="92.9657" gradientUnits="userSpaceOnUse">
<stop stop-color="#96FF09"/>
<stop offset="1" stop-color="#EBFF00"/>
</linearGradient>
</defs>
</svg>
