<svg width="1400" height="1902" viewBox="0 0 1400 1902" fill="none" xmlns="http://www.w3.org/2000/svg">
<path opacity="0.01" d="M3432 3101.33C3432 3101.33 1987.9 2538.06 1413.91 2043.39C741.219 1463.67 243.555 1663.88 -341.656 1075.68C-641.675 774.132 -634.513 507.099 -948.723 215.113C-1229.53 -45.8377 -1381.35 -74.5614 -1687.05 -316.615C-2228.48 -745.327 -2491 -1578 -2491 -1578" stroke="#848484" stroke-width="1.5965"/>
<path opacity="0.01" d="M3430.4 3094.15C3430.4 3094.15 1990.98 2532.6 1418.85 2039.46C748.326 1461.51 252.272 1661.11 -331.047 1074.72C-630.094 774.094 -622.956 507.881 -936.15 216.791C-1216.05 -43.3582 -1367.37 -71.9937 -1672.09 -313.305C-2211.77 -740.699 -2473.44 -1570.82 -2473.44 -1570.82" stroke="#848484" stroke-width="1.5965"/>
<path opacity="0.01" d="M3428.81 3086.96C3428.81 3086.96 1994.05 2527.15 1423.78 2035.52C755.433 1459.36 260.988 1658.34 -320.437 1073.75C-618.515 774.056 -611.399 508.663 -923.577 218.469C-1202.57 -40.8786 -1353.4 -69.4259 -1657.12 -309.993C-2195.06 -736.072 -2455.88 -1563.63 -2455.88 -1563.63" stroke="#848484" stroke-width="1.5965"/>
<path opacity="0.0120482" d="M3427.21 3079.78C3427.21 3079.78 1997.13 2521.69 1428.71 2031.59C762.539 1457.2 269.705 1655.57 -309.828 1072.79C-606.935 774.017 -599.843 509.444 -911.004 220.147C-1189.09 -38.3993 -1339.43 -66.8585 -1642.16 -306.683C-2178.35 -731.445 -2438.32 -1556.45 -2438.32 -1556.45" stroke="#848484" stroke-width="1.5965"/>
<path opacity="0.0160643" d="M3425.61 3072.59C3425.61 3072.59 2000.2 2516.24 1433.64 2027.65C769.646 1455.04 278.421 1652.8 -299.219 1071.82C-595.355 773.979 -588.286 510.226 -898.431 221.826C-1175.61 -35.9197 -1325.46 -64.2907 -1627.2 -303.372C-2161.64 -726.817 -2420.75 -1549.26 -2420.75 -1549.26" stroke="#848484" stroke-width="1.5965"/>
<path opacity="0.0200803" d="M3424.02 3065.41C3424.02 3065.41 2003.28 2510.78 1438.57 2023.72C776.753 1452.89 287.138 1650.03 -288.609 1070.86C-583.775 773.941 -576.729 511.008 -885.858 223.504C-1162.13 -33.44 -1311.48 -61.7228 -1612.24 -300.061C-2144.92 -722.19 -2403.19 -1542.08 -2403.19 -1542.08" stroke="#848484" stroke-width="1.5965"/>
<path opacity="0.0240964" d="M3422.42 3058.22C3422.42 3058.22 2006.35 2505.33 1443.5 2019.78C783.86 1450.73 295.855 1647.26 -278 1069.9C-572.196 773.903 -565.173 511.789 -873.285 225.182C-1148.65 -30.9604 -1297.51 -59.1549 -1597.28 -296.749C-2128.21 -717.562 -2385.63 -1534.89 -2385.63 -1534.89" stroke="#848484" stroke-width="1.5965"/>
<path opacity="0.0281125" d="M3420.82 3051.04C3420.82 3051.04 2009.42 2499.88 1448.43 2015.84C790.967 1448.58 304.571 1644.49 -267.391 1068.93C-560.616 773.864 -553.616 512.571 -860.712 226.861C-1135.17 -28.4809 -1283.54 -56.5873 -1582.32 -293.439C-2111.5 -712.935 -2368.07 -1527.71 -2368.07 -1527.71" stroke="#848484" stroke-width="1.5965"/>
<path opacity="0.0321285" d="M3419.23 3043.86C3419.23 3043.86 2012.5 2494.42 1453.36 2011.91C798.074 1446.42 313.288 1641.72 -256.781 1067.97C-549.036 773.826 -542.06 513.353 -848.139 228.539C-1121.68 -26.0014 -1269.57 -54.0196 -1567.36 -290.128C-2094.79 -708.307 -2350.51 -1520.53 -2350.51 -1520.53" stroke="#848484" stroke-width="1.5965"/>
<path opacity="0.0361446" d="M3417.63 3036.67C3417.63 3036.67 2015.57 2488.97 1458.29 2007.97C805.181 1444.27 322.004 1638.95 -246.172 1067C-537.456 773.788 -530.503 514.134 -835.566 230.217C-1108.2 -23.522 -1255.6 -51.452 -1552.4 -286.817C-2078.07 -703.68 -2332.95 -1513.34 -2332.95 -1513.34" stroke="#848484" stroke-width="1.5965"/>
<path opacity="0.0401606" d="M3416.04 3029.49C3416.04 3029.49 2018.65 2483.51 1463.22 2004.04C812.287 1442.11 330.721 1636.18 -235.562 1066.04C-525.876 773.749 -518.946 514.916 -822.993 231.895C-1094.72 -21.0423 -1241.62 -48.8841 -1537.44 -283.506C-2061.36 -699.052 -2315.39 -1506.16 -2315.39 -1506.16" stroke="#848484" stroke-width="1.5965"/>
<path opacity="0.0441767" d="M3414.44 3022.3C3414.44 3022.3 2021.72 2478.06 1468.16 2000.1C819.394 1439.96 339.437 1633.41 -224.953 1065.08C-514.297 773.711 -507.39 515.698 -810.421 233.574C-1081.24 -18.5627 -1227.65 -46.3163 -1522.48 -280.195C-2044.65 -694.425 -2297.82 -1498.97 -2297.82 -1498.97" stroke="#848484" stroke-width="1.5965"/>
<path opacity="0.0481928" d="M3412.84 3015.12C3412.84 3015.12 2024.8 2472.6 1473.09 1996.17C826.501 1437.8 348.154 1630.64 -214.344 1064.11C-502.717 773.673 -495.833 516.479 -797.847 235.252C-1067.76 -16.0832 -1213.68 -43.7486 -1507.51 -276.884C-2027.94 -689.798 -2280.26 -1491.79 -2280.26 -1491.79" stroke="#848484" stroke-width="1.5965"/>
<path opacity="0.0522088" d="M3411.25 3007.93C3411.25 3007.93 2027.87 2467.15 1478.02 1992.23C833.608 1435.64 356.87 1627.87 -203.734 1063.15C-491.137 773.635 -484.277 517.261 -785.275 236.93C-1054.28 -13.6037 -1199.71 -41.1809 -1492.55 -273.573C-2011.22 -685.17 -2262.7 -1484.6 -2262.7 -1484.6" stroke="#848484" stroke-width="1.5965"/>
<path opacity="0.0562249" d="M3409.65 3000.75C3409.65 3000.75 2030.95 2461.69 1482.95 1988.29C840.715 1433.49 365.587 1625.1 -193.125 1062.18C-479.557 773.596 -472.72 518.043 -772.701 238.608C-1040.8 -11.1244 -1185.73 -38.6133 -1477.59 -270.262C-1994.51 -680.543 -2245.14 -1477.42 -2245.14 -1477.42" stroke="#848484" stroke-width="1.5965"/>
<path opacity="0.060241" d="M3408.05 2993.57C3408.05 2993.57 2034.02 2456.24 1487.88 1984.36C847.821 1431.33 374.303 1622.33 -182.516 1061.22C-467.978 773.558 -461.163 518.824 -760.129 240.287C-1027.32 -8.64466 -1171.76 -36.0454 -1462.63 -266.951C-1977.8 -675.915 -2227.58 -1470.24 -2227.58 -1470.24" stroke="#848484" stroke-width="1.5965"/>
<path opacity="0.064257" d="M3406.46 2986.38C3406.46 2986.38 2037.09 2450.78 1492.81 1980.42C854.928 1429.18 383.02 1619.56 -171.906 1060.25C-456.398 773.52 -449.606 519.606 -747.556 241.965C-1013.83 -6.1653 -1157.79 -33.4779 -1447.67 -263.64C-1961.09 -671.288 -2210.02 -1463.05 -2210.02 -1463.05" stroke="#848484" stroke-width="1.5965"/>
<path opacity="0.0682731" d="M3404.86 2979.2C3404.86 2979.2 2040.17 2445.33 1497.74 1976.49C862.035 1427.02 391.736 1616.78 -161.297 1059.29C-444.818 773.482 -438.05 520.388 -734.983 243.643C-1000.35 -3.68558 -1143.82 -30.9099 -1432.71 -260.329C-1944.37 -666.661 -2192.46 -1455.87 -2192.46 -1455.87" stroke="#848484" stroke-width="1.5965"/>
<path opacity="0.0722892" d="M3403.26 2972.01C3403.26 2972.01 2043.24 2439.87 1502.67 1972.55C869.142 1424.87 400.453 1614.01 -150.687 1058.33C-433.238 773.443 -426.493 521.169 -722.41 245.321C-986.872 -1.20608 -1129.85 -28.3422 -1417.75 -257.018C-1927.66 -662.033 -2174.89 -1448.68 -2174.89 -1448.68" stroke="#848484" stroke-width="1.5965"/>
<path opacity="0.0763052" d="M3401.67 2964.83C3401.67 2964.83 2046.32 2434.42 1507.6 1968.62C876.249 1422.71 409.169 1611.24 -140.078 1057.36C-421.659 773.405 -414.937 521.951 -709.837 247C-973.392 1.27375 -1115.87 -25.7742 -1402.79 -253.706C-1910.95 -657.406 -2157.33 -1441.5 -2157.33 -1441.5" stroke="#848484" stroke-width="1.5965"/>
<path opacity="0.0803213" d="M3400.07 2957.64C3400.07 2957.64 2049.39 2428.96 1512.53 1964.68C883.356 1420.55 417.886 1608.47 -129.469 1056.4C-410.079 773.367 -403.38 522.733 -697.264 248.678C-959.91 3.753 -1101.9 -23.2068 -1387.83 -250.396C-1894.24 -652.778 -2139.77 -1434.32 -2139.77 -1434.32" stroke="#848484" stroke-width="1.5965"/>
<path opacity="0.0843373" d="M3398.47 2950.46C3398.47 2950.46 2052.47 2423.51 1517.47 1960.74C890.462 1418.4 426.602 1605.7 -118.859 1055.43C-398.499 773.328 -391.823 523.514 -684.691 250.356C-946.429 6.23237 -1087.93 -20.6392 -1372.86 -247.085C-1877.53 -648.151 -2122.21 -1427.13 -2122.21 -1427.13" stroke="#848484" stroke-width="1.5965"/>
<path opacity="0.0883534" d="M3396.88 2943.28C3396.88 2943.28 2055.54 2418.06 1522.4 1956.81C897.569 1416.24 435.319 1602.93 -108.249 1054.47C-386.919 773.29 -380.266 524.296 -672.118 252.034C-932.947 8.71209 -1073.96 -18.0713 -1357.9 -243.774C-1860.81 -643.524 -2104.65 -1419.95 -2104.65 -1419.95" stroke="#848484" stroke-width="1.5965"/>
<path opacity="0.0923695" d="M3395.28 2936.09C3395.28 2936.09 2058.62 2412.6 1527.33 1952.87C904.676 1414.09 444.035 1600.16 -97.6405 1053.5C-375.339 773.252 -368.71 525.078 -659.545 253.713C-919.467 11.1917 -1059.98 -15.5035 -1342.94 -240.463C-1844.1 -638.896 -2087.09 -1412.76 -2087.09 -1412.76" stroke="#848484" stroke-width="1.5965"/>
<path opacity="0.0963855" d="M3393.68 2928.91C3393.68 2928.91 2061.69 2407.15 1532.26 1948.94C911.783 1411.93 452.752 1597.39 -87.031 1052.54C-363.759 773.214 -357.153 525.86 -646.972 255.391C-905.985 13.6714 -1046.01 -12.9355 -1327.98 -237.151C-1827.39 -634.269 -2069.53 -1405.58 -2069.53 -1405.58" stroke="#848484" stroke-width="1.5965"/>
<path opacity="0.100402" d="M3392.09 2921.72C3392.09 2921.72 2064.76 2401.69 1537.19 1945C918.89 1409.78 461.468 1594.62 -76.4216 1051.58C-352.18 773.175 -345.597 526.641 -634.399 257.069C-892.504 16.1507 -1032.04 -10.3681 -1313.02 -233.841C-1810.68 -629.641 -2051.96 -1398.39 -2051.96 -1398.39" stroke="#848484" stroke-width="1.5965"/>
<path opacity="0.104418" d="M3390.49 2914.54C3390.49 2914.54 2067.84 2396.24 1542.12 1941.07C925.997 1407.62 470.185 1591.85 -65.8119 1050.61C-340.599 773.137 -334.04 527.423 -621.826 258.747C-879.022 18.63 -1018.07 -7.80052 -1298.06 -230.53C-1793.96 -625.014 -2034.4 -1391.21 -2034.4 -1391.21" stroke="#848484" stroke-width="1.5965"/>
<path opacity="0.108434" d="M3388.89 2907.36C3388.89 2907.36 2070.91 2390.78 1547.05 1937.13C933.103 1405.47 478.901 1589.08 -55.2029 1049.65C-329.02 773.099 -322.484 528.205 -609.253 260.426C-865.542 21.1098 -1004.1 -5.23261 -1283.1 -227.219C-1777.25 -620.387 -2016.84 -1384.03 -2016.84 -1384.03" stroke="#848484" stroke-width="1.5965"/>
<path opacity="0.11245" d="M3387.3 2900.17C3387.3 2900.17 2073.99 2385.33 1551.98 1933.19C940.21 1403.31 487.618 1586.31 -44.5934 1048.68C-317.44 773.06 -310.927 528.986 -596.68 262.104C-852.06 23.5894 -990.123 -2.6648 -1268.14 -223.908C-1760.54 -615.759 -1999.28 -1376.84 -1999.28 -1376.84" stroke="#848484" stroke-width="1.5965"/>
<path opacity="0.116466" d="M3385.7 2892.99C3385.7 2892.99 2077.06 2379.87 1556.91 1929.26C947.317 1401.15 496.335 1583.54 -33.9838 1047.72C-305.86 773.022 -299.37 529.768 -584.107 263.782C-838.579 26.0691 -976.15 -0.0968808 -1253.18 -220.597C-1743.83 -611.132 -1981.72 -1369.66 -1981.72 -1369.66" stroke="#848484" stroke-width="1.5965"/>
<path opacity="0.120482" d="M3384.11 2885.8C3384.11 2885.8 2080.14 2374.42 1561.84 1925.32C954.424 1399 505.051 1580.77 -23.3743 1046.76C-294.28 772.984 -287.813 530.55 -571.534 265.461C-825.097 28.5486 -962.178 2.47082 -1238.21 -217.286C-1727.11 -606.504 -1964.16 -1362.47 -1964.16 -1362.47" stroke="#848484" stroke-width="1.5965"/>
<path opacity="0.124498" d="M3382.51 2878.62C3382.51 2878.62 2083.21 2368.96 1566.78 1921.39C961.531 1396.84 513.768 1578 -12.7649 1045.79C-282.7 772.945 -276.257 531.331 -558.961 267.139C-811.616 31.0277 -948.206 5.03815 -1223.25 -213.975C-1710.4 -601.877 -1946.59 -1355.29 -1946.59 -1355.29" stroke="#848484" stroke-width="1.5965"/>
<path opacity="0.128514" d="M3380.91 2871.43C3380.91 2871.43 2086.29 2363.51 1571.71 1917.45C968.638 1394.69 522.484 1575.23 -2.15583 1044.83C-271.121 772.907 -264.7 532.113 -546.389 268.817C-798.135 33.5074 -934.234 7.60606 -1208.29 -210.664C-1693.69 -597.25 -1929.03 -1348.1 -1929.03 -1348.1" stroke="#848484" stroke-width="1.5965"/>
<path opacity="0.13253" d="M3379.32 2864.25C3379.32 2864.25 2089.36 2358.05 1576.64 1913.52C975.745 1392.53 531.201 1572.46 8.45385 1043.86C-259.541 772.869 -253.143 532.895 -533.815 270.495C-784.654 35.987 -920.261 10.1739 -1193.33 -207.353C-1676.98 -592.622 -1911.47 -1340.92 -1911.47 -1340.92" stroke="#848484" stroke-width="1.5965"/>
<path opacity="0.136546" d="M3377.72 2857.07C3377.72 2857.07 2092.43 2352.6 1581.57 1909.58C982.852 1390.38 539.917 1569.69 19.0633 1042.9C-247.961 772.831 -241.587 533.676 -521.242 272.173C-771.172 38.4665 -906.289 12.7416 -1178.37 -204.042C-1660.26 -587.995 -1893.91 -1333.74 -1893.91 -1333.74" stroke="#848484" stroke-width="1.5965"/>
<path opacity="0.140562" d="M3376.12 2849.88C3376.12 2849.88 2095.51 2347.15 1586.5 1905.64C989.958 1388.22 548.634 1566.92 29.6727 1041.93C-236.381 772.793 -230.03 534.458 -508.669 273.852C-757.691 40.9463 -892.316 15.3095 -1163.41 -200.731C-1643.55 -583.367 -1876.35 -1326.55 -1876.35 -1326.55" stroke="#848484" stroke-width="1.5965"/>
<path opacity="0.144578" d="M3374.53 2842.7C3374.53 2842.7 2098.58 2341.69 1591.43 1901.71C997.065 1386.07 557.35 1564.15 40.2818 1040.97C-224.802 772.754 -218.474 535.239 -496.097 275.53C-744.21 43.4254 -878.345 17.8768 -1148.45 -197.42C-1626.84 -578.74 -1858.79 -1319.37 -1858.79 -1319.37" stroke="#848484" stroke-width="1.5965"/>
<path opacity="0.148594" d="M3372.93 2835.51C3372.93 2835.51 2101.66 2336.24 1596.36 1897.77C1004.17 1383.91 566.067 1561.38 50.8914 1040.01C-213.222 772.716 -206.917 536.021 -483.523 277.208C-730.729 45.905 -864.372 20.4446 -1133.49 -194.109C-1610.13 -574.113 -1841.23 -1312.18 -1841.23 -1312.18" stroke="#848484" stroke-width="1.5965"/>
<path opacity="0.15261" d="M3371.33 2828.33C3371.33 2828.33 2104.73 2330.78 1601.29 1893.84C1011.28 1381.75 574.784 1558.61 61.5009 1039.04C-201.642 772.678 -195.36 536.803 -470.95 278.887C-717.247 48.3847 -850.4 23.0125 -1118.53 -190.798C-1593.42 -569.485 -1823.66 -1305 -1823.66 -1305" stroke="#848484" stroke-width="1.5965"/>
<path opacity="0.156627" d="M3369.74 2821.14C3369.74 2821.14 2107.81 2325.33 1606.22 1889.9C1018.39 1379.6 583.5 1555.84 72.1101 1038.08C-190.062 772.639 -183.804 537.585 -458.378 280.565C-703.766 50.8642 -836.428 25.5802 -1103.57 -187.487C-1576.7 -564.858 -1806.1 -1297.81 -1806.1 -1297.81" stroke="#848484" stroke-width="1.5965"/>
<path opacity="0.160643" d="M3368.14 2813.96C3368.14 2813.96 2110.88 2319.87 1611.15 1885.97C1025.49 1377.44 592.216 1553.07 82.7194 1037.11C-178.482 772.601 -172.247 538.367 -445.805 282.243C-690.285 53.344 -822.456 28.1483 -1088.6 -184.176C-1559.99 -560.23 -1788.54 -1290.63 -1788.54 -1290.63" stroke="#848484" stroke-width="1.5965"/>
<path opacity="0.164659" d="M3366.54 2806.78C3366.54 2806.78 2113.96 2314.42 1616.09 1882.03C1032.6 1375.29 600.933 1550.3 93.329 1036.15C-166.902 772.563 -160.69 539.148 -433.232 283.922C-676.804 55.8235 -808.483 30.716 -1073.64 -180.865C-1543.28 -555.603 -1770.98 -1283.45 -1770.98 -1283.45" stroke="#848484" stroke-width="1.5965"/>
<path opacity="0.168675" d="M3364.95 2799.59C3364.95 2799.59 2117.03 2308.96 1621.02 1878.09C1039.71 1373.13 609.65 1547.53 103.939 1035.18C-155.322 772.524 -149.133 539.929 -420.658 285.599C-663.322 58.3027 -794.51 33.2833 -1058.68 -177.554C-1526.57 -550.976 -1753.42 -1276.26 -1753.42 -1276.26" stroke="#848484" stroke-width="1.5965"/>
<path opacity="0.172691" d="M3363.35 2792.41C3363.35 2792.41 2120.1 2303.51 1625.95 1874.16C1046.81 1370.98 618.366 1544.76 114.548 1034.22C-143.743 772.486 -137.577 540.711 -408.086 287.278C-649.841 60.7824 -780.539 35.8512 -1043.72 -174.243C-1509.85 -546.348 -1735.86 -1269.08 -1735.86 -1269.08" stroke="#848484" stroke-width="1.5965"/>
<path opacity="0.176707" d="M3361.75 2785.22C3361.75 2785.22 2123.18 2298.05 1630.88 1870.22C1053.92 1368.82 627.082 1541.99 125.157 1033.26C-132.163 772.448 -126.021 541.493 -395.513 288.956C-636.36 63.262 -766.566 38.419 -1028.76 -170.932C-1493.14 -541.721 -1718.3 -1261.89 -1718.3 -1261.89" stroke="#848484" stroke-width="1.5965"/>
<path opacity="0.180723" d="M3360.16 2778.04C3360.16 2778.04 2126.25 2292.6 1635.81 1866.29C1061.03 1366.67 635.799 1539.21 135.767 1032.29C-120.583 772.41 -114.464 542.275 -382.94 290.634C-622.879 65.7416 -752.594 40.9868 -1013.8 -167.621C-1476.43 -537.093 -1700.73 -1254.71 -1700.73 -1254.71" stroke="#848484" stroke-width="1.5965"/>
<path opacity="0.184739" d="M3358.56 2770.85C3358.56 2770.85 2129.33 2287.14 1640.74 1862.35C1068.13 1364.51 644.516 1536.44 146.376 1031.33C-109.003 772.371 -102.907 543.056 -370.367 292.313C-609.398 68.221 -738.622 43.5544 -998.838 -164.31C-1459.72 -532.466 -1683.17 -1247.53 -1683.17 -1247.53" stroke="#848484" stroke-width="1.5965"/>
<path opacity="0.188755" d="M3356.96 2763.67C3356.96 2763.67 2132.4 2281.69 1645.67 1858.42C1075.24 1362.35 653.232 1533.67 156.985 1030.36C-97.4236 772.333 -91.3505 543.838 -357.794 293.991C-595.916 70.7007 -724.649 46.1223 -983.877 -160.999C-1443 -527.838 -1665.61 -1240.34 -1665.61 -1240.34" stroke="#848484" stroke-width="1.5965"/>
<path opacity="0.192771" d="M3355.37 2756.49C3355.37 2756.49 2135.48 2276.23 1650.6 1854.48C1082.35 1360.2 661.949 1530.9 167.595 1029.4C-85.844 772.295 -79.794 544.62 -345.221 295.669C-582.435 73.1799 -710.677 48.6898 -968.916 -157.688C-1426.29 -523.211 -1648.05 -1233.16 -1648.05 -1233.16" stroke="#848484" stroke-width="1.5965"/>
<path opacity="0.196787" d="M3353.77 2749.3C3353.77 2749.3 2138.55 2270.78 1655.53 1850.54C1089.45 1358.04 670.665 1528.13 178.204 1028.43C-74.2639 772.257 -68.2371 545.401 -332.648 297.347C-568.954 75.6596 -696.705 51.2577 -953.955 -154.377C-1409.58 -518.584 -1630.49 -1225.97 -1630.49 -1225.97" stroke="#848484" stroke-width="1.5965"/>
<path opacity="0.200803" d="M3352.18 2742.12C3352.18 2742.12 2141.63 2265.33 1660.46 1846.61C1096.56 1355.89 679.382 1525.36 188.813 1027.47C-62.6842 772.218 -56.6806 546.183 -320.075 299.025C-555.473 78.139 -682.733 53.8252 -938.994 -151.066C-1392.87 -513.956 -1612.93 -1218.79 -1612.93 -1218.79" stroke="#848484" stroke-width="1.5965"/>
<path opacity="0.204819" d="M3350.58 2734.93C3350.58 2734.93 2144.7 2259.87 1665.4 1842.67C1103.67 1353.73 688.098 1522.59 199.423 1026.51C-51.1046 772.18 -45.1242 546.965 -307.502 300.704C-541.992 80.6186 -668.761 56.3931 -924.033 -147.755C-1376.16 -509.329 -1595.37 -1211.6 -1595.37 -1211.6" stroke="#848484" stroke-width="1.5965"/>
<path opacity="0.208835" d="M3348.98 2727.75C3348.98 2727.75 2147.77 2254.42 1670.33 1838.74C1110.77 1351.58 696.815 1519.82 210.032 1025.54C-39.5247 772.142 -33.5675 547.746 -294.929 302.382C-528.51 83.0981 -654.788 58.9607 -909.072 -144.444C-1359.44 -504.702 -1577.8 -1204.42 -1577.8 -1204.42" stroke="#848484" stroke-width="1.5965"/>
<path opacity="0.212851" d="M3347.39 2720.57C3347.39 2720.57 2150.85 2248.96 1675.26 1834.8C1117.88 1349.42 705.531 1517.05 220.642 1024.58C-27.9449 772.103 -22.0107 548.528 -282.356 304.06C-515.029 85.5776 -640.816 61.5284 -894.111 -141.133C-1342.73 -500.074 -1560.24 -1197.24 -1560.24 -1197.24" stroke="#848484" stroke-width="1.5965"/>
<path opacity="0.216867" d="M3345.79 2713.38C3345.79 2713.38 2153.92 2243.51 1680.19 1830.87C1124.99 1347.27 714.248 1514.28 231.251 1023.61C-16.365 772.065 -10.454 549.31 -269.783 305.739C-501.548 88.0573 -626.844 64.0963 -879.149 -137.822C-1326.02 -495.447 -1542.68 -1190.05 -1542.68 -1190.05" stroke="#848484" stroke-width="1.5965"/>
<path opacity="0.220884" d="M3344.19 2706.2C3344.19 2706.2 2157 2238.05 1685.12 1826.93C1132.09 1345.11 722.964 1511.51 241.86 1022.65C-4.78538 772.027 1.10242 550.092 -257.211 307.417C-488.067 90.5369 -612.871 66.6642 -864.189 -134.511C-1309.31 -490.819 -1525.12 -1182.87 -1525.12 -1182.87" stroke="#848484" stroke-width="1.5965"/>
<path opacity="0.2249" d="M3342.6 2699.01C3342.6 2699.01 2160.07 2232.6 1690.05 1822.99C1139.2 1342.95 731.681 1508.74 252.47 1021.69C6.79473 771.988 12.6594 550.873 -244.637 309.095C-474.585 93.0163 -598.899 69.2317 -849.227 -131.2C-1292.59 -486.192 -1507.56 -1175.68 -1507.56 -1175.68" stroke="#848484" stroke-width="1.5965"/>
<path opacity="0.228916" d="M3341 2691.83C3341 2691.83 2163.15 2227.14 1694.98 1819.06C1146.31 1340.8 740.397 1505.97 263.079 1020.72C18.3744 771.95 24.2158 551.655 -232.065 310.774C-461.104 95.496 -584.927 71.7996 -834.266 -127.889C-1275.88 -481.564 -1490 -1168.5 -1490 -1168.5" stroke="#848484" stroke-width="1.5965"/>
<path opacity="0.232932" d="M3339.4 2684.64C3339.4 2684.64 2166.22 2221.69 1699.91 1815.12C1153.42 1338.64 749.114 1503.2 273.689 1019.76C29.9545 771.912 35.7728 552.437 -219.491 312.452C-447.623 97.9755 -570.954 74.3673 -819.305 -124.578C-1259.17 -476.937 -1472.44 -1161.31 -1472.44 -1161.31" stroke="#848484" stroke-width="1.5965"/>
<path opacity="0.236948" d="M3337.81 2677.46C3337.81 2677.46 2169.3 2216.23 1704.84 1811.19C1160.52 1336.49 757.831 1500.43 284.298 1018.79C41.5341 771.873 47.3292 553.218 -206.918 314.13C-434.142 100.455 -556.982 76.9349 -804.344 -121.267C-1242.46 -472.31 -1454.87 -1154.13 -1454.87 -1154.13" stroke="#848484" stroke-width="1.5965"/>
<path opacity="0.240964" d="M3336.21 2670.28C3336.21 2670.28 2172.37 2210.78 1709.77 1807.25C1167.63 1334.33 766.547 1497.66 294.908 1017.83C53.114 771.835 58.8859 554 -194.345 315.808C-420.66 102.934 -543.01 79.5026 -789.383 -117.956C-1225.74 -467.682 -1437.31 -1146.95 -1437.31 -1146.95" stroke="#848484" stroke-width="1.5965"/>
<path opacity="0.24498" d="M3334.61 2663.09C3334.61 2663.09 2175.44 2205.32 1714.71 1803.32C1174.74 1332.18 775.264 1494.89 305.517 1016.86C64.6938 771.797 70.4426 554.781 -181.772 317.486C-407.179 105.414 -529.037 82.0704 -774.422 -114.645C-1209.03 -463.055 -1419.75 -1139.76 -1419.75 -1139.76" stroke="#848484" stroke-width="1.5965"/>
<path opacity="0.248996" d="M3333.02 2655.91C3333.02 2655.91 2178.52 2199.87 1719.64 1799.38C1181.84 1330.02 783.98 1492.12 316.127 1015.9C76.2737 771.759 81.9993 555.563 -169.199 319.165C-393.698 107.894 -515.065 84.6382 -759.461 -111.334C-1192.32 -458.427 -1402.19 -1132.58 -1402.19 -1132.58" stroke="#848484" stroke-width="1.5965"/>
<path opacity="0.253012" d="M3331.42 2648.72C3331.42 2648.72 2181.59 2194.42 1724.57 1795.44C1188.95 1327.86 792.697 1489.35 326.736 1014.94C87.8533 771.721 93.5558 556.345 -156.627 320.843C-380.217 110.373 -501.093 87.2061 -744.5 -108.023C-1175.61 -453.8 -1384.63 -1125.39 -1384.63 -1125.39" stroke="#848484" stroke-width="1.5965"/>
<path opacity="0.257028" d="M3329.82 2641.54C3329.82 2641.54 2184.67 2188.96 1729.5 1791.51C1196.06 1325.71 801.413 1486.58 337.345 1013.97C99.4332 771.682 105.113 557.126 -144.054 322.521C-366.735 112.852 -487.121 89.7733 -729.539 -104.712C-1158.89 -449.173 -1367.07 -1118.21 -1367.07 -1118.21" stroke="#848484" stroke-width="1.5965"/>
<path opacity="0.261044" d="M3328.23 2634.35C3328.23 2634.35 2187.74 2183.51 1734.43 1787.57C1203.16 1323.55 810.13 1483.81 347.955 1013.01C111.013 771.644 116.669 557.908 -131.481 324.199C-353.254 115.332 -473.148 92.3412 -714.578 -101.401C-1142.18 -444.545 -1349.51 -1111.03 -1349.51 -1111.03" stroke="#848484" stroke-width="1.5965"/>
<path opacity="0.26506" d="M3326.63 2627.17C3326.63 2627.17 2190.82 2178.05 1739.36 1783.64C1210.27 1321.4 818.847 1481.04 358.564 1012.04C122.593 771.606 128.226 558.69 -118.908 325.878C-339.773 117.812 -459.176 94.9091 -699.616 -98.09C-1125.47 -439.918 -1331.94 -1103.84 -1331.94 -1103.84" stroke="#848484" stroke-width="1.5965"/>
<path opacity="0.269076" d="M3325.03 2619.99C3325.03 2619.99 2193.89 2172.6 1744.29 1779.7C1217.38 1319.24 827.563 1478.27 369.173 1011.08C134.173 771.567 139.783 559.472 -106.335 327.556C-326.291 120.291 -445.204 97.4769 -684.655 -94.779C-1108.76 -435.29 -1314.38 -1096.66 -1314.38 -1096.66" stroke="#848484" stroke-width="1.5965"/>
<path opacity="0.273092" d="M3323.44 2612.8C3323.44 2612.8 2196.97 2167.14 1749.22 1775.77C1224.48 1317.09 836.28 1475.5 379.783 1010.11C145.753 771.529 151.339 560.253 -93.7617 329.234C-312.81 122.771 -431.231 100.045 -669.694 -91.468C-1092.04 -430.663 -1296.82 -1089.47 -1296.82 -1089.47" stroke="#848484" stroke-width="1.5965"/>
<path opacity="0.277108" d="M3321.84 2605.62C3321.84 2605.62 2200.04 2161.69 1754.15 1771.83C1231.59 1314.93 844.996 1472.73 390.392 1009.15C157.333 771.491 162.896 561.035 -81.1885 330.912C-299.329 125.25 -417.259 102.612 -654.733 -88.157C-1075.33 -426.036 -1279.26 -1082.29 -1279.26 -1082.29" stroke="#848484" stroke-width="1.5965"/>
<path opacity="0.281125" d="M3320.25 2598.43C3320.25 2598.43 2203.11 2156.23 1759.08 1767.89C1238.7 1312.78 853.713 1469.96 401.002 1008.19C168.912 771.452 174.452 561.816 -68.6158 332.591C-285.848 127.73 -403.287 105.18 -639.772 -84.8461C-1058.62 -421.408 -1261.7 -1075.1 -1261.7 -1075.1" stroke="#848484" stroke-width="1.5965"/>
<path opacity="0.285141" d="M3318.65 2591.25C3318.65 2591.25 2206.19 2150.78 1764.02 1763.96C1245.8 1310.62 862.429 1467.18 411.611 1007.22C180.492 771.414 186.009 562.598 -56.0426 334.269C-272.366 130.209 -389.314 107.748 -624.811 -81.5351C-1041.91 -416.781 -1244.14 -1067.92 -1244.14 -1067.92" stroke="#848484" stroke-width="1.5965"/>
<path opacity="0.289157" d="M3317.05 2584.06C3317.05 2584.06 2209.26 2145.32 1768.95 1760.02C1252.91 1308.46 871.146 1464.41 422.221 1006.26C192.072 771.376 197.566 563.38 -43.4698 335.947C-258.885 132.689 -375.342 110.316 -609.85 -78.224C-1025.2 -412.153 -1226.58 -1060.74 -1226.58 -1060.74" stroke="#848484" stroke-width="1.5965"/>
<path opacity="0.293173" d="M3315.46 2576.88C3315.46 2576.88 2212.34 2139.87 1773.88 1756.09C1260.02 1306.31 879.862 1461.64 432.83 1005.29C203.652 771.338 209.123 564.162 -30.8967 337.626C-245.404 135.169 -361.37 112.883 -594.889 -74.9129C-1008.48 -407.526 -1209.01 -1053.55 -1209.01 -1053.55" stroke="#848484" stroke-width="1.5965"/>
<path opacity="0.297189" d="M3313.86 2569.7C3313.86 2569.7 2215.41 2134.41 1778.81 1752.15C1267.13 1304.15 888.579 1458.87 443.439 1004.33C215.231 771.299 220.679 564.943 -18.3239 339.304C-231.923 137.648 -347.398 115.451 -579.928 -71.602C-991.771 -402.899 -1191.45 -1046.37 -1191.45 -1046.37" stroke="#848484" stroke-width="1.5965"/>
<path opacity="0.301205" d="M3312.26 2562.51C3312.26 2562.51 2218.49 2128.96 1783.74 1748.22C1274.23 1302 897.295 1456.1 454.048 1003.36C226.811 771.261 232.235 565.725 -5.75129 340.982C-218.442 140.128 -333.426 118.019 -564.967 -68.2909C-975.059 -398.271 -1173.89 -1039.18 -1173.89 -1039.18" stroke="#848484" stroke-width="1.5965"/>
<path opacity="0.305221" d="M3310.67 2555.33C3310.67 2555.33 2221.56 2123.51 1788.67 1744.28C1281.34 1299.84 906.012 1453.33 464.658 1002.4C238.391 771.223 243.792 566.507 6.82199 342.66C-204.96 142.607 -319.453 120.586 -550.006 -64.98C-958.346 -393.644 -1156.33 -1032 -1156.33 -1032" stroke="#848484" stroke-width="1.5965"/>
<path opacity="0.309237" d="M3309.07 2548.14C3309.07 2548.14 2224.64 2118.05 1793.6 1740.34C1288.45 1297.69 914.728 1450.56 475.267 1001.44C249.971 771.185 255.349 567.288 19.3946 344.339C-191.479 145.087 -305.481 123.154 -535.045 -61.669C-941.634 -389.016 -1138.77 -1024.81 -1138.77 -1024.81" stroke="#848484" stroke-width="1.5965"/>
<path opacity="0.313253" d="M3307.47 2540.96C3307.47 2540.96 2227.71 2112.6 1798.53 1736.41C1295.55 1295.53 923.445 1447.79 485.877 1000.47C261.551 771.146 266.906 568.07 31.9678 346.017C-177.998 147.566 -291.509 125.722 -520.084 -58.358C-924.921 -384.389 -1121.21 -1017.63 -1121.21 -1017.63" stroke="#848484" stroke-width="1.5965"/>
<path opacity="0.317269" d="M3305.88 2533.78C3305.88 2533.78 2230.78 2107.14 1803.46 1732.47C1302.66 1293.38 932.161 1445.02 496.486 999.508C273.13 771.108 278.462 568.852 44.5405 347.695C-164.517 150.046 -277.537 128.29 -505.123 -55.0471C-908.209 -379.762 -1103.65 -1010.45 -1103.65 -1010.45" stroke="#848484" stroke-width="1.5965"/>
<path opacity="0.321285" d="M3304.28 2526.59C3304.28 2526.59 2233.86 2101.69 1808.39 1728.54C1309.77 1291.22 940.878 1442.25 507.096 998.544C284.71 771.07 290.019 569.633 57.1138 349.373C-151.035 152.525 -263.564 130.857 -490.161 -51.736C-891.497 -375.134 -1086.08 -1003.26 -1086.08 -1003.26" stroke="#848484" stroke-width="1.5965"/>
<path opacity="0.325301" d="M3302.68 2519.41C3302.68 2519.41 2236.93 2096.23 1813.33 1724.6C1316.87 1289.06 949.594 1439.48 517.705 997.579C296.29 771.031 301.575 570.415 69.6865 351.051C-137.554 155.005 -249.592 133.425 -475.201 -48.4253C-874.785 -370.507 -1068.52 -996.077 -1068.52 -996.077" stroke="#848484" stroke-width="1.5965"/>
<path opacity="0.329317" d="M3301.09 2512.22C3301.09 2512.22 2240.01 2090.78 1818.26 1720.67C1323.98 1286.91 958.311 1436.71 528.314 996.615C307.87 770.993 313.132 571.197 82.2596 352.73C-124.073 157.484 -235.62 135.993 -460.239 -45.114C-858.072 -365.879 -1050.96 -988.893 -1050.96 -988.893" stroke="#848484" stroke-width="1.5965"/>
<path opacity="0.333333" d="M3299.49 2505.04C3299.49 2505.04 2243.08 2085.32 1823.19 1716.73C1331.09 1284.75 967.027 1433.94 538.924 995.651C319.449 770.955 324.689 571.978 94.8324 354.408C-110.592 159.964 -221.648 138.561 -445.279 -41.803C-841.36 -361.252 -1033.4 -981.709 -1033.4 -981.709" stroke="#848484" stroke-width="1.5965"/>
<path opacity="0.337349" d="M3297.89 2497.85C3297.89 2497.85 2246.16 2079.87 1828.12 1712.79C1338.19 1282.6 975.744 1431.17 549.533 994.687C331.029 770.917 336.245 572.76 107.405 356.086C-97.1105 162.444 -207.675 141.129 -430.317 -38.4919C-824.648 -356.624 -1015.84 -974.524 -1015.84 -974.524" stroke="#848484" stroke-width="1.5965"/>
<path opacity="0.341365" d="M3296.3 2490.67C3296.3 2490.67 2249.23 2074.41 1833.05 1708.86C1345.3 1280.44 984.461 1428.4 560.143 993.723C342.609 770.878 347.802 573.542 119.979 357.765C-83.6291 164.923 -193.703 143.696 -415.356 -35.181C-807.935 -351.997 -998.276 -967.34 -998.276 -967.34" stroke="#848484" stroke-width="1.5965"/>
<path opacity="0.345382" d="M3294.7 2483.49C3294.7 2483.49 2252.31 2068.96 1837.98 1704.92C1352.41 1278.29 993.177 1425.63 570.752 992.758C354.189 770.84 359.358 574.323 132.551 359.443C-70.1482 167.403 -179.731 146.264 -400.395 -31.87C-791.223 -347.37 -980.715 -960.156 -980.715 -960.156" stroke="#848484" stroke-width="1.5965"/>
<path opacity="0.349398" d="M3293.1 2476.3C3293.1 2476.3 2255.38 2063.5 1842.91 1700.99C1359.51 1276.13 1001.89 1422.86 581.361 991.794C365.769 770.802 370.915 575.105 145.124 361.121C-56.6666 169.882 -165.758 148.832 -385.434 -28.5591C-774.51 -342.742 -963.153 -952.972 -963.153 -952.972" stroke="#848484" stroke-width="1.5965"/>
<path opacity="0.353414" d="M3291.51 2469.12C3291.51 2469.12 2258.45 2058.05 1847.84 1697.05C1366.62 1273.98 1010.61 1420.09 591.971 990.83C377.348 770.763 382.472 575.887 157.697 362.799C-43.1855 172.362 -151.786 151.399 -370.473 -25.2481C-757.798 -338.115 -945.592 -945.788 -945.592 -945.788" stroke="#848484" stroke-width="1.5965"/>
<path opacity="0.35743" d="M3289.91 2461.93C3289.91 2461.93 2261.53 2052.6 1852.77 1693.12C1373.73 1271.82 1019.33 1417.32 602.58 989.866C388.928 770.725 394.029 576.668 170.27 364.477C-29.7041 174.841 -137.814 153.967 -355.512 -21.9372C-741.086 -333.488 -928.03 -938.604 -928.03 -938.604" stroke="#848484" stroke-width="1.5965"/>
<path opacity="0.361446" d="M3288.32 2454.75C3288.32 2454.75 2264.6 2047.14 1857.7 1689.18C1380.83 1269.66 1028.04 1414.55 613.19 988.901C400.508 770.687 405.585 577.45 182.843 366.156C-16.2229 177.321 -123.841 156.535 -340.551 -18.6261C-724.373 -328.86 -910.469 -931.419 -910.469 -931.419" stroke="#848484" stroke-width="1.5965"/>
<path opacity="0.365462" d="M3286.72 2447.56C3286.72 2447.56 2267.68 2041.69 1862.64 1685.24C1387.94 1267.51 1036.76 1411.78 623.799 987.937C412.088 770.649 417.142 578.232 195.416 367.834C-2.74161 179.8 -109.869 159.103 -325.59 -15.315C-707.661 -324.233 -892.907 -924.235 -892.907 -924.235" stroke="#848484" stroke-width="1.5965"/>
<path opacity="0.369478" d="M3285.12 2440.38C3285.12 2440.38 2270.75 2036.23 1867.57 1681.31C1395.05 1265.35 1045.48 1409.01 634.408 986.973C423.668 770.61 428.699 579.013 207.989 369.512C10.7397 182.28 -95.8967 161.67 -310.629 -12.0042C-690.948 -319.605 -875.346 -917.051 -875.346 -917.051" stroke="#848484" stroke-width="1.5965"/>
<path opacity="0.373494" d="M3283.53 2433.2C3283.53 2433.2 2273.83 2030.78 1872.5 1677.37C1402.15 1263.2 1054.19 1406.24 645.018 986.009C435.248 770.572 440.255 579.795 220.562 371.191C24.2209 184.759 -81.9245 164.238 -295.668 -8.69312C-674.236 -314.978 -857.785 -909.866 -857.785 -909.866" stroke="#848484" stroke-width="1.5965"/>
<path opacity="0.37751" d="M3281.93 2426.01C3281.93 2426.01 2276.9 2025.32 1877.43 1673.44C1409.26 1261.04 1062.91 1403.47 655.627 985.045C446.827 770.534 451.812 580.577 233.135 372.869C37.7021 187.239 -67.9523 166.806 -280.707 -5.38196C-657.524 -310.35 -840.223 -902.682 -840.223 -902.682" stroke="#848484" stroke-width="1.5965"/>
<path opacity="0.381526" d="M3280.33 2418.83C3280.33 2418.83 2279.98 2019.87 1882.36 1669.5C1416.37 1258.89 1071.63 1400.7 666.237 984.08C458.407 770.495 463.369 581.358 245.708 374.547C51.1834 189.718 -53.9799 169.373 -265.746 -2.07123C-640.811 -305.723 -822.662 -895.498 -822.662 -895.498" stroke="#848484" stroke-width="1.5965"/>
<path opacity="0.385542" d="M3278.74 2411.64C3278.74 2411.64 2283.05 2014.41 1887.29 1665.57C1423.48 1256.73 1080.34 1397.93 676.846 983.116C469.987 770.457 474.925 582.14 258.281 376.225C64.6647 192.198 -40.0076 171.941 -250.784 1.23978C-624.099 -301.096 -805.1 -888.314 -805.1 -888.314" stroke="#848484" stroke-width="1.5965"/>
<path opacity="0.389558" d="M3277.14 2404.46C3277.14 2404.46 2286.12 2008.96 1892.22 1661.63C1430.58 1254.57 1089.06 1395.16 687.455 982.152C481.567 770.419 486.482 582.922 270.854 377.903C78.1459 194.677 -26.0354 174.509 -235.823 4.55076C-607.387 -296.468 -787.539 -881.13 -787.539 -881.13" stroke="#848484" stroke-width="1.5965"/>
<path opacity="0.393574" d="M3275.54 2397.28C3275.54 2397.28 2289.2 2003.5 1897.15 1657.69C1437.69 1252.42 1097.78 1392.39 698.065 981.188C493.147 770.381 498.038 583.704 283.427 379.582C91.627 197.157 -12.0631 177.077 -220.862 7.86192C-590.675 -291.841 -769.977 -873.945 -769.977 -873.945" stroke="#848484" stroke-width="1.5965"/>
<path opacity="0.39759" d="M3273.95 2390.09C3273.95 2390.09 2292.27 1998.05 1902.08 1653.76C1444.8 1250.26 1106.49 1389.61 708.674 980.223C504.727 770.342 509.595 584.485 296 381.26C105.108 199.636 1.9092 179.644 -205.901 11.1727C-573.962 -287.214 -752.416 -866.761 -752.416 -866.761" stroke="#848484" stroke-width="1.5965"/>
<path opacity="0.401606" d="M3272.35 2382.91C3272.35 2382.91 2295.35 1992.59 1907.01 1649.82C1451.9 1248.11 1115.21 1386.84 719.283 979.259C516.306 770.304 521.151 585.267 308.572 382.938C118.589 202.116 15.881 182.212 -190.941 14.4838C-557.25 -282.586 -734.855 -859.577 -734.855 -859.577" stroke="#848484" stroke-width="1.5965"/>
<path opacity="0.405622" d="M3270.75 2375.72C3270.75 2375.72 2298.42 1987.14 1911.95 1645.89C1459.01 1245.95 1123.93 1384.07 729.893 978.295C527.886 770.266 532.708 586.049 321.146 384.617C132.071 204.596 29.8538 184.78 -175.979 17.795C-540.537 -277.959 -717.293 -852.393 -717.293 -852.393" stroke="#848484" stroke-width="1.5965"/>
<path opacity="0.409639" d="M3269.16 2368.54C3269.16 2368.54 2301.5 1981.68 1916.88 1641.95C1466.12 1243.8 1132.64 1381.3 740.503 977.331C539.466 770.227 544.265 586.83 333.719 386.295C145.552 207.075 43.8265 187.348 -161.018 21.1057C-523.825 -273.331 -699.731 -845.208 -699.731 -845.208" stroke="#848484" stroke-width="1.5965"/>
<path opacity="0.413655" d="M3267.56 2361.35C3267.56 2361.35 2304.57 1976.23 1921.81 1638.02C1473.22 1241.64 1141.36 1378.53 751.112 976.366C551.046 770.189 555.822 587.612 346.292 387.973C159.033 209.554 57.7983 189.915 -146.057 24.4165C-507.113 -268.704 -682.17 -838.024 -682.17 -838.024" stroke="#848484" stroke-width="1.5965"/>
<path opacity="0.417671" d="M3265.96 2354.17C3265.96 2354.17 2307.65 1970.78 1926.74 1634.08C1480.33 1239.49 1150.07 1375.76 761.721 975.402C562.626 770.151 567.378 588.394 358.865 389.652C172.515 212.034 71.7707 192.483 -131.096 27.7279C-490.4 -264.076 -664.609 -830.84 -664.609 -830.84" stroke="#848484" stroke-width="1.5965"/>
<path opacity="0.421687" d="M3264.37 2346.99C3264.37 2346.99 2310.72 1965.32 1931.67 1630.14C1487.44 1237.33 1158.79 1372.99 772.33 974.438C574.205 770.113 578.935 589.175 371.437 391.33C185.996 214.514 85.7426 195.051 -116.135 31.0388C-473.688 -259.449 -647.047 -823.656 -647.047 -823.656" stroke="#848484" stroke-width="1.5965"/>
<path opacity="0.425703" d="M3262.77 2339.8C3262.77 2339.8 2313.79 1959.87 1936.6 1626.21C1494.54 1235.17 1167.51 1370.22 782.94 973.474C585.785 770.074 590.492 589.957 384.011 393.008C199.477 216.993 99.7151 197.619 -101.174 34.3498C-456.976 -254.822 -629.486 -816.471 -629.486 -816.471" stroke="#848484" stroke-width="1.5965"/>
<path opacity="0.429719" d="M3261.18 2332.62C3261.18 2332.62 2316.87 1954.41 1941.53 1622.27C1501.65 1233.02 1176.22 1367.45 793.55 972.509C597.365 770.036 602.049 590.738 396.584 394.686C212.959 219.473 113.688 200.186 -86.2125 37.6607C-440.263 -250.194 -611.924 -809.287 -611.924 -809.287" stroke="#848484" stroke-width="1.5965"/>
<path opacity="0.433735" d="M3259.58 2325.43C3259.58 2325.43 2319.94 1948.96 1946.46 1618.34C1508.76 1230.86 1184.94 1364.68 804.158 971.545C608.944 769.998 613.604 591.52 409.156 396.364C226.439 221.952 127.659 202.754 -71.2521 40.9718C-423.551 -245.567 -594.363 -802.103 -594.363 -802.103" stroke="#848484" stroke-width="1.5965"/>
<path opacity="0.437751" d="M3257.98 2318.25C3257.98 2318.25 2323.02 1943.5 1951.39 1614.4C1515.86 1228.71 1193.66 1361.91 814.768 970.581C620.524 769.959 625.161 592.302 421.729 398.043C239.921 224.432 141.632 205.322 -56.2909 44.2826C-406.839 -240.94 -576.802 -794.919 -576.802 -794.919" stroke="#848484" stroke-width="1.5965"/>
<path opacity="0.441767" d="M3256.39 2311.06C3256.39 2311.06 2326.09 1938.05 1956.33 1610.47C1522.97 1226.55 1202.37 1359.14 825.378 969.617C632.105 769.921 636.719 593.083 434.303 399.721C253.402 226.911 155.605 207.889 -41.3291 47.5937C-390.126 -236.312 -559.239 -787.735 -559.239 -787.735" stroke="#848484" stroke-width="1.5965"/>
<path opacity="0.445783" d="M3254.79 2303.88C3254.79 2303.88 2329.17 1932.59 1961.26 1606.53C1530.08 1224.4 1211.09 1356.37 835.987 968.653C643.684 769.883 648.275 593.865 446.875 401.399C266.883 229.391 169.576 210.457 -26.3687 50.9048C-373.414 -231.685 -541.679 -780.55 -541.679 -780.55" stroke="#848484" stroke-width="1.5965"/>
<path opacity="0.449799" d="M3253.19 2296.7C3253.19 2296.7 2332.24 1927.14 1966.19 1602.59C1537.18 1222.24 1219.81 1353.6 846.596 967.688C655.264 769.845 659.831 594.647 459.448 403.078C280.364 231.87 183.549 213.025 -11.4074 54.2159C-356.702 -227.057 -524.117 -773.366 -524.117 -773.366" stroke="#848484" stroke-width="1.5965"/>
<path opacity="0.453815" d="M3251.6 2289.51C3251.6 2289.51 2335.32 1921.68 1971.12 1598.66C1544.29 1220.09 1228.52 1350.83 857.206 966.724C666.844 769.806 671.388 595.429 472.021 404.756C293.846 234.35 197.521 215.593 3.5537 57.5268C-339.989 -222.43 -506.555 -766.182 -506.555 -766.182" stroke="#848484" stroke-width="1.5965"/>
<path opacity="0.457831" d="M3250 2282.33C3250 2282.33 2338.39 1916.23 1976.05 1594.72C1551.4 1217.93 1237.24 1348.06 867.815 965.76C678.424 769.768 682.945 596.21 484.594 406.434C307.327 236.829 211.493 218.16 18.5147 60.8375C-323.277 -217.803 -488.994 -758.998 -488.994 -758.998" stroke="#848484" stroke-width="1.5965"/>
<path opacity="0.461847" d="M3248.4 2275.14C3248.4 2275.14 2341.46 1910.77 1980.98 1590.79C1558.51 1215.77 1245.96 1345.29 878.425 964.796C690.004 769.73 694.502 596.992 497.168 408.112C320.809 239.309 225.466 220.728 33.4763 64.1488C-306.564 -213.175 -471.432 -751.813 -471.432 -751.813" stroke="#848484" stroke-width="1.5965"/>
<path opacity="0.465863" d="M3246.81 2267.96C3246.81 2267.96 2344.54 1905.32 1985.91 1586.85C1565.61 1213.62 1254.67 1342.52 889.034 963.831C701.583 769.691 706.058 597.774 509.74 409.79C334.289 241.789 239.438 223.296 48.4368 67.4597C-289.852 -208.548 -453.871 -744.629 -453.871 -744.629" stroke="#848484" stroke-width="1.5965"/>
<path opacity="0.46988" d="M3245.21 2260.77C3245.21 2260.77 2347.61 1899.87 1990.84 1582.92C1572.72 1211.46 1263.39 1339.75 899.643 962.867C713.163 769.653 717.615 598.555 522.313 411.469C347.771 244.268 253.41 225.864 63.398 70.7708C-273.14 -203.92 -436.31 -737.445 -436.31 -737.445" stroke="#848484" stroke-width="1.5965"/>
<path opacity="0.473896" d="M3243.61 2253.59C3243.61 2253.59 2350.69 1894.41 1995.77 1578.98C1579.83 1209.31 1272.11 1336.98 910.253 961.903C724.743 769.615 729.171 599.337 534.886 413.147C361.252 246.748 267.382 228.431 78.359 74.0817C-256.428 -199.293 -418.748 -730.261 -418.748 -730.261" stroke="#848484" stroke-width="1.5965"/>
<path opacity="0.477912" d="M3242.02 2246.41C3242.02 2246.41 2353.76 1888.96 2000.7 1575.04C1586.93 1207.15 1280.82 1334.21 920.862 960.939C736.323 769.577 740.728 600.119 547.459 414.825C374.733 249.227 281.355 230.999 93.3201 77.3928C-239.715 -194.665 -401.187 -723.076 -401.187 -723.076" stroke="#848484" stroke-width="1.5965"/>
<path opacity="0.481928" d="M3240.42 2239.22C3240.42 2239.22 2356.84 1883.5 2005.63 1571.11C1594.04 1205 1289.54 1331.44 931.472 959.974C747.902 769.538 752.285 600.9 560.032 416.503C388.214 251.706 295.327 233.567 108.281 80.7035C-223.003 -190.038 -383.625 -715.892 -383.625 -715.892" stroke="#848484" stroke-width="1.5965"/>
<path opacity="0.485944" d="M3238.82 2232.04C3238.82 2232.04 2359.91 1878.05 2010.57 1567.17C1601.15 1202.84 1298.26 1328.67 942.081 959.01C759.482 769.5 763.841 601.682 572.605 418.182C401.696 254.186 309.299 236.135 123.242 84.0147C-206.29 -185.411 -366.064 -708.708 -366.064 -708.708" stroke="#848484" stroke-width="1.5965"/>
<path opacity="0.48996" d="M3237.23 2224.85C3237.23 2224.85 2362.98 1872.59 2015.5 1563.24C1608.25 1200.69 1306.97 1325.9 952.69 958.046C771.062 769.462 775.398 602.464 585.178 419.86C415.177 256.666 323.272 238.702 138.203 87.3258C-189.578 -180.783 -348.502 -701.524 -348.502 -701.524" stroke="#848484" stroke-width="1.5965"/>
<path opacity="0.493976" d="M3235.63 2217.67C3235.63 2217.67 2366.06 1867.14 2020.43 1559.3C1615.36 1198.53 1315.69 1323.13 963.3 957.082C782.642 769.424 786.955 603.246 597.751 421.539C428.658 259.146 337.244 241.27 153.164 90.6369C-172.866 -176.156 -330.941 -694.339 -330.941 -694.339" stroke="#848484" stroke-width="1.5965"/>
<path opacity="0.497992" d="M3234.03 2210.48C3234.03 2210.48 2369.13 1861.68 2025.36 1555.37C1622.47 1196.37 1324.41 1320.36 973.909 956.118C794.222 769.385 798.511 604.027 610.324 423.217C442.139 261.625 351.216 243.838 168.125 93.9478C-156.153 -171.528 -313.38 -687.155 -313.38 -687.155" stroke="#848484" stroke-width="1.5965"/>
<path opacity="0.502008" d="M3232.44 2203.3C3232.44 2203.3 2372.21 1856.23 2030.29 1551.43C1629.57 1194.22 1333.12 1317.59 984.519 955.153C805.802 769.347 810.068 604.809 622.897 424.895C455.621 264.104 365.189 246.406 183.087 97.2586C-139.441 -166.901 -295.818 -679.971 -295.818 -679.971" stroke="#848484" stroke-width="1.5965"/>
<path opacity="0.506024" d="M3230.84 2196.12C3230.84 2196.12 2375.28 1850.77 2035.22 1547.49C1636.68 1192.06 1341.84 1314.81 995.128 954.189C817.381 769.309 821.624 605.59 635.47 426.573C469.102 266.584 379.161 248.973 198.048 100.57C-122.729 -162.274 -278.257 -672.787 -278.257 -672.787" stroke="#848484" stroke-width="1.5965"/>
<path opacity="0.51004" d="M3229.24 2188.93C3229.24 2188.93 2378.36 1845.32 2040.15 1543.56C1643.79 1189.91 1350.56 1312.04 1005.74 953.225C828.961 769.27 833.181 606.372 648.043 428.251C482.583 269.063 393.133 251.541 213.009 103.881C-106.016 -157.646 -260.695 -665.603 -260.695 -665.603" stroke="#848484" stroke-width="1.5965"/>
<path opacity="0.514056" d="M3227.65 2181.75C3227.65 2181.75 2381.43 1839.86 2045.08 1539.62C1650.89 1187.75 1359.27 1309.27 1016.35 952.261C840.541 769.232 844.738 607.154 660.616 429.929C496.064 271.543 407.105 254.109 227.97 107.192C-89.304 -153.019 -243.134 -658.418 -243.134 -658.418" stroke="#848484" stroke-width="1.5965"/>
<path opacity="0.518072" d="M3226.05 2174.56C3226.05 2174.56 2384.51 1834.41 2050.01 1535.69C1658 1185.6 1367.99 1306.5 1026.96 951.297C852.121 769.194 856.294 607.935 673.189 431.608C509.546 274.023 421.078 256.677 242.931 110.503C-72.5917 -148.391 -225.572 -651.234 -225.572 -651.234" stroke="#848484" stroke-width="1.5965"/>
<path opacity="0.522088" d="M3224.46 2167.38C3224.46 2167.38 2387.58 1828.96 2054.94 1531.75C1665.11 1183.44 1376.7 1303.73 1037.57 950.332C863.701 769.156 867.851 608.717 685.762 433.286C523.027 276.502 435.05 259.244 257.892 113.814C-55.8793 -143.764 -208.011 -644.05 -208.011 -644.05" stroke="#848484" stroke-width="1.5965"/>
<path opacity="0.526104" d="M3222.86 2160.2C3222.86 2160.2 2390.65 1823.5 2059.88 1527.82C1672.21 1181.28 1385.42 1300.96 1048.18 949.368C875.281 769.117 879.408 609.499 698.335 434.964C536.508 278.982 449.022 261.812 272.853 117.125C-39.1669 -139.137 -190.449 -636.866 -190.449 -636.866" stroke="#848484" stroke-width="1.5965"/>
<path opacity="0.53012" d="M3221.26 2153.01C3221.26 2153.01 2393.73 1818.05 2064.81 1523.88C1679.32 1179.13 1394.14 1298.19 1058.78 948.404C886.86 769.079 890.964 610.28 710.908 436.643C549.989 281.461 462.994 264.38 287.814 120.436C-22.4546 -134.509 -172.888 -629.681 -172.888 -629.681" stroke="#848484" stroke-width="1.5965"/>
<path opacity="0.534137" d="M3219.67 2145.83C3219.67 2145.83 2396.8 1812.59 2069.74 1519.94C1686.43 1176.97 1402.85 1295.42 1069.39 947.44C898.44 769.041 902.521 611.062 723.481 438.321C563.471 283.941 476.967 266.948 302.775 123.747C-5.74221 -129.882 -155.326 -622.497 -155.326 -622.497" stroke="#848484" stroke-width="1.5965"/>
<path opacity="0.538153" d="M3218.07 2138.64C3218.07 2138.64 2399.88 1807.14 2074.67 1516.01C1693.54 1174.82 1411.57 1292.65 1080 946.475C910.02 769.002 914.078 611.844 736.053 439.999C576.952 286.42 490.939 269.515 317.736 127.058C10.9701 -125.254 -137.765 -615.313 -137.765 -615.313" stroke="#848484" stroke-width="1.5965"/>
<path opacity="0.542169" d="M3216.47 2131.46C3216.47 2131.46 2402.95 1801.68 2079.6 1512.07C1700.64 1172.66 1420.29 1289.88 1090.61 945.511C921.6 768.964 925.634 612.625 748.626 441.677C590.433 288.9 504.911 272.083 332.697 130.368C27.6825 -120.627 -120.203 -608.129 -120.203 -608.129" stroke="#848484" stroke-width="1.5965"/>
<path opacity="0.546185" d="M3214.88 2124.27C3214.88 2124.27 2406.03 1796.23 2084.53 1508.14C1707.75 1170.51 1429 1287.11 1101.22 944.547C933.179 768.926 937.191 613.407 761.199 443.356C603.914 291.379 518.883 274.651 347.658 133.68C44.3944 -116 -102.642 -600.945 -102.642 -600.945" stroke="#848484" stroke-width="1.5965"/>
<path opacity="0.550201" d="M3213.28 2117.09C3213.28 2117.09 2409.1 1790.77 2089.46 1504.2C1714.86 1168.35 1437.72 1284.34 1111.83 943.583C944.759 768.888 948.748 614.189 773.772 445.034C617.396 293.859 532.856 277.219 362.619 136.991C61.1072 -111.372 -85.0805 -593.76 -85.0805 -593.76" stroke="#848484" stroke-width="1.5965"/>
<path opacity="0.554217" d="M3211.68 2109.91C3211.68 2109.91 2412.18 1785.32 2094.39 1500.27C1721.96 1166.2 1446.44 1281.57 1122.44 942.618C956.339 768.849 960.304 614.97 786.345 446.712C630.877 296.338 546.828 279.786 377.58 140.301C77.8191 -106.745 -67.5195 -586.576 -67.5195 -586.576" stroke="#848484" stroke-width="1.5965"/>
<path opacity="0.558233" d="M3210.09 2102.72C3210.09 2102.72 2415.25 1779.86 2099.32 1496.33C1729.07 1164.04 1455.15 1278.8 1133.05 941.654C967.919 768.811 971.861 615.752 798.918 448.39C644.358 298.818 560.8 282.354 392.542 143.613C94.5319 -102.117 -49.9576 -579.392 -49.9576 -579.392" stroke="#848484" stroke-width="1.5965"/>
<path opacity="0.562249" d="M3208.49 2095.54C3208.49 2095.54 2418.32 1774.41 2104.25 1492.4C1736.18 1161.88 1463.87 1276.03 1143.66 940.69C979.499 768.773 983.417 616.534 811.491 450.069C657.839 301.298 574.772 284.922 407.502 146.924C111.244 -97.4898 -32.3966 -572.208 -32.3966 -572.208" stroke="#848484" stroke-width="1.5965"/>
<path opacity="0.566265" d="M3206.89 2088.35C3206.89 2088.35 2421.4 1768.95 2109.19 1488.46C1743.28 1159.73 1472.59 1273.26 1154.27 939.726C991.079 768.734 994.974 617.315 824.064 451.747C671.321 303.777 588.745 287.489 422.464 150.235C127.957 -92.8626 -14.8347 -565.023 -14.8347 -565.023" stroke="#848484" stroke-width="1.5965"/>
<path opacity="0.570281" d="M3205.3 2081.17C3205.3 2081.17 2424.47 1763.5 2114.12 1484.52C1750.39 1157.57 1481.3 1270.49 1164.88 938.761C1002.66 768.696 1006.53 618.097 836.637 453.425C684.802 306.256 602.717 290.057 437.425 153.545C144.669 -88.2354 2.72667 -557.839 2.72667 -557.839" stroke="#848484" stroke-width="1.5965"/>
<path opacity="0.574297" d="M3203.7 2073.98C3203.7 2073.98 2427.55 1758.04 2119.05 1480.59C1757.5 1155.42 1490.02 1267.72 1175.49 937.797C1014.24 768.658 1018.09 618.879 849.21 455.103C698.283 308.736 616.69 292.625 452.386 156.857C161.381 -83.6076 20.2882 -550.655 20.2882 -550.655" stroke="#848484" stroke-width="1.5965"/>
<path opacity="0.578313" d="M3202.1 2066.8C3202.1 2066.8 2430.62 1752.59 2123.98 1476.65C1764.6 1153.26 1498.74 1264.95 1186.1 936.833C1025.82 768.619 1029.64 619.66 861.783 456.782C711.764 311.216 630.662 295.193 467.347 160.168C178.094 -78.9804 37.8496 -543.471 37.8496 -543.471" stroke="#848484" stroke-width="1.5965"/>
<path opacity="0.582329" d="M3200.51 2059.62C3200.51 2059.62 2433.7 1747.14 2128.91 1472.72C1771.71 1151.11 1507.45 1262.18 1196.71 935.869C1037.4 768.581 1041.2 620.442 874.356 458.46C725.246 313.695 644.634 297.76 482.308 163.479C194.806 -74.3528 55.4111 -536.286 55.4111 -536.286" stroke="#848484" stroke-width="1.5965"/>
<path opacity="0.586345" d="M3198.91 2052.43C3198.91 2052.43 2436.77 1741.68 2133.84 1468.78C1778.82 1148.95 1516.17 1259.41 1207.32 934.905C1048.98 768.543 1052.76 621.224 886.929 460.138C738.727 316.175 658.606 300.328 497.269 166.79C211.518 -69.7254 72.9725 -529.102 72.9725 -529.102" stroke="#848484" stroke-width="1.5965"/>
<path opacity="0.590361" d="M3197.32 2045.25C3197.32 2045.25 2439.85 1736.23 2138.77 1464.84C1785.92 1146.8 1524.89 1256.64 1217.93 933.94C1060.56 768.505 1064.31 622.006 899.502 461.816C752.208 318.654 672.579 302.896 512.23 170.101C228.231 -65.0981 90.534 -521.918 90.534 -521.918" stroke="#848484" stroke-width="1.5965"/>
<path opacity="0.594378" d="M3195.72 2038.06C3195.72 2038.06 2442.92 1730.77 2143.7 1460.91C1793.03 1144.64 1533.6 1253.87 1228.53 932.976C1072.14 768.466 1075.87 622.787 912.075 463.495C765.689 321.134 686.551 305.463 527.191 173.411C244.943 -60.4708 108.095 -514.734 108.095 -514.734" stroke="#848484" stroke-width="1.5965"/>
<path opacity="0.598394" d="M3194.12 2030.88C3194.12 2030.88 2445.99 1725.32 2148.63 1456.97C1800.14 1142.48 1542.32 1251.1 1239.14 932.012C1083.72 768.428 1087.43 623.569 924.648 465.173C779.171 323.613 700.523 308.031 542.152 176.722C261.655 -55.8434 125.657 -507.55 125.657 -507.55" stroke="#848484" stroke-width="1.5965"/>
<path opacity="0.60241" d="M3192.53 2023.69C3192.53 2023.69 2449.07 1719.86 2153.56 1453.04C1807.24 1140.33 1551.04 1248.33 1249.75 931.048C1095.3 768.39 1098.98 624.351 937.221 466.851C792.652 326.093 714.495 310.599 557.113 180.034C278.368 -51.2159 143.218 -500.365 143.218 -500.365" stroke="#848484" stroke-width="1.5965"/>
<path opacity="0.606426" d="M3190.93 2016.51C3190.93 2016.51 2452.14 1714.41 2158.5 1449.1C1814.35 1138.17 1559.75 1245.56 1260.36 930.084C1106.88 768.352 1110.54 625.132 949.794 468.53C806.133 328.572 728.468 313.167 572.074 183.345C295.08 -46.5884 160.78 -493.181 160.78 -493.181" stroke="#848484" stroke-width="1.5965"/>
<path opacity="0.610442" d="M3189.33 2009.33C3189.33 2009.33 2455.22 1708.95 2163.43 1445.17C1821.46 1136.02 1568.47 1242.79 1270.97 929.119C1118.46 768.313 1122.1 625.914 962.367 470.208C819.614 331.052 742.44 315.735 587.035 186.656C311.792 -41.9611 178.341 -485.997 178.341 -485.997" stroke="#848484" stroke-width="1.5965"/>
<path opacity="0.614458" d="M3187.74 2002.14C3187.74 2002.14 2458.29 1703.5 2168.36 1441.23C1828.57 1133.86 1577.18 1240.02 1281.58 928.155C1130.04 768.275 1133.65 626.696 974.94 471.886C833.096 333.532 756.412 318.302 601.996 189.967C328.505 -37.3336 195.903 -478.812 195.903 -478.812" stroke="#848484" stroke-width="1.5965"/>
<path opacity="0.618474" d="M3186.14 1994.96C3186.14 1994.96 2461.37 1698.04 2173.29 1437.29C1835.67 1131.71 1585.9 1237.24 1292.19 927.191C1141.62 768.237 1145.21 627.477 987.513 473.564C846.577 336.011 770.385 320.87 616.958 193.277C345.217 -32.7063 213.465 -471.628 213.465 -471.628" stroke="#848484" stroke-width="1.5965"/>
<path opacity="0.62249" d="M3184.54 1987.77C3184.54 1987.77 2464.44 1692.59 2178.22 1433.36C1842.78 1129.55 1594.62 1234.47 1302.8 926.227C1153.2 768.198 1156.77 628.259 1000.09 475.242C860.058 338.491 784.357 323.438 631.919 196.589C361.929 -28.0789 231.026 -464.444 231.026 -464.444" stroke="#848484" stroke-width="1.5965"/>
<path opacity="0.626506" d="M3182.95 1980.59C3182.95 1980.59 2467.52 1687.13 2183.15 1429.42C1849.89 1127.4 1603.33 1231.7 1313.41 925.262C1164.78 768.16 1168.32 629.041 1012.66 476.921C873.54 340.97 798.329 326.006 646.88 199.9C378.642 -23.4514 248.587 -457.26 248.587 -457.26" stroke="#848484" stroke-width="1.5965"/>
<path opacity="0.630522" d="M3181.35 1973.41C3181.35 1973.41 2470.59 1681.68 2188.08 1425.49C1856.99 1125.24 1612.05 1228.93 1324.02 924.298C1176.36 768.122 1179.88 629.822 1025.23 478.599C887.02 343.45 812.301 328.573 661.841 203.21C395.354 -18.8241 266.148 -450.076 266.148 -450.076" stroke="#848484" stroke-width="1.5965"/>
<path opacity="0.634538" d="M3179.75 1966.22C3179.75 1966.22 2473.66 1676.23 2193.01 1421.55C1864.1 1123.08 1620.77 1226.16 1334.63 923.334C1187.94 768.083 1191.44 630.604 1037.8 480.277C900.502 345.929 826.274 331.141 676.802 206.521C412.067 -14.1968 283.71 -442.892 283.71 -442.892" stroke="#848484" stroke-width="1.5965"/>
<path opacity="0.638554" d="M3178.16 1959.04C3178.16 1959.04 2476.74 1670.77 2197.94 1417.62C1871.21 1120.93 1629.48 1223.39 1345.24 922.369C1199.52 768.045 1202.99 631.386 1050.38 481.955C913.983 348.409 840.246 333.709 691.763 209.832C428.779 -9.56937 301.271 -435.707 301.271 -435.707" stroke="#848484" stroke-width="1.5965"/>
<path opacity="0.64257" d="M3176.56 1951.85C3176.56 1951.85 2479.81 1665.32 2202.88 1413.68C1878.31 1118.77 1638.2 1220.62 1355.85 921.405C1211.09 768.007 1214.55 632.167 1062.95 483.634C927.464 350.888 854.218 336.276 706.724 213.143C445.491 -4.94186 318.833 -428.523 318.833 -428.523" stroke="#848484" stroke-width="1.5965"/>
<path opacity="0.646586" d="M3174.96 1944.67C3174.96 1944.67 2482.89 1659.86 2207.81 1409.74C1885.42 1116.62 1646.92 1217.85 1366.46 920.441C1222.67 767.969 1226.11 632.949 1075.52 485.312C940.945 353.368 868.19 338.844 721.685 216.454C462.203 -0.314583 336.394 -421.339 336.394 -421.339" stroke="#848484" stroke-width="1.5965"/>
<path opacity="0.650602" d="M3173.37 1937.48C3173.37 1937.48 2485.96 1654.41 2212.74 1405.81C1892.53 1114.46 1655.63 1215.08 1377.07 919.477C1234.25 767.931 1237.66 633.731 1088.1 486.99C954.427 355.847 882.163 341.412 736.646 219.766C478.916 4.31312 353.956 -414.154 353.956 -414.154" stroke="#848484" stroke-width="1.5965"/>
<path opacity="0.654619" d="M3171.77 1930.3C3171.77 1930.3 2489.04 1648.95 2217.67 1401.87C1899.63 1112.31 1664.35 1212.31 1387.68 918.513C1245.83 767.892 1249.22 634.512 1100.67 488.669C967.908 358.327 896.135 343.98 751.607 223.077C495.628 8.94039 371.517 -406.97 371.517 -406.97" stroke="#848484" stroke-width="1.5965"/>
<path opacity="0.658635" d="M3170.17 1923.12C3170.17 1923.12 2492.11 1643.5 2222.6 1397.94C1906.74 1110.15 1673.07 1209.54 1398.29 917.548C1257.41 767.854 1260.78 635.294 1113.24 490.347C981.389 360.806 910.107 346.547 766.568 226.387C512.341 13.5676 389.079 -399.786 389.079 -399.786" stroke="#848484" stroke-width="1.5965"/>
<path opacity="0.662651" d="M3168.58 1915.93C3168.58 1915.93 2495.19 1638.04 2227.53 1394C1913.85 1108 1681.78 1206.77 1408.89 916.584C1268.99 767.816 1272.33 636.076 1125.82 492.025C994.87 363.286 924.08 349.115 781.529 229.698C529.053 18.1951 406.64 -392.602 406.64 -392.602" stroke="#848484" stroke-width="1.5965"/>
<path opacity="0.666667" d="M3166.98 1908.75C3166.98 1908.75 2498.26 1632.59 2232.46 1390.07C1920.95 1105.84 1690.5 1204 1419.5 915.62C1280.57 767.777 1283.89 636.857 1138.39 493.703C1008.35 365.765 938.052 351.683 796.49 233.009C545.765 22.8226 424.202 -385.417 424.202 -385.417" stroke="#848484" stroke-width="1.5965"/>
<path opacity="0.670683" d="M3165.39 1901.56C3165.39 1901.56 2501.33 1627.13 2237.39 1386.13C1928.06 1103.68 1699.22 1201.23 1430.11 914.656C1292.15 767.739 1295.45 637.639 1150.96 495.381C1021.83 368.245 952.024 354.25 811.451 236.32C562.478 27.4499 441.763 -378.233 441.763 -378.233" stroke="#848484" stroke-width="1.5965"/>
<path opacity="0.674699" d="M3163.79 1894.38C3163.79 1894.38 2504.41 1621.68 2242.32 1382.2C1935.17 1101.53 1707.93 1198.46 1440.72 913.692C1303.73 767.701 1307 638.421 1163.53 497.06C1035.31 370.724 965.996 356.818 826.412 239.631C579.19 32.0774 459.325 -371.049 459.325 -371.049" stroke="#848484" stroke-width="1.5965"/>
<path opacity="0.678715" d="M3162.19 1887.19C3162.19 1887.19 2507.48 1616.22 2247.25 1378.26C1942.27 1099.37 1716.65 1195.69 1451.33 912.727C1315.31 767.662 1318.56 639.202 1176.11 498.738C1048.8 373.204 979.969 359.386 841.373 242.942C595.902 36.7047 476.886 -363.865 476.886 -363.865" stroke="#848484" stroke-width="1.5965"/>
<path opacity="0.682731" d="M3160.6 1880.01C3160.6 1880.01 2510.56 1610.77 2252.19 1374.32C1949.38 1097.22 1725.37 1192.92 1461.94 911.763C1326.89 767.624 1330.12 639.984 1188.68 500.416C1062.28 375.684 993.941 361.954 856.335 246.253C612.615 41.3322 494.447 -356.681 494.447 -356.681" stroke="#848484" stroke-width="1.5965"/>
<path opacity="0.686747" d="M3159 1872.83C3159 1872.83 2513.63 1605.31 2257.12 1370.39C1956.49 1095.06 1734.08 1190.15 1472.55 910.799C1338.47 767.586 1341.67 640.766 1201.25 502.094C1075.76 378.163 1007.91 364.521 871.296 249.564C629.327 45.9594 512.009 -349.497 512.009 -349.497" stroke="#848484" stroke-width="1.5965"/>
<path opacity="0.690763" d="M3157.4 1865.64C3157.4 1865.64 2516.71 1599.86 2262.05 1366.45C1963.59 1092.91 1742.8 1187.38 1483.16 909.835C1350.05 767.548 1353.23 641.548 1213.83 503.773C1089.24 380.643 1021.89 367.089 886.256 252.876C646.039 50.5871 529.57 -342.312 529.57 -342.312" stroke="#848484" stroke-width="1.5965"/>
<path opacity="0.694779" d="M3155.81 1858.46C3155.81 1858.46 2519.78 1594.41 2266.98 1362.52C1970.7 1090.75 1751.52 1184.61 1493.77 908.87C1361.63 767.509 1364.79 642.329 1226.4 505.451C1102.72 383.122 1035.86 369.657 901.218 256.186C662.751 55.2144 547.132 -335.128 547.132 -335.128" stroke="#848484" stroke-width="1.5965"/>
<path opacity="0.698795" d="M3154.21 1851.27C3154.21 1851.27 2522.86 1588.95 2271.91 1358.58C1977.81 1088.59 1760.23 1181.84 1504.38 907.906C1373.21 767.471 1376.34 643.111 1238.97 507.129C1116.2 385.602 1049.83 372.225 916.179 259.497C679.464 59.8417 564.693 -327.944 564.693 -327.944" stroke="#848484" stroke-width="1.5965"/>
<path opacity="0.702811" d="M3152.61 1844.09C3152.61 1844.09 2525.93 1583.5 2276.84 1354.65C1984.92 1086.44 1768.95 1179.07 1514.99 906.942C1384.79 767.433 1387.9 643.893 1251.54 508.808C1129.68 388.081 1063.8 374.793 931.14 262.809C696.176 64.4694 582.255 -320.759 582.255 -320.759" stroke="#848484" stroke-width="1.5965"/>
<path opacity="0.706827" d="M3151.02 1836.9C3151.02 1836.9 2529 1578.04 2281.77 1350.71C1992.02 1084.28 1777.67 1176.3 1525.6 905.978C1396.37 767.395 1399.46 644.674 1264.12 510.486C1143.16 390.561 1077.77 377.36 946.101 266.119C712.889 69.0967 599.816 -313.575 599.816 -313.575" stroke="#848484" stroke-width="1.5965"/>
<path opacity="0.710843" d="M3149.42 1829.72C3149.42 1829.72 2532.08 1572.59 2286.7 1346.77C1999.13 1082.13 1786.38 1173.53 1536.21 905.013C1407.95 767.356 1411.01 645.456 1276.69 512.164C1156.65 393.04 1091.75 379.928 961.062 269.43C729.601 73.7239 617.378 -306.391 617.378 -306.391" stroke="#848484" stroke-width="1.5965"/>
<path opacity="0.714859" d="M3147.82 1822.54C3147.82 1822.54 2535.15 1567.13 2291.63 1342.84C2006.24 1079.97 1795.1 1170.76 1546.82 904.049C1419.53 767.318 1422.57 646.237 1289.26 513.842C1170.13 395.52 1105.72 382.495 976.023 272.741C746.314 78.3512 634.939 -299.207 634.939 -299.207" stroke="#848484" stroke-width="1.5965"/>
<path opacity="0.718876" d="M3146.23 1815.35C3146.23 1815.35 2538.23 1561.68 2296.56 1338.9C2013.34 1077.82 1803.81 1167.99 1557.43 903.085C1431.11 767.28 1434.13 647.019 1301.84 515.521C1183.61 397.999 1119.69 385.064 990.984 276.052C763.026 82.9789 652.501 -292.022 652.501 -292.022" stroke="#848484" stroke-width="1.5965"/>
<path opacity="0.722892" d="M3144.63 1808.17C3144.63 1808.17 2541.3 1556.22 2301.5 1334.97C2020.45 1075.66 1812.53 1165.21 1568.04 902.121C1442.69 767.241 1445.68 647.801 1314.41 517.199C1197.09 400.479 1133.66 387.631 1005.95 279.363C779.738 87.6061 670.062 -284.838 670.062 -284.838" stroke="#848484" stroke-width="1.5965"/>
<path opacity="0.726908" d="M3143.03 1800.98C3143.03 1800.98 2544.38 1550.77 2306.43 1331.03C2027.56 1073.51 1821.25 1162.44 1578.65 901.156C1454.27 767.203 1457.24 648.582 1326.98 518.877C1210.57 402.958 1147.64 390.199 1020.91 282.674C796.45 92.2334 687.623 -277.654 687.623 -277.654" stroke="#848484" stroke-width="1.5965"/>
<path opacity="0.730924" d="M3141.44 1793.8C3141.44 1793.8 2547.45 1545.31 2311.36 1327.1C2034.66 1071.35 1829.96 1159.67 1589.25 900.193C1465.85 767.165 1468.8 649.364 1339.56 520.556C1224.05 405.438 1161.61 392.767 1035.87 285.985C813.163 96.8612 705.185 -270.47 705.185 -270.47" stroke="#848484" stroke-width="1.5965"/>
<path opacity="0.73494" d="M3139.84 1786.62C3139.84 1786.62 2550.53 1539.86 2316.29 1323.16C2041.77 1069.19 1838.68 1156.9 1599.86 899.228C1477.43 767.126 1480.35 650.146 1352.13 522.234C1237.53 407.918 1175.58 395.334 1050.83 289.296C829.875 101.488 722.746 -263.286 722.746 -263.286" stroke="#848484" stroke-width="1.5965"/>
<path opacity="0.738956" d="M3138.24 1779.43C3138.24 1779.43 2553.6 1534.4 2321.22 1319.22C2048.88 1067.04 1847.4 1154.13 1610.47 898.264C1489.01 767.088 1491.91 650.927 1364.7 523.912C1251.01 410.397 1189.55 397.902 1065.79 292.607C846.588 106.116 740.308 -256.102 740.308 -256.102" stroke="#848484" stroke-width="1.5965"/>
<path opacity="0.742972" d="M3136.65 1772.25C3136.65 1772.25 2556.67 1528.95 2326.15 1315.29C2055.98 1064.88 1856.11 1151.36 1621.08 897.3C1500.59 767.05 1503.47 651.709 1377.27 525.59C1264.5 412.877 1203.53 400.47 1080.75 295.918C863.3 110.743 757.869 -248.917 757.869 -248.917" stroke="#848484" stroke-width="1.5965"/>
<path opacity="0.746988" d="M3135.05 1765.06C3135.05 1765.06 2559.75 1523.5 2331.08 1311.35C2063.09 1062.73 1864.83 1148.59 1631.69 896.335C1512.17 767.012 1515.02 652.491 1389.85 527.268C1277.98 415.356 1217.5 403.038 1095.71 299.229C880.012 115.371 775.431 -241.733 775.431 -241.733" stroke="#848484" stroke-width="1.5965"/>
<path opacity="0.751004" d="M3133.46 1757.88C3133.46 1757.88 2562.82 1518.04 2336.01 1307.42C2070.2 1060.57 1873.55 1145.82 1642.3 895.371C1523.75 766.973 1526.58 653.272 1402.42 528.947C1291.46 417.836 1231.47 405.605 1110.67 302.54C896.725 119.998 792.992 -234.549 792.992 -234.549" stroke="#848484" stroke-width="1.5965"/>
<path opacity="0.75502" d="M3131.86 1750.69C3131.86 1750.69 2565.9 1512.59 2340.94 1303.48C2077.3 1058.42 1882.26 1143.05 1652.91 894.407C1535.33 766.935 1538.14 654.054 1414.99 530.625C1304.94 420.315 1245.44 408.173 1125.63 305.851C913.437 124.625 810.554 -227.365 810.554 -227.365" stroke="#848484" stroke-width="1.5965"/>
<path opacity="0.759036" d="M3130.26 1743.51C3130.26 1743.51 2568.97 1507.13 2345.87 1299.55C2084.41 1056.26 1890.98 1140.28 1663.52 893.443C1546.91 766.897 1549.69 654.836 1427.57 532.303C1318.42 422.795 1259.41 410.741 1140.59 309.162C930.149 129.253 828.115 -220.18 828.115 -220.18" stroke="#848484" stroke-width="1.5965"/>
<path opacity="0.763052" d="M3128.67 1736.33C3128.67 1736.33 2572.05 1501.68 2350.81 1295.61C2091.52 1054.11 1899.7 1137.51 1674.13 892.478C1558.49 766.858 1561.25 655.617 1440.14 533.981C1331.9 425.274 1273.39 413.308 1155.56 312.473C946.862 133.88 845.677 -212.996 845.677 -212.996" stroke="#848484" stroke-width="1.5965"/>
<path opacity="0.767068" d="M3127.07 1729.14C3127.07 1729.14 2575.12 1496.22 2355.74 1291.67C2098.63 1051.95 1908.41 1134.74 1684.74 891.514C1570.07 766.82 1572.81 656.399 1452.71 535.66C1345.38 427.754 1287.36 415.876 1170.52 315.784C963.574 138.508 863.238 -205.812 863.238 -205.812" stroke="#848484" stroke-width="1.5965"/>
<path opacity="0.771084" d="M3125.47 1721.96C3125.47 1721.96 2578.2 1490.77 2360.67 1287.74C2105.73 1049.79 1917.13 1131.97 1695.35 890.55C1581.65 766.782 1584.36 657.181 1465.29 537.338C1358.86 430.233 1301.33 418.444 1185.48 319.095C980.286 143.135 880.799 -198.627 880.799 -198.627" stroke="#848484" stroke-width="1.5965"/>
<path opacity="0.7751" d="M3123.88 1714.77C3123.88 1714.77 2581.27 1485.31 2365.6 1283.8C2112.84 1047.64 1925.85 1129.2 1705.96 889.586C1593.23 766.744 1595.92 657.963 1477.86 539.016C1372.35 432.713 1315.3 421.012 1200.44 322.406C996.999 147.762 898.361 -191.443 898.361 -191.443" stroke="#848484" stroke-width="1.5965"/>
<path opacity="0.779116" d="M3122.28 1707.59C3122.28 1707.59 2584.34 1479.86 2370.53 1279.87C2119.95 1045.48 1934.56 1126.43 1716.57 888.622C1604.81 766.705 1607.48 658.744 1490.43 540.695C1385.83 435.193 1329.28 423.58 1215.4 325.717C1013.71 152.39 915.922 -184.259 915.922 -184.259" stroke="#848484" stroke-width="1.5965"/>
<path opacity="0.783133" d="M3120.68 1700.4C3120.68 1700.4 2587.42 1474.4 2375.46 1275.93C2127.05 1043.33 1943.28 1123.66 1727.18 887.657C1616.39 766.667 1619.03 659.526 1503 542.373C1399.31 437.672 1343.25 426.147 1230.36 329.028C1030.42 157.017 933.484 -177.075 933.484 -177.075" stroke="#848484" stroke-width="1.5965"/>
<path opacity="0.787149" d="M3119.09 1693.22C3119.09 1693.22 2590.49 1468.95 2380.39 1272C2134.16 1041.17 1952 1120.89 1737.79 886.693C1627.97 766.629 1630.59 660.308 1515.58 544.051C1412.79 440.151 1357.22 428.715 1245.32 332.339C1047.14 161.645 951.045 -169.891 951.045 -169.891" stroke="#848484" stroke-width="1.5965"/>
<path opacity="0.791165" d="M3117.49 1686.04C3117.49 1686.04 2593.57 1463.49 2385.32 1268.06C2141.27 1039.02 1960.71 1118.12 1748.4 885.729C1639.55 766.591 1642.15 661.089 1528.15 545.729C1426.27 442.631 1371.19 431.283 1260.28 335.65C1063.85 166.272 968.607 -162.706 968.607 -162.706" stroke="#848484" stroke-width="1.5965"/>
<path opacity="0.795181" d="M3115.89 1678.85C3115.89 1678.85 2596.64 1458.04 2390.25 1264.12C2148.37 1036.86 1969.43 1115.35 1759 884.765C1651.13 766.552 1653.7 661.871 1540.72 547.407C1439.75 445.111 1385.16 433.85 1275.24 338.961C1080.56 170.899 986.168 -155.522 986.168 -155.522" stroke="#848484" stroke-width="1.5965"/>
<path opacity="0.799197" d="M3114.3 1671.67C3114.3 1671.67 2599.72 1452.59 2395.18 1260.19C2155.48 1034.71 1978.15 1112.58 1769.61 883.8C1662.71 766.514 1665.26 662.653 1553.3 549.086C1453.23 447.59 1399.14 436.418 1290.21 342.272C1097.27 175.527 1003.73 -148.338 1003.73 -148.338" stroke="#848484" stroke-width="1.5965"/>
<path opacity="0.803213" d="M3112.7 1664.48C3112.7 1664.48 2602.79 1447.13 2400.12 1256.25C2162.59 1032.55 1986.86 1109.81 1780.22 882.836C1674.29 766.476 1676.82 663.434 1565.87 550.764C1466.71 450.07 1413.11 438.986 1305.17 345.583C1113.99 180.154 1021.29 -141.154 1021.29 -141.154" stroke="#848484" stroke-width="1.5965"/>
<path opacity="0.807229" d="M3111.1 1657.3C3111.1 1657.3 2605.87 1441.68 2405.05 1252.32C2169.69 1030.39 1995.58 1107.04 1790.83 881.872C1685.87 766.437 1688.37 664.216 1578.44 552.442C1480.2 452.549 1427.08 441.554 1320.13 348.894C1130.7 184.782 1038.85 -133.969 1038.85 -133.969" stroke="#848484" stroke-width="1.5965"/>
<path opacity="0.811245" d="M3109.51 1650.11C3109.51 1650.11 2608.94 1436.22 2409.98 1248.38C2176.8 1028.24 2004.29 1104.27 1801.44 880.908C1697.45 766.399 1699.93 664.998 1591.01 554.121C1493.68 455.029 1441.05 444.121 1335.09 352.205C1147.41 189.409 1056.41 -126.785 1056.41 -126.785" stroke="#848484" stroke-width="1.5965"/>
<path opacity="0.815261" d="M3107.91 1642.93C3107.91 1642.93 2612.01 1430.77 2414.91 1244.45C2183.91 1026.08 2013.01 1101.5 1812.05 879.943C1709.03 766.361 1711.49 665.779 1603.59 555.799C1507.16 457.508 1455.03 446.689 1350.05 355.516C1164.12 194.036 1073.98 -119.601 1073.98 -119.601" stroke="#848484" stroke-width="1.5965"/>
<path opacity="0.819277" d="M3106.31 1635.75C3106.31 1635.75 2615.09 1425.31 2419.84 1240.51C2191.01 1023.93 2021.73 1098.73 1822.66 878.979C1720.61 766.323 1723.04 666.561 1616.16 557.477C1520.64 459.988 1469 449.257 1365.01 358.827C1180.83 198.664 1091.54 -112.417 1091.54 -112.417" stroke="#848484" stroke-width="1.5965"/>
<path opacity="0.823293" d="M3104.72 1628.56C3104.72 1628.56 2618.16 1419.86 2424.77 1236.57C2198.12 1021.77 2030.44 1095.96 1833.27 878.015C1732.19 766.284 1734.6 667.343 1628.73 559.155C1534.12 462.467 1482.97 451.825 1379.97 362.138C1197.55 203.291 1109.1 -105.232 1109.1 -105.232" stroke="#848484" stroke-width="1.5965"/>
<path opacity="0.827309" d="M3103.12 1621.38C3103.12 1621.38 2621.24 1414.4 2429.7 1232.64C2205.23 1019.62 2039.16 1093.19 1843.88 877.051C1743.77 766.246 1746.16 668.124 1641.31 560.833C1547.6 464.947 1496.94 454.392 1394.93 365.449C1214.26 207.919 1126.66 -98.0483 1126.66 -98.0483" stroke="#848484" stroke-width="1.5965"/>
<path opacity="0.831325" d="M3101.53 1614.19C3101.53 1614.19 2624.31 1408.95 2434.63 1228.7C2212.33 1017.46 2047.88 1090.42 1854.49 876.087C1755.35 766.208 1757.71 668.906 1653.88 562.512C1561.08 467.426 1510.92 456.96 1409.89 368.76C1230.97 212.546 1144.22 -90.864 1144.22 -90.864" stroke="#848484" stroke-width="1.5965"/>
<path opacity="0.835341" d="M3099.93 1607.01C3099.93 1607.01 2627.39 1403.49 2439.56 1224.77C2219.44 1015.31 2056.59 1087.64 1865.1 875.123C1766.93 766.17 1769.27 669.688 1666.45 564.19C1574.56 469.906 1524.89 459.528 1424.86 372.071C1247.68 217.174 1161.78 -83.6797 1161.78 -83.6797" stroke="#848484" stroke-width="1.5965"/>
<path opacity="0.839357" d="M3098.33 1599.83C3098.33 1599.83 2630.46 1398.04 2444.49 1220.83C2226.55 1013.15 2065.31 1084.87 1875.71 874.158C1778.51 766.131 1780.83 670.469 1679.03 565.868C1588.05 472.385 1538.86 462.095 1439.82 375.382C1264.4 221.801 1179.34 -76.4956 1179.34 -76.4956" stroke="#848484" stroke-width="1.5965"/>
<path opacity="0.843373" d="M3096.74 1592.64C3096.74 1592.64 2633.54 1392.58 2449.43 1216.9C2233.66 1010.99 2074.03 1082.1 1886.32 873.194C1790.09 766.093 1792.38 671.251 1691.6 567.546C1601.53 474.865 1552.83 464.663 1454.78 378.693C1281.11 226.428 1196.91 -69.3115 1196.91 -69.3115" stroke="#848484" stroke-width="1.5965"/>
<path opacity="0.84739" d="M3095.14 1585.46C3095.14 1585.46 2636.61 1387.13 2454.36 1212.96C2240.76 1008.84 2082.74 1079.33 1896.93 872.23C1801.67 766.055 1803.94 672.033 1704.17 569.225C1615.01 477.345 1566.8 467.231 1469.74 382.004C1297.82 231.056 1214.47 -62.127 1214.47 -62.127" stroke="#848484" stroke-width="1.5965"/>
<path opacity="0.851406" d="M3093.54 1578.27C3093.54 1578.27 2639.68 1381.68 2459.29 1209.02C2247.87 1006.68 2091.46 1076.56 1907.54 871.266C1813.25 766.016 1815.5 672.814 1716.74 570.903C1628.49 479.824 1580.78 469.799 1484.7 385.315C1314.53 235.683 1232.03 -54.9429 1232.03 -54.9429" stroke="#848484" stroke-width="1.5965"/>
<path opacity="0.855422" d="M3091.95 1571.09C3091.95 1571.09 2642.76 1376.22 2464.22 1205.09C2254.98 1004.53 2100.18 1073.79 1918.15 870.301C1824.82 765.978 1827.05 673.596 1729.32 572.581C1641.97 482.303 1594.75 472.366 1499.66 388.626C1331.25 240.31 1249.59 -47.7588 1249.59 -47.7588" stroke="#848484" stroke-width="1.5965"/>
<path opacity="0.859438" d="M3090.35 1563.9C3090.35 1563.9 2645.83 1370.77 2469.15 1201.15C2262.08 1002.37 2108.89 1071.02 1928.76 869.337C1836.4 765.94 1838.61 674.378 1741.89 574.259C1655.45 484.783 1608.72 474.934 1514.62 391.937C1347.96 244.938 1267.15 -40.5745 1267.15 -40.5745" stroke="#848484" stroke-width="1.5965"/>
<path opacity="0.863454" d="M3088.75 1556.72C3088.75 1556.72 2648.91 1365.31 2474.08 1197.22C2269.19 1000.22 2117.61 1068.25 1939.36 868.373C1847.98 765.902 1850.17 675.16 1754.46 575.938C1668.93 487.263 1622.69 477.502 1529.58 395.248C1364.67 249.565 1284.71 -33.3901 1284.71 -33.3901" stroke="#848484" stroke-width="1.5965"/>
<path opacity="0.86747" d="M3087.16 1549.54C3087.16 1549.54 2651.98 1359.86 2479.01 1193.28C2276.3 998.06 2126.33 1065.48 1949.97 867.409C1859.56 765.863 1861.72 675.941 1767.04 577.616C1682.41 489.742 1636.67 480.07 1544.54 398.559C1381.38 254.193 1302.27 -26.2061 1302.27 -26.2061" stroke="#848484" stroke-width="1.5965"/>
<path opacity="0.871486" d="M3085.56 1542.35C3085.56 1542.35 2655.06 1354.4 2483.94 1189.35C2283.4 995.905 2135.04 1062.71 1960.58 866.444C1871.14 765.825 1873.28 676.723 1779.61 579.294C1695.9 492.222 1650.64 482.637 1559.5 401.87C1398.09 258.82 1319.84 -19.022 1319.84 -19.022" stroke="#848484" stroke-width="1.5965"/>
<path opacity="0.875502" d="M3083.96 1535.17C3083.96 1535.17 2658.13 1348.95 2488.87 1185.41C2290.51 993.749 2143.76 1059.94 1971.19 865.48C1882.72 765.787 1884.84 677.505 1792.18 580.973C1709.38 494.701 1664.61 485.205 1574.47 405.181C1414.81 263.448 1337.4 -11.8374 1337.4 -11.8374" stroke="#848484" stroke-width="1.5965"/>
<path opacity="0.879518" d="M3082.37 1527.98C3082.37 1527.98 2661.21 1343.49 2493.8 1181.47C2297.62 991.594 2152.48 1057.17 1981.8 864.516C1894.3 765.748 1896.39 678.286 1804.75 582.651C1722.86 497.181 1678.58 487.773 1589.43 408.492C1431.52 268.075 1354.96 -4.65332 1354.96 -4.65332" stroke="#848484" stroke-width="1.5965"/>
<path opacity="0.883534" d="M3080.77 1520.8C3080.77 1520.8 2664.28 1338.04 2498.74 1177.54C2304.72 989.438 2161.19 1054.4 1992.41 863.551C1905.88 765.71 1907.95 679.068 1817.33 584.329C1736.34 499.66 1692.56 490.34 1604.39 411.803C1448.23 272.702 1372.52 2.53076 1372.52 2.53076" stroke="#848484" stroke-width="1.5965"/>
<path opacity="0.88755" d="M3079.17 1513.61C3079.17 1513.61 2667.35 1332.58 2503.67 1173.6C2311.83 987.283 2169.91 1051.63 2003.02 862.588C1917.46 765.672 1919.51 679.85 1829.9 586.007C1749.82 502.14 1706.53 492.908 1619.35 415.114C1464.94 277.33 1390.08 9.71533 1390.08 9.71533" stroke="#848484" stroke-width="1.5965"/>
</svg>
