<svg width="904" height="236" viewBox="0 0 904 236" fill="none" xmlns="http://www.w3.org/2000/svg">
<path d="M139.656 191.375L133.25 232H0.125L5.75 195.75L75.2812 120.594C79.1354 116.115 83.0417 111.167 87 105.75C90.9583 100.229 94.4479 94.5 97.4688 88.5625C100.594 82.5208 102.521 76.4792 103.25 70.4375C103.771 67.2083 104.188 63.3542 104.5 58.875C104.812 54.2917 104.24 50.2812 102.781 46.8438C101.427 43.3021 98.25 41.4792 93.25 41.375C87.5208 41.0625 83.1458 43.0938 80.125 47.4688C77.2083 51.8438 75.1771 56.9479 74.0312 62.7812C72.9896 68.5104 72.2604 73.4062 71.8438 77.4688L21.8438 77.7812C22.4688 64.1354 26.1146 51.4792 32.7812 39.8125C39.5521 28.0417 48.5104 18.6146 59.6562 11.5312C70.8021 4.34375 83.5625 0.854167 97.9375 1.0625C110.958 1.27083 121.896 4.13542 130.75 9.65625C139.708 15.1771 146.323 22.7812 150.594 32.4688C154.865 42.1562 156.479 53.4062 155.438 66.2188C154.5 75.8021 152.156 84.7604 148.406 93.0938C144.656 101.427 139.969 109.24 134.344 116.531C128.719 123.823 122.677 130.854 116.219 137.625C109.76 144.396 103.51 151.062 97.4688 157.625L73.0938 191.062L139.656 191.375ZM313.094 97.4688L306.844 138.875C305.385 149.708 302.781 160.854 299.031 172.312C295.385 183.667 290.438 194.188 284.188 203.875C277.938 213.458 270.177 221.167 260.906 227C251.635 232.729 240.385 235.438 227.156 235.125C217.156 234.917 208.771 232.729 202 228.562C195.229 224.396 189.76 218.979 185.594 212.312C181.427 205.542 178.302 197.99 176.219 189.656C174.24 181.219 173.146 172.677 172.938 164.031C172.729 155.281 173.094 146.948 174.031 139.031L180.281 97.4688C181.948 86.6354 184.552 75.5417 188.094 64.1875C191.74 52.7292 196.688 42.1562 202.938 32.4688C209.292 22.7812 217.104 15.125 226.375 9.5C235.75 3.77083 247.052 1.0625 260.281 1.375C270.177 1.58333 278.51 3.82292 285.281 8.09375C292.156 12.2604 297.625 17.7292 301.688 24.5C305.854 31.1667 308.927 38.6667 310.906 47C312.885 55.2292 313.979 63.7188 314.188 72.4688C314.396 81.2188 314.031 89.5521 313.094 97.4688ZM256.219 145.594L264.188 90.5938C264.396 88.8229 264.812 86.1146 265.438 82.4688C266.062 78.8229 266.583 74.7083 267 70.125C267.417 65.5417 267.417 61.1667 267 57C266.688 52.7292 265.698 49.1875 264.031 46.375C262.469 43.4583 259.917 41.8958 256.375 41.6875C251.062 41.2708 246.792 42.9375 243.562 46.6875C240.438 50.3333 238.042 54.9688 236.375 60.5938C234.708 66.2188 233.51 71.8438 232.781 77.4688C232.156 83.0938 231.635 87.4688 231.219 90.5938L223.094 145.594C222.99 147.365 222.625 150.125 222 153.875C221.375 157.521 220.854 161.635 220.438 166.219C220.021 170.802 219.969 175.229 220.281 179.5C220.594 183.667 221.531 187.208 223.094 190.125C224.76 192.938 227.365 194.5 230.906 194.812C236.219 195.229 240.438 193.562 243.562 189.812C246.792 186.062 249.24 181.375 250.906 175.75C252.573 170.125 253.771 164.5 254.5 158.875C255.229 153.25 255.802 148.823 256.219 145.594ZM471.844 97.4688L465.594 138.875C464.135 149.708 461.531 160.854 457.781 172.312C454.135 183.667 449.188 194.188 442.938 203.875C436.688 213.458 428.927 221.167 419.656 227C410.385 232.729 399.135 235.438 385.906 235.125C375.906 234.917 367.521 232.729 360.75 228.562C353.979 224.396 348.51 218.979 344.344 212.312C340.177 205.542 337.052 197.99 334.969 189.656C332.99 181.219 331.896 172.677 331.688 164.031C331.479 155.281 331.844 146.948 332.781 139.031L339.031 97.4688C340.698 86.6354 343.302 75.5417 346.844 64.1875C350.49 52.7292 355.438 42.1562 361.688 32.4688C368.042 22.7812 375.854 15.125 385.125 9.5C394.5 3.77083 405.802 1.0625 419.031 1.375C428.927 1.58333 437.26 3.82292 444.031 8.09375C450.906 12.2604 456.375 17.7292 460.438 24.5C464.604 31.1667 467.677 38.6667 469.656 47C471.635 55.2292 472.729 63.7188 472.938 72.4688C473.146 81.2188 472.781 89.5521 471.844 97.4688ZM414.969 145.594L422.938 90.5938C423.146 88.8229 423.562 86.1146 424.188 82.4688C424.812 78.8229 425.333 74.7083 425.75 70.125C426.167 65.5417 426.167 61.1667 425.75 57C425.438 52.7292 424.448 49.1875 422.781 46.375C421.219 43.4583 418.667 41.8958 415.125 41.6875C409.812 41.2708 405.542 42.9375 402.312 46.6875C399.188 50.3333 396.792 54.9688 395.125 60.5938C393.458 66.2188 392.26 71.8438 391.531 77.4688C390.906 83.0938 390.385 87.4688 389.969 90.5938L381.844 145.594C381.74 147.365 381.375 150.125 380.75 153.875C380.125 157.521 379.604 161.635 379.188 166.219C378.771 170.802 378.719 175.229 379.031 179.5C379.344 183.667 380.281 187.208 381.844 190.125C383.51 192.938 386.115 194.5 389.656 194.812C394.969 195.229 399.188 193.562 402.312 189.812C405.542 186.062 407.99 181.375 409.656 175.75C411.323 170.125 412.521 164.5 413.25 158.875C413.979 153.25 414.552 148.823 414.969 145.594ZM630.594 97.4688L624.344 138.875C622.885 149.708 620.281 160.854 616.531 172.312C612.885 183.667 607.938 194.188 601.688 203.875C595.438 213.458 587.677 221.167 578.406 227C569.135 232.729 557.885 235.438 544.656 235.125C534.656 234.917 526.271 232.729 519.5 228.562C512.729 224.396 507.26 218.979 503.094 212.312C498.927 205.542 495.802 197.99 493.719 189.656C491.74 181.219 490.646 172.677 490.438 164.031C490.229 155.281 490.594 146.948 491.531 139.031L497.781 97.4688C499.448 86.6354 502.052 75.5417 505.594 64.1875C509.24 52.7292 514.188 42.1562 520.438 32.4688C526.792 22.7812 534.604 15.125 543.875 9.5C553.25 3.77083 564.552 1.0625 577.781 1.375C587.677 1.58333 596.01 3.82292 602.781 8.09375C609.656 12.2604 615.125 17.7292 619.188 24.5C623.354 31.1667 626.427 38.6667 628.406 47C630.385 55.2292 631.479 63.7188 631.688 72.4688C631.896 81.2188 631.531 89.5521 630.594 97.4688ZM573.719 145.594L581.688 90.5938C581.896 88.8229 582.312 86.1146 582.938 82.4688C583.562 78.8229 584.083 74.7083 584.5 70.125C584.917 65.5417 584.917 61.1667 584.5 57C584.188 52.7292 583.198 49.1875 581.531 46.375C579.969 43.4583 577.417 41.8958 573.875 41.6875C568.562 41.2708 564.292 42.9375 561.062 46.6875C557.938 50.3333 555.542 54.9688 553.875 60.5938C552.208 66.2188 551.01 71.8438 550.281 77.4688C549.656 83.0938 549.135 87.4688 548.719 90.5938L540.594 145.594C540.49 147.365 540.125 150.125 539.5 153.875C538.875 157.521 538.354 161.635 537.938 166.219C537.521 170.802 537.469 175.229 537.781 179.5C538.094 183.667 539.031 187.208 540.594 190.125C542.26 192.938 544.865 194.5 548.406 194.812C553.719 195.229 557.938 193.562 561.062 189.812C564.292 186.062 566.74 181.375 568.406 175.75C570.073 170.125 571.271 164.5 572 158.875C572.729 153.25 573.302 148.823 573.719 145.594ZM789.344 97.4688L783.094 138.875C781.635 149.708 779.031 160.854 775.281 172.312C771.635 183.667 766.688 194.188 760.438 203.875C754.188 213.458 746.427 221.167 737.156 227C727.885 232.729 716.635 235.438 703.406 235.125C693.406 234.917 685.021 232.729 678.25 228.562C671.479 224.396 666.01 218.979 661.844 212.312C657.677 205.542 654.552 197.99 652.469 189.656C650.49 181.219 649.396 172.677 649.188 164.031C648.979 155.281 649.344 146.948 650.281 139.031L656.531 97.4688C658.198 86.6354 660.802 75.5417 664.344 64.1875C667.99 52.7292 672.938 42.1562 679.188 32.4688C685.542 22.7812 693.354 15.125 702.625 9.5C712 3.77083 723.302 1.0625 736.531 1.375C746.427 1.58333 754.76 3.82292 761.531 8.09375C768.406 12.2604 773.875 17.7292 777.938 24.5C782.104 31.1667 785.177 38.6667 787.156 47C789.135 55.2292 790.229 63.7188 790.438 72.4688C790.646 81.2188 790.281 89.5521 789.344 97.4688ZM732.469 145.594L740.438 90.5938C740.646 88.8229 741.062 86.1146 741.688 82.4688C742.312 78.8229 742.833 74.7083 743.25 70.125C743.667 65.5417 743.667 61.1667 743.25 57C742.938 52.7292 741.948 49.1875 740.281 46.375C738.719 43.4583 736.167 41.8958 732.625 41.6875C727.312 41.2708 723.042 42.9375 719.812 46.6875C716.688 50.3333 714.292 54.9688 712.625 60.5938C710.958 66.2188 709.76 71.8438 709.031 77.4688C708.406 83.0938 707.885 87.4688 707.469 90.5938L699.344 145.594C699.24 147.365 698.875 150.125 698.25 153.875C697.625 157.521 697.104 161.635 696.688 166.219C696.271 170.802 696.219 175.229 696.531 179.5C696.844 183.667 697.781 187.208 699.344 190.125C701.01 192.938 703.615 194.5 707.156 194.812C712.469 195.229 716.688 193.562 719.812 189.812C723.042 186.062 725.49 181.375 727.156 175.75C728.823 170.125 730.021 164.5 730.75 158.875C731.479 153.25 732.052 148.823 732.469 145.594Z" fill="url(#paint0_linear_140_3091)"/>
<path d="M864.038 176.061L815.948 175.989L819.326 156.509L864.254 156.653C867.225 156.605 869.717 155.91 871.73 154.568C873.743 153.226 875.324 151.429 876.474 149.177C877.624 146.876 878.391 144.337 878.774 141.557C879.014 139.688 879.158 137.603 879.206 135.303C879.302 133.003 878.87 131.014 877.912 129.337C877.001 127.612 875.276 126.653 872.736 126.461L860.157 126.39L845.42 211.5H821.411L839.598 106.837L873.455 106.909C879.972 107.101 885.508 108.754 890.06 111.869C894.613 114.936 898.015 119.033 900.268 124.161C902.568 129.289 903.479 134.992 902.999 141.269C902.52 148.41 900.483 154.592 896.889 159.816C893.343 164.991 888.718 169.017 883.016 171.892C877.361 174.719 871.035 176.109 864.038 176.061ZM868.136 179.943L864.757 199.352H811.851L815.301 179.943H868.136Z" fill="#96FF09"/>
<defs>
<linearGradient id="paint0_linear_140_3091" x1="730.387" y1="235.202" x2="344.194" y2="-227.481" gradientUnits="userSpaceOnUse">
<stop stop-color="#96FF09"/>
<stop offset="1" stop-color="#EBFF00"/>
</linearGradient>
</defs>
</svg>
