<svg width="385" height="148" viewBox="0 0 385 148" fill="none" xmlns="http://www.w3.org/2000/svg">
<path d="M48.7667 70.5572L46.3177 84.3992H2.92813L5.32388 70.5572H48.7667ZM37.6931 49.794L27.8971 106.227H14.055L23.851 49.794H37.6931Z" fill="url(#paint0_linear_140_3122)"/>
<path d="M132.836 2.61719L108.715 145H81.957L100.805 36.6992L72.7773 46.9531L76.8789 23.0273L129.418 2.51953L132.836 2.61719ZM234.105 122.246L230.395 145H149.047L152.27 124.59L196.312 76.543C198.917 73.418 201.618 70.0977 204.418 66.582C207.217 63.0013 209.626 59.2253 211.645 55.2539C213.728 51.2826 215.062 47.181 215.648 42.9492C215.909 40.6706 215.974 38.0013 215.844 34.9414C215.714 31.8815 214.965 29.1797 213.598 26.8359C212.23 24.4922 209.919 23.2878 206.664 23.2227C202.497 23.1576 199.21 24.4596 196.801 27.1289C194.392 29.7982 192.602 33.0534 191.43 36.8945C190.323 40.7357 189.607 44.2188 189.281 47.3438L162.816 47.5391C163.402 39.1406 165.681 31.3607 169.652 24.1992C173.689 17.0378 179.027 11.3086 185.668 7.01172C192.374 2.64974 200.154 0.566406 209.008 0.761719C216.951 0.891927 223.591 2.68229 228.93 6.13281C234.333 9.51823 238.272 14.2057 240.746 20.1953C243.22 26.1198 244.099 32.8906 243.383 40.5078C242.862 46.1719 241.495 51.5104 239.281 56.5234C237.068 61.5365 234.366 66.2565 231.176 70.6836C227.986 75.1107 224.535 79.4076 220.824 83.5742C217.113 87.7409 213.402 91.8099 209.691 95.7812L187.621 122.246H234.105ZM340.551 61.4062L336.84 86.0156C335.798 92.9167 334.236 99.9479 332.152 107.109C330.069 114.271 327.172 120.944 323.461 127.129C319.75 133.249 314.997 138.164 309.203 141.875C303.474 145.521 296.443 147.214 288.109 146.953C281.729 146.823 276.423 145.423 272.191 142.754C268.025 140.085 264.737 136.602 262.328 132.305C259.919 128.008 258.227 123.223 257.25 117.949C256.273 112.676 255.785 107.305 255.785 101.836C255.85 96.3021 256.208 91.0612 256.859 86.1133L260.57 61.4062C261.547 54.5703 263.109 47.6042 265.258 40.5078C267.406 33.3464 270.303 26.7057 273.949 20.5859C277.66 14.4661 282.413 9.58333 288.207 5.9375C294.066 2.29167 301.163 0.598958 309.496 0.859375C315.811 0.989583 321.052 2.38932 325.219 5.05859C329.385 7.72786 332.673 11.2109 335.082 15.5078C337.491 19.7396 339.184 24.4922 340.16 29.7656C341.137 34.974 341.592 40.3125 341.527 45.7812C341.527 51.25 341.202 56.4583 340.551 61.4062ZM309.691 89.9219L314.477 57.3047C314.607 55.8724 314.835 53.8216 315.16 51.1523C315.486 48.418 315.714 45.5208 315.844 42.4609C316.039 39.3359 315.909 36.3737 315.453 33.5742C314.997 30.7096 314.118 28.3333 312.816 26.4453C311.514 24.4922 309.529 23.4831 306.859 23.418C303.018 23.1576 299.926 24.2643 297.582 26.7383C295.238 29.2122 293.383 32.3698 292.016 36.2109C290.714 39.987 289.737 43.8281 289.086 47.7344C288.5 51.6406 288.012 54.8633 287.621 57.4023L283.031 90.0195C282.901 91.4518 282.641 93.5352 282.25 96.2695C281.924 98.9388 281.697 101.868 281.566 105.059C281.436 108.184 281.566 111.178 281.957 114.043C282.348 116.908 283.194 119.316 284.496 121.27C285.863 123.158 287.882 124.199 290.551 124.395C294.327 124.655 297.419 123.548 299.828 121.074C302.237 118.535 304.092 115.312 305.395 111.406C306.697 107.5 307.641 103.561 308.227 99.5898C308.878 95.6185 309.366 92.3958 309.691 89.9219Z" fill="url(#paint1_linear_140_3122)"/>
<path d="M352.179 63.8906L352.449 61.3243C352.629 59.4784 353.125 57.7788 353.935 56.2256C354.746 54.6498 355.849 53.4004 357.244 52.4775C358.662 51.532 360.362 51.0706 362.343 51.0931C364.256 51.1381 365.821 51.6446 367.037 52.6126C368.275 53.558 369.153 54.8074 369.67 56.3606C370.211 57.8914 370.424 59.5347 370.312 61.2906L370.109 63.8906C369.929 65.6915 369.434 67.3798 368.624 68.9556C367.813 70.5088 366.699 71.7469 365.281 72.6699C363.862 73.5928 362.197 74.0431 360.283 74.0205C358.347 73.9755 356.76 73.4803 355.522 72.5348C354.307 71.5668 353.417 70.3175 352.855 68.7867C352.292 67.256 352.067 65.6239 352.179 63.8906ZM358.595 61.2906L358.325 63.9919C358.28 64.5096 358.291 65.1287 358.359 65.849C358.426 66.5469 358.617 67.1434 358.933 67.6387C359.248 68.1339 359.765 68.3928 360.486 68.4153C361.251 68.4378 361.87 68.2014 362.343 67.7062C362.838 67.1884 363.21 66.5806 363.457 65.8828C363.727 65.185 363.896 64.5209 363.964 63.8906L364.301 61.2568C364.346 60.694 364.335 60.075 364.268 59.3996C364.2 58.7018 364.009 58.0827 363.694 57.5425C363.401 57.0022 362.883 56.7321 362.14 56.7321C361.33 56.7096 360.677 56.9459 360.182 57.4412C359.709 57.9364 359.338 58.5442 359.068 59.2646C358.82 59.9849 358.662 60.6602 358.595 61.2906ZM366.26 91.5454L366.496 88.9453C366.654 87.122 367.138 85.4336 367.948 83.8804C368.781 82.3271 369.907 81.0777 371.325 80.1323C372.743 79.1868 374.431 78.7366 376.39 78.7816C378.326 78.8266 379.89 79.3331 381.083 80.3011C382.299 81.2691 383.177 82.5185 383.717 84.0492C384.28 85.5574 384.505 87.1895 384.393 88.9453L384.156 91.5454C383.954 93.3688 383.447 95.0683 382.637 96.6441C381.849 98.1974 380.746 99.4467 379.328 100.392C377.932 101.315 376.266 101.754 374.33 101.709C372.372 101.664 370.785 101.169 369.569 100.223C368.353 99.2554 367.464 98.006 366.901 96.4753C366.361 94.9445 366.147 93.3012 366.26 91.5454ZM372.608 88.9453L372.304 91.6129C372.282 92.1532 372.304 92.761 372.372 93.4363C372.462 94.1116 372.664 94.7194 372.979 95.2597C373.317 95.7774 373.824 96.0476 374.499 96.0701C375.354 96.1151 376.018 95.9013 376.491 95.4285C376.986 94.9558 377.347 94.3592 377.572 93.6389C377.819 92.9185 377.966 92.2207 378.011 91.5454L378.348 88.9453C378.393 88.4051 378.382 87.786 378.315 87.0882C378.27 86.3678 378.089 85.7488 377.774 85.231C377.482 84.6908 376.964 84.4206 376.221 84.4206C375.433 84.3981 374.78 84.6345 374.263 85.1297C373.767 85.6025 373.385 86.199 373.115 86.9194C372.844 87.6397 372.676 88.315 372.608 88.9453ZM383.244 59.197L357.244 97.2181L352.956 94.4155L378.889 56.3606L383.244 59.197Z" fill="url(#paint2_linear_140_3122)"/>
<defs>
<linearGradient id="paint0_linear_140_3122" x1="44.9187" y1="102.77" x2="-10.6026" y2="91.0378" gradientUnits="userSpaceOnUse">
<stop stop-color="#96FF09"/>
<stop offset="1" stop-color="#EBFF00"/>
</linearGradient>
<linearGradient id="paint1_linear_140_3122" x1="310.824" y1="102.77" x2="176.299" y2="-61.6537" gradientUnits="userSpaceOnUse">
<stop stop-color="#96FF09"/>
<stop offset="1" stop-color="#EBFF00"/>
</linearGradient>
<linearGradient id="paint2_linear_140_3122" x1="383.873" y1="101.739" x2="336.599" y2="92.9657" gradientUnits="userSpaceOnUse">
<stop stop-color="#96FF09"/>
<stop offset="1" stop-color="#EBFF00"/>
</linearGradient>
</defs>
</svg>
