<svg width="417" height="148" viewBox="0 0 417 148" fill="none" xmlns="http://www.w3.org/2000/svg">
<path d="M76.7667 70.5572L74.3177 84.3992H30.9281L33.3239 70.5572H76.7667ZM65.6931 49.794L55.8971 106.227H42.055L51.851 49.794H65.6931Z" fill="url(#paint0_linear_140_3135)"/>
<path d="M160.836 2.61719L136.715 145H109.957L128.805 36.6992L100.777 46.9531L104.879 23.0273L157.418 2.51953L160.836 2.61719ZM270.309 61.4062L266.598 86.0156C265.556 92.9167 263.993 99.9479 261.91 107.109C259.827 114.271 256.93 120.944 253.219 127.129C249.508 133.249 244.755 138.164 238.961 141.875C233.232 145.521 226.201 147.214 217.867 146.953C211.487 146.823 206.181 145.423 201.949 142.754C197.783 140.085 194.495 136.602 192.086 132.305C189.677 128.008 187.984 123.223 187.008 117.949C186.031 112.676 185.543 107.305 185.543 101.836C185.608 96.3021 185.966 91.0612 186.617 86.1133L190.328 61.4062C191.305 54.5703 192.867 47.6042 195.016 40.5078C197.164 33.3464 200.061 26.7057 203.707 20.5859C207.418 14.4661 212.171 9.58333 217.965 5.9375C223.824 2.29167 230.921 0.598958 239.254 0.859375C245.569 0.989583 250.81 2.38932 254.977 5.05859C259.143 7.72786 262.431 11.2109 264.84 15.5078C267.249 19.7396 268.941 24.4922 269.918 29.7656C270.895 34.974 271.35 40.3125 271.285 45.7812C271.285 51.25 270.96 56.4583 270.309 61.4062ZM239.449 89.9219L244.234 57.3047C244.365 55.8724 244.592 53.8216 244.918 51.1523C245.243 48.418 245.471 45.5208 245.602 42.4609C245.797 39.3359 245.667 36.3737 245.211 33.5742C244.755 30.7096 243.876 28.3333 242.574 26.4453C241.272 24.4922 239.286 23.4831 236.617 23.418C232.776 23.1576 229.684 24.2643 227.34 26.7383C224.996 29.2122 223.141 32.3698 221.773 36.2109C220.471 39.987 219.495 43.8281 218.844 47.7344C218.258 51.6406 217.77 54.8633 217.379 57.4023L212.789 90.0195C212.659 91.4518 212.398 93.5352 212.008 96.2695C211.682 98.9388 211.454 101.868 211.324 105.059C211.194 108.184 211.324 111.178 211.715 114.043C212.105 116.908 212.952 119.316 214.254 121.27C215.621 123.158 217.639 124.199 220.309 124.395C224.085 124.655 227.177 123.548 229.586 121.074C231.995 118.535 233.85 115.312 235.152 111.406C236.454 107.5 237.398 103.561 237.984 99.5898C238.635 95.6185 239.124 92.3958 239.449 89.9219ZM368.551 61.4062L364.84 86.0156C363.798 92.9167 362.236 99.9479 360.152 107.109C358.069 114.271 355.172 120.944 351.461 127.129C347.75 133.249 342.997 138.164 337.203 141.875C331.474 145.521 324.443 147.214 316.109 146.953C309.729 146.823 304.423 145.423 300.191 142.754C296.025 140.085 292.737 136.602 290.328 132.305C287.919 128.008 286.227 123.223 285.25 117.949C284.273 112.676 283.785 107.305 283.785 101.836C283.85 96.3021 284.208 91.0612 284.859 86.1133L288.57 61.4062C289.547 54.5703 291.109 47.6042 293.258 40.5078C295.406 33.3464 298.303 26.7057 301.949 20.5859C305.66 14.4661 310.413 9.58333 316.207 5.9375C322.066 2.29167 329.163 0.598958 337.496 0.859375C343.811 0.989583 349.052 2.38932 353.219 5.05859C357.385 7.72786 360.673 11.2109 363.082 15.5078C365.491 19.7396 367.184 24.4922 368.16 29.7656C369.137 34.974 369.592 40.3125 369.527 45.7812C369.527 51.25 369.202 56.4583 368.551 61.4062ZM337.691 89.9219L342.477 57.3047C342.607 55.8724 342.835 53.8216 343.16 51.1523C343.486 48.418 343.714 45.5208 343.844 42.4609C344.039 39.3359 343.909 36.3737 343.453 33.5742C342.997 30.7096 342.118 28.3333 340.816 26.4453C339.514 24.4922 337.529 23.4831 334.859 23.418C331.018 23.1576 327.926 24.2643 325.582 26.7383C323.238 29.2122 321.383 32.3698 320.016 36.2109C318.714 39.987 317.737 43.8281 317.086 47.7344C316.5 51.6406 316.012 54.8633 315.621 57.4023L311.031 90.0195C310.901 91.4518 310.641 93.5352 310.25 96.2695C309.924 98.9388 309.697 101.868 309.566 105.059C309.436 108.184 309.566 111.178 309.957 114.043C310.348 116.908 311.194 119.316 312.496 121.27C313.863 123.158 315.882 124.199 318.551 124.395C322.327 124.655 325.419 123.548 327.828 121.074C330.237 118.535 332.092 115.312 333.395 111.406C334.697 107.5 335.641 103.561 336.227 99.5898C336.878 95.6185 337.366 92.3958 337.691 89.9219Z" fill="url(#paint1_linear_140_3135)"/>
<path d="M380.179 63.8906L380.449 61.3243C380.629 59.4784 381.125 57.7788 381.935 56.2256C382.746 54.6498 383.849 53.4004 385.244 52.4775C386.662 51.532 388.362 51.0706 390.343 51.0931C392.256 51.1381 393.821 51.6446 395.037 52.6126C396.275 53.558 397.153 54.8074 397.67 56.3606C398.211 57.8914 398.424 59.5347 398.312 61.2906L398.109 63.8906C397.929 65.6915 397.434 67.3798 396.624 68.9556C395.813 70.5088 394.699 71.7469 393.281 72.6699C391.862 73.5928 390.197 74.0431 388.283 74.0205C386.347 73.9755 384.76 73.4803 383.522 72.5348C382.307 71.5668 381.417 70.3175 380.855 68.7867C380.292 67.256 380.067 65.6239 380.179 63.8906ZM386.595 61.2906L386.325 63.9919C386.28 64.5096 386.291 65.1287 386.359 65.849C386.426 66.5469 386.617 67.1434 386.933 67.6387C387.248 68.1339 387.765 68.3928 388.486 68.4153C389.251 68.4378 389.87 68.2014 390.343 67.7062C390.838 67.1884 391.21 66.5806 391.457 65.8828C391.727 65.185 391.896 64.5209 391.964 63.8906L392.301 61.2568C392.346 60.694 392.335 60.075 392.268 59.3996C392.2 58.7018 392.009 58.0827 391.694 57.5425C391.401 57.0022 390.883 56.7321 390.14 56.7321C389.33 56.7096 388.677 56.9459 388.182 57.4412C387.709 57.9364 387.338 58.5442 387.068 59.2646C386.82 59.9849 386.662 60.6602 386.595 61.2906ZM394.26 91.5454L394.496 88.9453C394.654 87.122 395.138 85.4336 395.948 83.8804C396.781 82.3271 397.907 81.0777 399.325 80.1323C400.743 79.1868 402.431 78.7366 404.39 78.7816C406.326 78.8266 407.89 79.3331 409.083 80.3011C410.299 81.2691 411.177 82.5185 411.717 84.0492C412.28 85.5574 412.505 87.1895 412.393 88.9453L412.156 91.5454C411.954 93.3688 411.447 95.0683 410.637 96.6441C409.849 98.1974 408.746 99.4467 407.328 100.392C405.932 101.315 404.266 101.754 402.33 101.709C400.372 101.664 398.785 101.169 397.569 100.223C396.353 99.2554 395.464 98.006 394.901 96.4753C394.361 94.9445 394.147 93.3012 394.26 91.5454ZM400.608 88.9453L400.304 91.6129C400.282 92.1532 400.304 92.761 400.372 93.4363C400.462 94.1116 400.664 94.7194 400.979 95.2597C401.317 95.7774 401.824 96.0476 402.499 96.0701C403.354 96.1151 404.018 95.9013 404.491 95.4285C404.986 94.9558 405.347 94.3592 405.572 93.6389C405.819 92.9185 405.966 92.2207 406.011 91.5454L406.348 88.9453C406.393 88.4051 406.382 87.786 406.315 87.0882C406.27 86.3678 406.089 85.7488 405.774 85.231C405.482 84.6908 404.964 84.4206 404.221 84.4206C403.433 84.3981 402.78 84.6345 402.263 85.1297C401.767 85.6025 401.385 86.199 401.115 86.9194C400.844 87.6397 400.676 88.315 400.608 88.9453ZM411.244 59.197L385.244 97.2181L380.956 94.4155L406.889 56.3606L411.244 59.197Z" fill="url(#paint2_linear_140_3135)"/>
<defs>
<linearGradient id="paint0_linear_140_3135" x1="72.9187" y1="102.77" x2="17.3974" y2="91.0378" gradientUnits="userSpaceOnUse">
<stop stop-color="#96FF09"/>
<stop offset="1" stop-color="#EBFF00"/>
</linearGradient>
<linearGradient id="paint1_linear_140_3135" x1="338.824" y1="102.77" x2="204.299" y2="-61.6537" gradientUnits="userSpaceOnUse">
<stop stop-color="#96FF09"/>
<stop offset="1" stop-color="#EBFF00"/>
</linearGradient>
<linearGradient id="paint2_linear_140_3135" x1="411.873" y1="101.739" x2="364.599" y2="92.9657" gradientUnits="userSpaceOnUse">
<stop stop-color="#96FF09"/>
<stop offset="1" stop-color="#EBFF00"/>
</linearGradient>
</defs>
</svg>
