<?xml version="1.0" encoding="UTF-8"?> <svg xmlns="http://www.w3.org/2000/svg" width="1400" height="1918" viewBox="0 0 1400 1918" fill="none"> <path opacity="0.01" d="M3321 2449.33C3321 2449.33 1876.9 1886.06 1302.91 1391.39C630.219 811.667 132.555 1011.88 -452.656 423.682C-752.675 122.132 -745.513 -144.901 -1059.72 -436.887C-1340.53 -697.838 -1492.35 -726.561 -1798.05 -968.615C-2339.48 -1397.33 -2602 -2230 -2602 -2230" stroke="#848484" stroke-width="1.5965"></path> <path opacity="0.01" d="M3319.4 2442.15C3319.4 2442.15 1879.98 1880.6 1307.85 1387.46C637.326 809.511 141.272 1009.11 -442.047 422.718C-741.094 122.094 -733.956 -144.119 -1047.15 -435.209C-1327.05 -695.358 -1478.37 -723.994 -1783.09 -965.305C-2322.77 -1392.7 -2584.44 -2222.82 -2584.44 -2222.82" stroke="#848484" stroke-width="1.5965"></path> <path opacity="0.01" d="M3317.81 2434.96C3317.81 2434.96 1883.05 1875.15 1312.78 1383.52C644.433 807.355 149.988 1006.34 -431.437 421.754C-729.515 122.056 -722.399 -143.337 -1034.58 -433.531C-1313.57 -692.879 -1464.4 -721.426 -1768.12 -961.993C-2306.06 -1388.07 -2566.88 -2215.63 -2566.88 -2215.63" stroke="#848484" stroke-width="1.5965"></path> <path opacity="0.0120482" d="M3316.21 2427.78C3316.21 2427.78 1886.13 1869.69 1317.71 1379.59C651.539 805.199 158.705 1003.57 -420.828 420.789C-717.935 122.017 -710.843 -142.556 -1022 -431.853C-1300.09 -690.399 -1450.43 -718.858 -1753.16 -958.683C-2289.35 -1383.44 -2549.32 -2208.45 -2549.32 -2208.45" stroke="#848484" stroke-width="1.5965"></path> <path opacity="0.0160643" d="M3314.61 2420.59C3314.61 2420.59 1889.2 1864.24 1322.64 1375.65C658.646 803.044 167.421 1000.8 -410.219 419.825C-706.355 121.979 -699.286 -141.774 -1009.43 -430.174C-1286.61 -687.92 -1436.46 -716.291 -1738.2 -955.372C-2272.64 -1378.82 -2531.75 -2201.26 -2531.75 -2201.26" stroke="#848484" stroke-width="1.5965"></path> <path opacity="0.0200803" d="M3313.02 2413.41C3313.02 2413.41 1892.28 1858.78 1327.57 1371.72C665.753 800.889 176.138 998.029 -399.609 418.861C-694.775 121.941 -687.729 -140.992 -996.858 -428.496C-1273.13 -685.44 -1422.48 -713.723 -1723.24 -952.061C-2255.92 -1374.19 -2514.19 -2194.08 -2514.19 -2194.08" stroke="#848484" stroke-width="1.5965"></path> <path opacity="0.0240964" d="M3311.42 2406.22C3311.42 2406.22 1895.35 1853.33 1332.5 1367.78C672.86 798.733 184.855 995.259 -389 417.897C-683.196 121.903 -676.173 -140.211 -984.285 -426.818C-1259.65 -682.96 -1408.51 -711.155 -1708.28 -948.749C-2239.21 -1369.56 -2496.63 -2186.89 -2496.63 -2186.89" stroke="#848484" stroke-width="1.5965"></path> <path opacity="0.0281125" d="M3309.82 2399.04C3309.82 2399.04 1898.42 1847.88 1337.43 1363.84C679.967 796.577 193.571 992.489 -378.391 416.933C-671.616 121.864 -664.616 -139.429 -971.712 -425.139C-1246.17 -680.481 -1394.54 -708.587 -1693.32 -945.439C-2222.5 -1364.93 -2479.07 -2179.71 -2479.07 -2179.71" stroke="#848484" stroke-width="1.5965"></path> <path opacity="0.0321285" d="M3308.23 2391.86C3308.23 2391.86 1901.5 1842.42 1342.36 1359.91C687.074 794.422 202.288 989.718 -367.781 415.968C-660.036 121.826 -653.06 -138.647 -959.139 -423.461C-1232.68 -678.001 -1380.57 -706.02 -1678.36 -942.128C-2205.79 -1360.31 -2461.51 -2172.53 -2461.51 -2172.53" stroke="#848484" stroke-width="1.5965"></path> <path opacity="0.0361446" d="M3306.63 2384.67C3306.63 2384.67 1904.57 1836.97 1347.29 1355.97C694.181 792.266 211.004 986.948 -357.172 415.004C-648.456 121.788 -641.503 -137.866 -946.566 -421.783C-1219.2 -675.522 -1366.6 -703.452 -1663.4 -938.817C-2189.07 -1355.68 -2443.95 -2165.34 -2443.95 -2165.34" stroke="#848484" stroke-width="1.5965"></path> <path opacity="0.0401606" d="M3305.04 2377.49C3305.04 2377.49 1907.65 1831.51 1352.22 1352.04C701.287 790.111 219.721 984.177 -346.562 414.04C-636.876 121.749 -629.946 -137.084 -933.993 -420.105C-1205.72 -673.042 -1352.62 -700.884 -1648.44 -935.506C-2172.36 -1351.05 -2426.39 -2158.16 -2426.39 -2158.16" stroke="#848484" stroke-width="1.5965"></path> <path opacity="0.0441767" d="M3303.44 2370.3C3303.44 2370.3 1910.72 1826.06 1357.16 1348.1C708.394 787.955 228.437 981.407 -335.953 413.076C-625.297 121.711 -618.39 -136.302 -921.421 -418.426C-1192.24 -670.563 -1338.65 -698.316 -1633.48 -932.195C-2155.65 -1346.43 -2408.82 -2150.97 -2408.82 -2150.97" stroke="#848484" stroke-width="1.5965"></path> <path opacity="0.0481928" d="M3301.84 2363.12C3301.84 2363.12 1913.8 1820.6 1362.09 1344.17C715.501 785.8 237.154 978.637 -325.344 412.111C-613.717 121.673 -606.833 -135.521 -908.847 -416.748C-1178.76 -668.083 -1324.68 -695.749 -1618.51 -928.884C-2138.94 -1341.8 -2391.26 -2143.79 -2391.26 -2143.79" stroke="#848484" stroke-width="1.5965"></path> <path opacity="0.0522088" d="M3300.25 2355.93C3300.25 2355.93 1916.87 1815.15 1367.02 1340.23C722.608 783.644 245.87 975.866 -314.734 411.147C-602.137 121.635 -595.277 -134.739 -896.275 -415.07C-1165.28 -665.604 -1310.71 -693.181 -1603.55 -925.573C-2122.22 -1337.17 -2373.7 -2136.6 -2373.7 -2136.6" stroke="#848484" stroke-width="1.5965"></path> <path opacity="0.0562249" d="M3298.65 2348.75C3298.65 2348.75 1919.95 1809.69 1371.95 1336.29C729.715 781.488 254.587 973.096 -304.125 410.183C-590.557 121.596 -583.72 -133.957 -883.701 -413.392C-1151.8 -663.124 -1296.73 -690.613 -1588.59 -922.262C-2105.51 -1332.54 -2356.14 -2129.42 -2356.14 -2129.42" stroke="#848484" stroke-width="1.5965"></path> <path opacity="0.060241" d="M3297.05 2341.57C3297.05 2341.57 1923.02 1804.24 1376.88 1332.36C736.821 779.333 263.303 970.326 -293.516 409.219C-578.978 121.558 -572.163 -133.176 -871.129 -411.713C-1138.32 -660.645 -1282.76 -688.045 -1573.63 -918.951C-2088.8 -1327.92 -2338.58 -2122.24 -2338.58 -2122.24" stroke="#848484" stroke-width="1.5965"></path> <path opacity="0.064257" d="M3295.46 2334.38C3295.46 2334.38 1926.09 1798.78 1381.81 1328.42C743.928 777.177 272.02 967.555 -282.906 408.254C-567.398 121.52 -560.606 -132.394 -858.556 -410.035C-1124.83 -658.165 -1268.79 -685.478 -1558.67 -915.64C-2072.09 -1323.29 -2321.02 -2115.05 -2321.02 -2115.05" stroke="#848484" stroke-width="1.5965"></path> <path opacity="0.0682731" d="M3293.86 2327.2C3293.86 2327.2 1929.17 1793.33 1386.74 1324.49C751.035 775.022 280.736 964.785 -272.297 407.29C-555.818 121.482 -549.05 -131.612 -845.983 -408.357C-1111.35 -655.686 -1254.82 -682.91 -1543.71 -912.329C-2055.37 -1318.66 -2303.46 -2107.87 -2303.46 -2107.87" stroke="#848484" stroke-width="1.5965"></path> <path opacity="0.0722892" d="M3292.26 2320.01C3292.26 2320.01 1932.24 1787.87 1391.67 1320.55C758.142 772.866 289.453 962.014 -261.687 406.326C-544.238 121.443 -537.493 -130.831 -833.41 -406.679C-1097.87 -653.206 -1240.85 -680.342 -1528.75 -909.018C-2038.66 -1314.03 -2285.89 -2100.68 -2285.89 -2100.68" stroke="#848484" stroke-width="1.5965"></path> <path opacity="0.0763052" d="M3290.67 2312.83C3290.67 2312.83 1935.32 1782.42 1396.6 1316.62C765.249 770.711 298.169 959.245 -251.078 405.362C-532.659 121.405 -525.937 -130.049 -820.837 -405C-1084.39 -650.726 -1226.87 -677.774 -1513.79 -905.706C-2021.95 -1309.41 -2268.33 -2093.5 -2268.33 -2093.5" stroke="#848484" stroke-width="1.5965"></path> <path opacity="0.0803213" d="M3289.07 2305.64C3289.07 2305.64 1938.39 1776.96 1401.53 1312.68C772.356 768.555 306.886 956.474 -240.469 404.397C-521.079 121.367 -514.38 -129.267 -808.264 -403.322C-1070.91 -648.247 -1212.9 -675.207 -1498.83 -902.396C-2005.24 -1304.78 -2250.77 -2086.32 -2250.77 -2086.32" stroke="#848484" stroke-width="1.5965"></path> <path opacity="0.0843373" d="M3287.47 2298.46C3287.47 2298.46 1941.47 1771.51 1406.47 1308.74C779.462 766.399 315.602 953.703 -229.859 403.433C-509.499 121.328 -502.823 -128.486 -795.691 -401.644C-1057.43 -645.768 -1198.93 -672.639 -1483.86 -899.085C-1988.53 -1300.15 -2233.21 -2079.13 -2233.21 -2079.13" stroke="#848484" stroke-width="1.5965"></path> <path opacity="0.0883534" d="M3285.88 2291.28C3285.88 2291.28 1944.54 1766.06 1411.4 1304.81C786.569 764.244 324.319 950.933 -219.249 402.469C-497.919 121.29 -491.266 -127.704 -783.118 -399.966C-1043.95 -643.288 -1184.96 -670.071 -1468.9 -895.774C-1971.81 -1295.52 -2215.65 -2071.95 -2215.65 -2071.95" stroke="#848484" stroke-width="1.5965"></path> <path opacity="0.0923695" d="M3284.28 2284.09C3284.28 2284.09 1947.62 1760.6 1416.33 1300.87C793.676 762.088 333.035 948.163 -208.64 401.505C-486.339 121.252 -479.71 -126.922 -770.545 -398.287C-1030.47 -640.808 -1170.98 -667.503 -1453.94 -892.463C-1955.1 -1290.9 -2198.09 -2064.76 -2198.09 -2064.76" stroke="#848484" stroke-width="1.5965"></path> <path opacity="0.0963855" d="M3282.68 2276.91C3282.68 2276.91 1950.69 1755.15 1421.26 1296.94C800.783 759.933 341.752 945.393 -198.031 400.541C-474.759 121.214 -468.153 -126.14 -757.972 -396.609C-1016.99 -638.329 -1157.01 -664.936 -1438.98 -889.151C-1938.39 -1286.27 -2180.53 -2057.58 -2180.53 -2057.58" stroke="#848484" stroke-width="1.5965"></path> <path opacity="0.100402" d="M3281.09 2269.72C3281.09 2269.72 1953.76 1749.69 1426.19 1293C807.89 757.777 350.468 942.622 -187.422 399.576C-463.18 121.175 -456.597 -125.359 -745.399 -394.931C-1003.5 -635.849 -1143.04 -662.368 -1424.02 -885.841C-1921.68 -1281.64 -2162.96 -2050.39 -2162.96 -2050.39" stroke="#848484" stroke-width="1.5965"></path> <path opacity="0.104418" d="M3279.49 2262.54C3279.49 2262.54 1956.84 1744.24 1431.12 1289.07C814.997 755.621 359.185 939.851 -176.812 398.612C-451.599 121.137 -445.04 -124.577 -732.826 -393.253C-990.022 -633.37 -1129.07 -659.801 -1409.06 -882.53C-1904.96 -1277.01 -2145.4 -2043.21 -2145.4 -2043.21" stroke="#848484" stroke-width="1.5965"></path> <path opacity="0.108434" d="M3277.89 2255.36C3277.89 2255.36 1959.91 1738.78 1436.05 1285.13C822.103 753.466 367.901 937.081 -166.203 397.648C-440.02 121.099 -433.484 -123.795 -720.253 -391.574C-976.542 -630.89 -1115.1 -657.233 -1394.1 -879.219C-1888.25 -1272.39 -2127.84 -2036.03 -2127.84 -2036.03" stroke="#848484" stroke-width="1.5965"></path> <path opacity="0.11245" d="M3276.3 2248.17C3276.3 2248.17 1962.99 1733.33 1440.98 1281.19C829.21 751.31 376.618 934.311 -155.593 396.684C-428.44 121.06 -421.927 -123.014 -707.68 -389.896C-963.06 -628.411 -1101.12 -654.665 -1379.14 -875.908C-1871.54 -1267.76 -2110.28 -2028.84 -2110.28 -2028.84" stroke="#848484" stroke-width="1.5965"></path> <path opacity="0.116466" d="M3274.7 2240.99C3274.7 2240.99 1966.06 1727.87 1445.91 1277.26C836.317 749.155 385.335 931.541 -144.984 395.72C-416.86 121.022 -410.37 -122.232 -695.107 -388.218C-949.579 -625.931 -1087.15 -652.097 -1364.18 -872.597C-1854.83 -1263.13 -2092.72 -2021.66 -2092.72 -2021.66" stroke="#848484" stroke-width="1.5965"></path> <path opacity="0.120482" d="M3273.11 2233.8C3273.11 2233.8 1969.14 1722.42 1450.84 1273.32C843.424 746.999 394.051 928.77 -134.374 394.755C-405.28 120.984 -398.813 -121.45 -682.534 -386.539C-936.097 -623.451 -1073.18 -649.529 -1349.21 -869.286C-1838.11 -1258.5 -2075.16 -2014.47 -2075.16 -2014.47" stroke="#848484" stroke-width="1.5965"></path> <path opacity="0.124498" d="M3271.51 2226.62C3271.51 2226.62 1972.21 1716.96 1455.78 1269.39C850.531 744.843 402.768 925.999 -123.765 393.791C-393.7 120.945 -387.257 -120.669 -669.961 -384.861C-922.616 -620.972 -1059.21 -646.962 -1334.25 -865.975C-1821.4 -1253.88 -2057.59 -2007.29 -2057.59 -2007.29" stroke="#848484" stroke-width="1.5965"></path> <path opacity="0.128514" d="M3269.91 2219.43C3269.91 2219.43 1975.29 1711.51 1460.71 1265.45C857.638 742.688 411.484 923.229 -113.156 392.827C-382.121 120.907 -375.7 -119.887 -657.389 -383.183C-909.135 -618.493 -1045.23 -644.394 -1319.29 -862.664C-1804.69 -1249.25 -2040.03 -2000.1 -2040.03 -2000.1" stroke="#848484" stroke-width="1.5965"></path> <path opacity="0.13253" d="M3268.32 2212.25C3268.32 2212.25 1978.36 1706.05 1465.64 1261.52C864.745 740.532 420.201 920.459 -102.546 391.863C-370.541 120.869 -364.143 -119.105 -644.815 -381.505C-895.654 -616.013 -1031.26 -641.826 -1304.33 -859.353C-1787.98 -1244.62 -2022.47 -1992.92 -2022.47 -1992.92" stroke="#848484" stroke-width="1.5965"></path> <path opacity="0.136546" d="M3266.72 2205.07C3266.72 2205.07 1981.43 1700.6 1470.57 1257.58C871.852 738.377 428.917 917.689 -91.9367 390.898C-358.961 120.831 -352.587 -118.324 -632.242 -379.827C-882.172 -613.533 -1017.29 -639.258 -1289.37 -856.042C-1771.26 -1239.99 -2004.91 -1985.74 -2004.91 -1985.74" stroke="#848484" stroke-width="1.5965"></path> <path opacity="0.140562" d="M3265.12 2197.88C3265.12 2197.88 1984.51 1695.15 1475.5 1253.64C878.958 736.221 437.634 914.918 -81.3273 389.934C-347.381 120.793 -341.03 -117.542 -619.669 -378.148C-868.691 -611.054 -1003.32 -636.691 -1274.41 -852.731C-1754.55 -1235.37 -1987.35 -1978.55 -1987.35 -1978.55" stroke="#848484" stroke-width="1.5965"></path> <path opacity="0.144578" d="M3263.53 2190.7C3263.53 2190.7 1987.58 1689.69 1480.43 1249.71C886.065 734.065 446.35 912.148 -70.7182 388.97C-335.802 120.754 -329.474 -116.761 -607.097 -376.47C-855.21 -608.575 -989.345 -634.123 -1259.45 -849.42C-1737.84 -1230.74 -1969.79 -1971.37 -1969.79 -1971.37" stroke="#848484" stroke-width="1.5965"></path> <path opacity="0.148594" d="M3261.93 2183.51C3261.93 2183.51 1990.66 1684.24 1485.36 1245.77C893.172 731.91 455.067 909.377 -60.1086 388.005C-324.222 120.716 -317.917 -115.979 -594.523 -374.792C-841.729 -606.095 -975.372 -631.555 -1244.49 -846.109C-1721.13 -1226.11 -1952.23 -1964.18 -1952.23 -1964.18" stroke="#848484" stroke-width="1.5965"></path> <path opacity="0.15261" d="M3260.33 2176.33C3260.33 2176.33 1993.73 1678.78 1490.29 1241.84C900.279 729.754 463.784 906.607 -49.4991 387.041C-312.642 120.678 -306.36 -115.197 -581.95 -373.113C-828.247 -603.615 -961.4 -628.987 -1229.53 -842.798C-1704.42 -1221.49 -1934.66 -1957 -1934.66 -1957" stroke="#848484" stroke-width="1.5965"></path> <path opacity="0.156627" d="M3258.74 2169.14C3258.74 2169.14 1996.81 1673.33 1495.22 1237.9C907.386 727.599 472.5 903.837 -38.8899 386.077C-301.062 120.639 -294.804 -114.415 -569.378 -371.435C-814.766 -601.136 -947.428 -626.42 -1214.57 -839.487C-1687.7 -1216.86 -1917.1 -1949.81 -1917.1 -1949.81" stroke="#848484" stroke-width="1.5965"></path> <path opacity="0.160643" d="M3257.14 2161.96C3257.14 2161.96 1999.88 1667.87 1500.15 1233.97C914.492 725.444 481.216 901.067 -28.2806 385.113C-289.482 120.601 -283.247 -113.633 -556.805 -369.757C-801.285 -598.656 -933.456 -623.852 -1199.6 -836.176C-1670.99 -1212.23 -1899.54 -1942.63 -1899.54 -1942.63" stroke="#848484" stroke-width="1.5965"></path> <path opacity="0.164659" d="M3255.54 2154.78C3255.54 2154.78 2002.96 1662.42 1505.09 1230.03C921.599 723.288 489.933 898.296 -17.671 384.149C-277.902 120.563 -271.69 -112.852 -544.232 -368.078C-787.804 -596.176 -919.483 -621.284 -1184.64 -832.865C-1654.28 -1207.6 -1881.98 -1935.45 -1881.98 -1935.45" stroke="#848484" stroke-width="1.5965"></path> <path opacity="0.168675" d="M3253.95 2147.59C3253.95 2147.59 2006.03 1656.96 1510.02 1226.09C928.706 721.132 498.65 895.525 -7.06127 383.184C-266.322 120.524 -260.133 -112.071 -531.658 -366.401C-774.322 -593.697 -905.51 -618.717 -1169.68 -829.554C-1637.57 -1202.98 -1864.42 -1928.26 -1864.42 -1928.26" stroke="#848484" stroke-width="1.5965"></path> <path opacity="0.172691" d="M3252.35 2140.41C3252.35 2140.41 2009.1 1651.51 1514.95 1222.16C935.813 718.976 507.366 892.755 3.54772 382.22C-254.743 120.486 -248.577 -111.289 -519.086 -364.722C-760.841 -591.218 -891.539 -616.149 -1154.72 -826.243C-1620.85 -1198.35 -1846.86 -1921.08 -1846.86 -1921.08" stroke="#848484" stroke-width="1.5965"></path> <path opacity="0.176707" d="M3250.75 2133.22C3250.75 2133.22 2012.18 1646.05 1519.88 1218.22C942.92 716.821 516.082 889.985 14.157 381.256C-243.163 120.448 -237.021 -110.507 -506.513 -363.044C-747.36 -588.738 -877.566 -613.581 -1139.76 -822.932C-1604.14 -1193.72 -1829.3 -1913.89 -1829.3 -1913.89" stroke="#848484" stroke-width="1.5965"></path> <path opacity="0.180723" d="M3249.16 2126.04C3249.16 2126.04 2015.25 1640.6 1524.81 1214.29C950.027 714.665 524.799 887.215 24.7666 380.292C-231.583 120.41 -225.464 -109.725 -493.94 -361.366C-733.879 -586.258 -863.594 -611.013 -1124.8 -819.621C-1587.43 -1189.09 -1811.73 -1906.71 -1811.73 -1906.71" stroke="#848484" stroke-width="1.5965"></path> <path opacity="0.184739" d="M3247.56 2118.85C3247.56 2118.85 2018.33 1635.14 1529.74 1210.35C957.133 712.51 533.516 884.444 35.3759 379.327C-220.003 120.371 -213.907 -108.944 -481.367 -359.687C-720.398 -583.779 -849.622 -608.446 -1109.84 -816.31C-1570.72 -1184.47 -1794.17 -1899.53 -1794.17 -1899.53" stroke="#848484" stroke-width="1.5965"></path> <path opacity="0.188755" d="M3245.96 2111.67C3245.96 2111.67 2021.4 1629.69 1534.67 1206.42C964.24 710.354 542.232 881.674 45.9853 378.363C-208.424 120.333 -202.35 -108.162 -468.794 -358.009C-706.916 -581.299 -835.649 -605.878 -1094.88 -812.999C-1554 -1179.84 -1776.61 -1892.34 -1776.61 -1892.34" stroke="#848484" stroke-width="1.5965"></path> <path opacity="0.192771" d="M3244.37 2104.49C3244.37 2104.49 2024.48 1624.23 1539.6 1202.48C971.347 708.198 550.949 878.903 56.5946 377.399C-196.844 120.295 -190.794 -107.38 -456.221 -356.331C-693.435 -578.82 -821.677 -603.31 -1079.92 -809.688C-1537.29 -1175.21 -1759.05 -1885.16 -1759.05 -1885.16" stroke="#848484" stroke-width="1.5965"></path> <path opacity="0.196787" d="M3242.77 2097.3C3242.77 2097.3 2027.55 1618.78 1544.53 1198.54C978.454 706.043 559.665 876.133 67.2042 376.435C-185.264 120.257 -179.237 -106.599 -443.648 -354.653C-679.954 -576.34 -807.705 -600.742 -1064.95 -806.377C-1520.58 -1170.58 -1741.49 -1877.97 -1741.49 -1877.97" stroke="#848484" stroke-width="1.5965"></path> <path opacity="0.200803" d="M3241.18 2090.12C3241.18 2090.12 2030.63 1613.33 1549.46 1194.61C985.561 703.887 568.382 873.363 77.8135 375.47C-173.684 120.218 -167.681 -105.817 -431.075 -352.975C-666.473 -573.861 -793.733 -598.175 -1049.99 -803.066C-1503.87 -1165.96 -1723.93 -1870.79 -1723.93 -1870.79" stroke="#848484" stroke-width="1.5965"></path> <path opacity="0.204819" d="M3239.58 2082.93C3239.58 2082.93 2033.7 1607.87 1554.4 1190.67C992.667 701.732 577.098 870.592 88.4227 374.506C-162.105 120.18 -156.124 -105.035 -418.502 -351.296C-652.992 -571.381 -779.761 -595.607 -1035.03 -799.755C-1487.16 -1161.33 -1706.37 -1863.6 -1706.37 -1863.6" stroke="#848484" stroke-width="1.5965"></path> <path opacity="0.208835" d="M3237.98 2075.75C3237.98 2075.75 2036.77 1602.42 1559.33 1186.74C999.774 699.576 585.815 867.822 99.0322 373.542C-150.525 120.142 -144.567 -104.254 -405.929 -349.618C-639.51 -568.902 -765.788 -593.039 -1020.07 -796.444C-1470.44 -1156.7 -1688.8 -1856.42 -1688.8 -1856.42" stroke="#848484" stroke-width="1.5965"></path> <path opacity="0.212851" d="M3236.39 2068.57C3236.39 2068.57 2039.85 1596.96 1564.26 1182.8C1006.88 697.42 594.531 865.051 109.642 372.578C-138.945 120.103 -133.011 -103.472 -393.356 -347.94C-626.029 -566.422 -751.816 -590.472 -1005.11 -793.133C-1453.73 -1152.07 -1671.24 -1849.24 -1671.24 -1849.24" stroke="#848484" stroke-width="1.5965"></path> <path opacity="0.216867" d="M3234.79 2061.38C3234.79 2061.38 2042.92 1591.51 1569.19 1178.87C1013.99 695.265 603.248 862.281 120.251 371.614C-127.365 120.065 -121.454 -102.69 -380.783 -346.261C-612.548 -563.943 -737.844 -587.904 -990.149 -789.822C-1437.02 -1147.45 -1653.68 -1842.05 -1653.68 -1842.05" stroke="#848484" stroke-width="1.5965"></path> <path opacity="0.220884" d="M3233.19 2054.2C3233.19 2054.2 2046 1586.05 1574.12 1174.93C1021.09 693.109 611.964 859.511 130.86 370.65C-115.785 120.027 -109.898 -101.908 -368.211 -344.583C-599.067 -561.463 -723.871 -585.336 -975.189 -786.511C-1420.31 -1142.82 -1636.12 -1834.87 -1636.12 -1834.87" stroke="#848484" stroke-width="1.5965"></path> <path opacity="0.2249" d="M3231.6 2047.01C3231.6 2047.01 2049.07 1580.6 1579.05 1170.99C1028.2 690.954 620.681 856.74 141.47 369.685C-104.205 119.988 -98.3406 -101.127 -355.637 -342.905C-585.585 -558.984 -709.899 -582.768 -960.227 -783.2C-1403.59 -1138.19 -1618.56 -1827.68 -1618.56 -1827.68" stroke="#848484" stroke-width="1.5965"></path> <path opacity="0.228916" d="M3230 2039.83C3230 2039.83 2052.15 1575.14 1583.98 1167.06C1035.31 688.798 629.397 853.97 152.079 368.721C-92.6256 119.95 -86.7842 -100.345 -343.065 -341.226C-572.104 -556.504 -695.927 -580.2 -945.266 -779.889C-1386.88 -1133.56 -1601 -1820.5 -1601 -1820.5" stroke="#848484" stroke-width="1.5965"></path> <path opacity="0.232932" d="M3228.4 2032.64C3228.4 2032.64 2055.22 1569.69 1588.91 1163.12C1042.42 686.643 638.114 851.2 162.689 367.757C-81.0455 119.912 -75.2272 -99.5635 -330.491 -339.548C-558.623 -554.024 -681.954 -577.633 -930.305 -776.578C-1370.17 -1128.94 -1583.44 -1813.31 -1583.44 -1813.31" stroke="#848484" stroke-width="1.5965"></path> <path opacity="0.236948" d="M3226.81 2025.46C3226.81 2025.46 2058.3 1564.23 1593.84 1159.19C1049.52 684.487 646.831 848.429 173.298 366.792C-69.4659 119.873 -63.6708 -98.782 -317.918 -337.87C-545.142 -551.545 -667.982 -575.065 -915.344 -773.267C-1353.46 -1124.31 -1565.87 -1806.13 -1565.87 -1806.13" stroke="#848484" stroke-width="1.5965"></path> <path opacity="0.240964" d="M3225.21 2018.28C3225.21 2018.28 2061.37 1558.78 1598.77 1155.25C1056.63 682.331 655.547 845.659 183.908 365.828C-57.886 119.835 -52.1141 -98.0003 -305.345 -336.192C-531.66 -549.066 -654.01 -572.497 -900.383 -769.956C-1336.74 -1119.68 -1548.31 -1798.95 -1548.31 -1798.95" stroke="#848484" stroke-width="1.5965"></path> <path opacity="0.24498" d="M3223.61 2011.09C3223.61 2011.09 2064.44 1553.32 1603.71 1151.32C1063.74 680.176 664.264 842.889 194.517 364.864C-46.3062 119.797 -40.5574 -97.2186 -292.772 -334.514C-518.179 -546.586 -640.037 -569.93 -885.422 -766.645C-1320.03 -1115.05 -1530.75 -1791.76 -1530.75 -1791.76" stroke="#848484" stroke-width="1.5965"></path> <path opacity="0.248996" d="M3222.02 2003.91C3222.02 2003.91 2067.52 1547.87 1608.64 1147.38C1070.84 678.02 672.98 840.118 205.127 363.9C-34.7263 119.759 -29.0007 -96.4369 -280.199 -332.835C-504.698 -544.106 -626.065 -567.362 -870.461 -763.334C-1303.32 -1110.43 -1513.19 -1784.58 -1513.19 -1784.58" stroke="#848484" stroke-width="1.5965"></path> <path opacity="0.253012" d="M3220.42 1996.72C3220.42 1996.72 2070.59 1542.42 1613.57 1143.44C1077.95 675.865 681.697 837.348 215.736 362.936C-23.1467 119.721 -17.4442 -95.655 -267.627 -331.157C-491.217 -541.627 -612.093 -564.794 -855.5 -760.023C-1286.61 -1105.8 -1495.63 -1777.39 -1495.63 -1777.39" stroke="#848484" stroke-width="1.5965"></path> <path opacity="0.257028" d="M3218.82 1989.54C3218.82 1989.54 2073.67 1536.96 1618.5 1139.51C1085.06 673.709 690.413 834.577 226.345 361.971C-11.5668 119.682 -5.88749 -94.8739 -255.054 -329.479C-477.735 -539.148 -598.121 -562.227 -840.539 -756.712C-1269.89 -1101.17 -1478.07 -1770.21 -1478.07 -1770.21" stroke="#848484" stroke-width="1.5965"></path> <path opacity="0.261044" d="M3217.23 1982.35C3217.23 1982.35 2076.74 1531.51 1623.43 1135.57C1092.16 671.553 699.13 831.807 236.955 361.007C0.0130673 119.644 5.66921 -94.092 -242.481 -327.801C-464.254 -536.668 -584.148 -559.659 -825.578 -753.401C-1253.18 -1096.55 -1460.51 -1763.03 -1460.51 -1763.03" stroke="#848484" stroke-width="1.5965"></path> <path opacity="0.26506" d="M3215.63 1975.17C3215.63 1975.17 2079.82 1526.05 1628.36 1131.64C1099.27 669.398 707.847 829.037 247.564 360.043C11.5929 119.606 17.2259 -93.3102 -229.908 -326.122C-450.773 -534.188 -570.176 -557.091 -810.616 -750.09C-1236.47 -1091.92 -1442.94 -1755.84 -1442.94 -1755.84" stroke="#848484" stroke-width="1.5965"></path> <path opacity="0.269076" d="M3214.03 1967.99C3214.03 1967.99 2082.89 1520.6 1633.29 1127.7C1106.38 667.242 716.563 826.266 258.173 359.079C23.1726 119.567 28.7824 -92.5285 -217.335 -324.444C-437.292 -531.709 -556.204 -554.523 -795.656 -746.779C-1219.76 -1087.29 -1425.38 -1748.66 -1425.38 -1748.66" stroke="#848484" stroke-width="1.5965"></path> <path opacity="0.273092" d="M3212.44 1960.8C3212.44 1960.8 2085.97 1515.14 1638.22 1123.77C1113.48 665.087 725.279 823.496 268.783 358.114C34.7524 119.529 40.3391 -91.7469 -204.762 -322.766C-423.81 -529.229 -542.231 -551.955 -780.694 -743.468C-1203.04 -1082.66 -1407.82 -1741.47 -1407.82 -1741.47" stroke="#848484" stroke-width="1.5965"></path> <path opacity="0.277108" d="M3210.84 1953.62C3210.84 1953.62 2089.04 1509.69 1643.15 1119.83C1120.59 662.931 733.996 820.726 279.392 357.15C46.3325 119.491 51.896 -90.9651 -192.189 -321.088C-410.329 -526.75 -528.259 -549.388 -765.733 -740.157C-1186.33 -1078.04 -1390.26 -1734.29 -1390.26 -1734.29" stroke="#848484" stroke-width="1.5965"></path> <path opacity="0.281125" d="M3209.25 1946.43C3209.25 1946.43 2092.11 1504.23 1648.08 1115.89C1127.7 660.775 742.713 817.955 290.002 356.186C57.9122 119.452 63.4525 -90.1836 -179.616 -319.409C-396.848 -524.27 -514.287 -546.82 -750.772 -736.846C-1169.62 -1073.41 -1372.7 -1727.1 -1372.7 -1727.1" stroke="#848484" stroke-width="1.5965"></path> <path opacity="0.285141" d="M3207.65 1939.25C3207.65 1939.25 2095.19 1498.78 1653.02 1111.96C1134.8 658.62 751.429 815.185 300.611 355.222C69.492 119.414 75.0092 -89.4019 -167.043 -317.731C-383.366 -521.791 -500.314 -544.252 -735.811 -733.535C-1152.91 -1068.78 -1355.14 -1719.92 -1355.14 -1719.92" stroke="#848484" stroke-width="1.5965"></path> <path opacity="0.289157" d="M3206.05 1932.06C3206.05 1932.06 2098.26 1493.32 1657.95 1108.02C1141.91 656.464 760.146 812.415 311.22 354.257C81.0717 119.376 86.5657 -88.6201 -154.47 -316.053C-369.885 -519.311 -486.342 -541.684 -720.85 -730.224C-1136.2 -1064.15 -1337.58 -1712.74 -1337.58 -1712.74" stroke="#848484" stroke-width="1.5965"></path> <path opacity="0.293173" d="M3204.46 1924.88C3204.46 1924.88 2101.34 1487.87 1662.88 1104.09C1149.02 654.309 768.862 809.644 321.83 353.293C92.6518 119.338 98.1226 -87.8384 -141.897 -314.374C-356.404 -516.831 -472.37 -539.117 -705.889 -726.913C-1119.48 -1059.53 -1320.01 -1705.55 -1320.01 -1705.55" stroke="#848484" stroke-width="1.5965"></path> <path opacity="0.297189" d="M3202.86 1917.7C3202.86 1917.7 2104.41 1482.41 1667.81 1100.15C1156.13 652.153 777.579 806.874 332.439 352.329C104.231 119.299 109.679 -87.0568 -129.324 -312.696C-342.923 -514.352 -458.398 -536.549 -690.928 -723.602C-1102.77 -1054.9 -1302.45 -1698.37 -1302.45 -1698.37" stroke="#848484" stroke-width="1.5965"></path> <path opacity="0.301205" d="M3201.26 1910.51C3201.26 1910.51 2107.49 1476.96 1672.74 1096.22C1163.23 649.998 786.295 804.104 343.048 351.365C115.811 119.261 121.235 -86.275 -116.751 -311.018C-329.442 -511.872 -444.426 -533.981 -675.967 -720.291C-1086.06 -1050.27 -1284.89 -1691.18 -1284.89 -1691.18" stroke="#848484" stroke-width="1.5965"></path> <path opacity="0.305221" d="M3199.67 1903.33C3199.67 1903.33 2110.56 1471.51 1677.67 1092.28C1170.34 647.842 795.012 801.333 353.658 350.401C127.391 119.223 132.792 -85.4934 -104.178 -309.34C-315.96 -509.393 -430.453 -531.414 -661.006 -716.98C-1069.35 -1045.64 -1267.33 -1684 -1267.33 -1684" stroke="#848484" stroke-width="1.5965"></path> <path opacity="0.309237" d="M3198.07 1896.14C3198.07 1896.14 2113.64 1466.05 1682.6 1088.34C1177.45 645.687 803.728 798.563 364.267 349.437C138.971 119.185 144.349 -84.7116 -91.6054 -307.661C-302.479 -506.913 -416.481 -528.846 -646.045 -713.669C-1052.63 -1041.02 -1249.77 -1676.81 -1249.77 -1676.81" stroke="#848484" stroke-width="1.5965"></path> <path opacity="0.313253" d="M3196.47 1888.96C3196.47 1888.96 2116.71 1460.6 1687.53 1084.41C1184.55 643.531 812.445 795.792 374.877 348.472C150.551 119.146 155.906 -83.93 -79.0321 -305.983C-288.998 -504.434 -402.509 -526.278 -631.084 -710.358C-1035.92 -1036.39 -1232.21 -1669.63 -1232.21 -1669.63" stroke="#848484" stroke-width="1.5965"></path> <path opacity="0.317269" d="M3194.88 1881.78C3194.88 1881.78 2119.78 1455.14 1692.46 1080.47C1191.66 641.375 821.161 793.022 385.486 347.508C162.13 119.108 167.462 -83.1484 -66.4596 -304.305C-275.517 -501.954 -388.537 -523.71 -616.123 -707.047C-1019.21 -1031.76 -1214.65 -1662.45 -1214.65 -1662.45" stroke="#848484" stroke-width="1.5965"></path> <path opacity="0.321285" d="M3193.28 1874.59C3193.28 1874.59 2122.86 1449.69 1697.39 1076.54C1198.77 639.22 829.878 790.252 396.096 346.544C173.71 119.07 179.019 -82.3667 -53.8863 -302.627C-262.035 -499.475 -374.564 -521.143 -601.162 -703.736C-1002.5 -1027.13 -1197.08 -1655.26 -1197.08 -1655.26" stroke="#848484" stroke-width="1.5965"></path> <path opacity="0.325301" d="M3191.68 1867.41C3191.68 1867.41 2125.93 1444.23 1702.33 1072.6C1205.87 637.064 838.594 787.481 406.705 345.579C185.29 119.031 190.575 -81.5853 -41.3135 -300.949C-248.554 -496.995 -360.592 -518.575 -586.201 -700.425C-985.785 -1022.51 -1179.52 -1648.08 -1179.52 -1648.08" stroke="#848484" stroke-width="1.5965"></path> <path opacity="0.329317" d="M3190.09 1860.22C3190.09 1860.22 2129.01 1438.78 1707.26 1068.67C1212.98 634.909 847.311 784.711 417.314 344.615C196.87 118.993 202.132 -80.8033 -28.7403 -299.27C-235.073 -494.516 -346.619 -516.007 -571.239 -697.114C-969.072 -1017.88 -1161.96 -1640.89 -1161.96 -1640.89" stroke="#848484" stroke-width="1.5965"></path> <path opacity="0.333333" d="M3188.49 1853.04C3188.49 1853.04 2132.08 1433.32 1712.19 1064.73C1220.09 632.753 856.027 781.941 427.923 343.651C208.449 118.955 213.688 -80.0217 -16.1678 -297.592C-221.592 -492.036 -332.648 -513.439 -556.279 -693.803C-952.36 -1013.25 -1144.4 -1633.71 -1144.4 -1633.71" stroke="#848484" stroke-width="1.5965"></path> <path opacity="0.337349" d="M3186.89 1845.85C3186.89 1845.85 2135.16 1427.87 1717.12 1060.79C1227.19 630.598 864.744 779.17 438.533 342.687C220.029 118.917 225.245 -79.2398 -3.59474 -295.914C-208.111 -489.556 -318.675 -510.871 -541.318 -690.492C-935.648 -1008.62 -1126.84 -1626.52 -1126.84 -1626.52" stroke="#848484" stroke-width="1.5965"></path> <path opacity="0.341365" d="M3185.3 1838.67C3185.3 1838.67 2138.23 1422.41 1722.05 1056.86C1234.3 628.442 873.461 776.4 449.143 341.723C231.609 118.878 236.802 -78.4583 8.97854 -294.235C-194.629 -487.077 -304.703 -508.304 -526.356 -687.181C-918.935 -1004 -1109.28 -1619.34 -1109.28 -1619.34" stroke="#848484" stroke-width="1.5965"></path> <path opacity="0.345382" d="M3183.7 1831.49C3183.7 1831.49 2141.31 1416.96 1726.98 1052.92C1241.41 626.286 882.177 773.63 459.752 340.758C243.189 118.84 248.359 -77.6766 21.5513 -292.557C-181.148 -484.597 -290.731 -505.736 -511.395 -683.87C-902.223 -999.37 -1091.72 -1612.16 -1091.72 -1612.16" stroke="#848484" stroke-width="1.5965"></path> <path opacity="0.349398" d="M3182.1 1824.3C3182.1 1824.3 2144.38 1411.5 1731.91 1048.99C1248.51 624.131 890.894 770.859 470.362 339.794C254.769 118.802 259.915 -76.8949 34.1246 -290.879C-167.666 -482.118 -276.758 -503.168 -496.434 -680.559C-885.51 -994.742 -1074.15 -1604.97 -1074.15 -1604.97" stroke="#848484" stroke-width="1.5965"></path> <path opacity="0.353414" d="M3180.51 1817.12C3180.51 1817.12 2147.45 1406.05 1736.84 1045.05C1255.62 621.975 899.61 768.089 480.971 338.83C266.348 118.763 271.472 -76.1133 46.6971 -289.201C-154.186 -479.638 -262.786 -500.601 -481.473 -677.248C-868.798 -990.115 -1056.59 -1597.79 -1056.59 -1597.79" stroke="#848484" stroke-width="1.5965"></path> <path opacity="0.35743" d="M3178.91 1809.93C3178.91 1809.93 2150.53 1400.6 1741.77 1041.12C1262.73 619.819 908.327 765.318 491.58 337.866C277.928 118.725 283.029 -75.3317 59.2704 -287.523C-140.704 -477.159 -248.814 -498.033 -466.512 -673.937C-852.086 -985.488 -1039.03 -1590.6 -1039.03 -1590.6" stroke="#848484" stroke-width="1.5965"></path> <path opacity="0.361446" d="M3177.32 1802.75C3177.32 1802.75 2153.6 1395.14 1746.7 1037.18C1269.83 617.664 917.043 762.548 502.19 336.901C289.508 118.687 294.585 -74.5499 71.8434 -285.844C-127.223 -474.679 -234.841 -495.465 -451.551 -670.626C-835.373 -980.86 -1021.47 -1583.42 -1021.47 -1583.42" stroke="#848484" stroke-width="1.5965"></path> <path opacity="0.365462" d="M3175.72 1795.56C3175.72 1795.56 2156.68 1389.69 1751.64 1033.24C1276.94 615.508 925.76 759.778 512.799 335.937C301.088 118.649 306.142 -73.7682 84.4162 -284.166C-113.742 -472.2 -220.869 -492.897 -436.59 -667.315C-818.661 -976.233 -1003.91 -1576.23 -1003.91 -1576.23" stroke="#848484" stroke-width="1.5965"></path> <path opacity="0.369478" d="M3174.12 1788.38C3174.12 1788.38 2159.75 1384.23 1756.57 1029.31C1284.05 613.353 934.476 757.007 523.408 334.973C312.668 118.61 317.699 -72.9867 96.9892 -282.488C-100.26 -469.72 -206.897 -490.33 -421.629 -664.004C-801.949 -971.605 -986.346 -1569.05 -986.346 -1569.05" stroke="#848484" stroke-width="1.5965"></path> <path opacity="0.373494" d="M3172.53 1781.2C3172.53 1781.2 2162.83 1378.78 1761.5 1025.37C1291.15 611.197 943.193 754.237 534.018 334.009C324.248 118.572 329.255 -72.205 109.562 -280.809C-86.7791 -467.241 -192.924 -487.762 -406.668 -660.693C-785.236 -966.978 -968.785 -1561.87 -968.785 -1561.87" stroke="#848484" stroke-width="1.5965"></path> <path opacity="0.37751" d="M3170.93 1774.01C3170.93 1774.01 2165.9 1373.32 1766.43 1021.44C1298.26 609.042 951.909 751.467 544.627 333.045C335.828 118.534 340.812 -71.4231 122.135 -279.131C-73.2978 -464.761 -178.952 -485.194 -391.707 -657.382C-768.524 -962.35 -951.223 -1554.68 -951.223 -1554.68" stroke="#848484" stroke-width="1.5965"></path> <path opacity="0.381526" d="M3169.33 1766.83C3169.33 1766.83 2168.98 1367.87 1771.36 1017.5C1305.37 606.886 960.626 748.696 555.237 332.08C347.407 118.495 352.369 -70.6417 134.708 -277.453C-59.8165 -462.282 -164.98 -482.627 -376.745 -654.071C-751.811 -957.723 -933.662 -1547.5 -933.662 -1547.5" stroke="#848484" stroke-width="1.5965"></path> <path opacity="0.385542" d="M3167.74 1759.64C3167.74 1759.64 2172.05 1362.41 1776.29 1013.57C1312.48 604.73 969.342 745.926 565.846 331.116C358.987 118.457 363.925 -69.8599 147.281 -275.775C-46.3355 -459.802 -151.008 -480.059 -361.785 -650.76C-735.099 -953.096 -916.1 -1540.31 -916.1 -1540.31" stroke="#848484" stroke-width="1.5965"></path> <path opacity="0.389558" d="M3166.14 1752.46C3166.14 1752.46 2175.12 1356.96 1781.22 1009.63C1319.58 602.575 978.059 743.155 576.455 330.152C370.567 118.419 375.482 -69.0783 159.854 -274.097C-32.8541 -457.323 -137.035 -477.491 -346.823 -647.449C-718.387 -948.468 -898.539 -1533.13 -898.539 -1533.13" stroke="#848484" stroke-width="1.5965"></path> <path opacity="0.393574" d="M3164.54 1745.28C3164.54 1745.28 2178.2 1351.5 1786.15 1005.69C1326.69 600.419 986.776 740.385 587.065 329.188C382.147 118.381 387.039 -68.2965 172.427 -272.418C-19.3728 -454.843 -123.063 -474.923 -331.862 -644.138C-701.674 -943.841 -880.977 -1525.95 -880.977 -1525.95" stroke="#848484" stroke-width="1.5965"></path> <path opacity="0.39759" d="M3162.95 1738.09C3162.95 1738.09 2181.27 1346.05 1791.08 1001.76C1333.8 598.264 995.492 737.615 597.674 328.223C393.726 118.342 398.595 -67.515 185 -270.74C-5.89178 -452.364 -109.091 -472.356 -316.901 -640.827C-684.962 -939.214 -863.416 -1518.76 -863.416 -1518.76" stroke="#848484" stroke-width="1.5965"></path> <path opacity="0.401606" d="M3161.35 1730.91C3161.35 1730.91 2184.35 1340.59 1796.01 997.823C1340.9 596.108 1004.21 734.844 608.284 327.259C405.306 118.304 410.152 -66.7332 197.573 -269.062C7.58952 -449.884 -95.1186 -469.788 -301.94 -637.516C-668.25 -934.586 -845.854 -1511.58 -845.854 -1511.58" stroke="#848484" stroke-width="1.5965"></path> <path opacity="0.405622" d="M3159.75 1723.72C3159.75 1723.72 2187.42 1335.14 1800.95 993.888C1348.01 593.953 1012.93 732.074 618.893 326.295C416.886 118.266 421.708 -65.9513 210.146 -267.383C21.0708 -447.404 -81.1462 -467.22 -286.979 -634.205C-651.537 -929.959 -828.293 -1504.39 -828.293 -1504.39" stroke="#848484" stroke-width="1.5965"></path> <path opacity="0.409639" d="M3158.16 1716.54C3158.16 1716.54 2190.5 1329.68 1805.88 989.952C1355.12 591.797 1021.64 729.303 629.502 325.331C428.466 118.227 433.265 -65.17 222.719 -265.705C34.5521 -444.925 -67.1739 -464.652 -272.018 -630.894C-634.825 -925.331 -810.731 -1497.21 -810.731 -1497.21" stroke="#848484" stroke-width="1.5965"></path> <path opacity="0.413655" d="M3156.56 1709.35C3156.56 1709.35 2193.57 1324.23 1810.81 986.016C1362.22 589.641 1030.36 726.533 640.112 324.366C440.046 118.189 444.822 -64.3885 235.292 -264.027C48.0334 -442.446 -53.2016 -462.085 -257.057 -627.583C-618.113 -920.704 -793.17 -1490.02 -793.17 -1490.02" stroke="#848484" stroke-width="1.5965"></path> <path opacity="0.417671" d="M3154.96 1702.17C3154.96 1702.17 2196.65 1318.78 1815.74 982.081C1369.33 587.486 1039.07 723.763 650.721 323.402C451.626 118.151 456.378 -63.6064 247.865 -262.348C61.5145 -439.966 -39.2295 -459.517 -242.096 -624.272C-601.4 -916.076 -775.609 -1482.84 -775.609 -1482.84" stroke="#848484" stroke-width="1.5965"></path> <path opacity="0.421687" d="M3153.37 1694.99C3153.37 1694.99 2199.72 1313.32 1820.67 978.145C1376.44 585.33 1047.79 720.992 661.33 322.438C463.205 118.113 467.935 -62.8249 260.437 -260.67C74.9955 -437.486 -25.2574 -456.949 -227.135 -620.961C-584.688 -911.449 -758.047 -1475.66 -758.047 -1475.66" stroke="#848484" stroke-width="1.5965"></path> <path opacity="0.425703" d="M3151.77 1687.8C3151.77 1687.8 2202.79 1307.87 1825.6 974.209C1383.54 583.175 1056.51 718.222 671.94 321.474C474.785 118.074 479.492 -62.0431 273.011 -258.992C88.4771 -435.007 -11.2848 -454.381 -212.174 -617.65C-567.976 -906.822 -740.486 -1468.47 -740.486 -1468.47" stroke="#848484" stroke-width="1.5965"></path> <path opacity="0.429719" d="M3150.18 1680.62C3150.18 1680.62 2205.87 1302.41 1830.53 970.273C1390.65 581.019 1065.22 715.452 682.549 320.509C486.365 118.036 491.048 -61.2616 285.583 -257.314C101.958 -432.527 2.68727 -451.814 -197.213 -614.339C-551.264 -902.194 -722.924 -1461.29 -722.924 -1461.29" stroke="#848484" stroke-width="1.5965"></path> <path opacity="0.433735" d="M3148.58 1673.43C3148.58 1673.43 2208.94 1296.96 1835.46 966.338C1397.76 578.864 1073.94 712.682 693.159 319.545C497.945 117.998 502.605 -60.4797 298.156 -255.636C115.439 -430.048 16.6596 -449.246 -182.252 -611.028C-534.551 -897.567 -705.363 -1454.1 -705.363 -1454.1" stroke="#848484" stroke-width="1.5965"></path> <path opacity="0.437751" d="M3146.98 1666.25C3146.98 1666.25 2212.02 1291.5 1840.39 962.402C1404.86 576.708 1082.66 709.911 703.768 318.581C509.524 117.959 514.161 -59.6982 310.729 -253.957C128.921 -427.568 30.6317 -446.678 -167.291 -607.717C-517.839 -892.94 -687.802 -1446.92 -687.802 -1446.92" stroke="#848484" stroke-width="1.5965"></path> <path opacity="0.441767" d="M3145.39 1659.06C3145.39 1659.06 2215.09 1286.05 1845.32 958.466C1411.97 574.552 1091.37 707.141 714.378 317.617C521.105 117.921 525.718 -58.9165 323.303 -252.279C142.402 -425.089 44.6043 -444.111 -152.329 -604.406C-501.126 -888.312 -670.24 -1439.73 -670.24 -1439.73" stroke="#848484" stroke-width="1.5965"></path> <path opacity="0.445783" d="M3143.79 1651.88C3143.79 1651.88 2218.17 1280.59 1850.26 954.53C1419.08 572.397 1100.09 704.37 724.987 316.653C532.684 117.883 537.275 -58.1348 335.875 -250.601C155.883 -422.609 58.5764 -441.543 -137.369 -601.095C-484.414 -883.685 -652.679 -1432.55 -652.679 -1432.55" stroke="#848484" stroke-width="1.5965"></path> <path opacity="0.449799" d="M3142.19 1644.7C3142.19 1644.7 2221.24 1275.14 1855.19 950.595C1426.18 570.241 1108.81 701.6 735.596 315.688C544.264 117.845 548.831 -57.353 348.448 -248.922C169.364 -420.13 72.5488 -438.975 -122.407 -597.784C-467.702 -879.057 -635.117 -1425.37 -635.117 -1425.37" stroke="#848484" stroke-width="1.5965"></path> <path opacity="0.453815" d="M3140.6 1637.51C3140.6 1637.51 2224.32 1269.68 1860.12 946.659C1433.29 568.086 1117.52 698.83 746.206 314.724C555.844 117.806 560.388 -56.5714 361.021 -247.244C182.846 -417.65 86.5211 -436.407 -107.446 -594.473C-450.989 -874.43 -617.555 -1418.18 -617.555 -1418.18" stroke="#848484" stroke-width="1.5965"></path> <path opacity="0.457831" d="M3139 1630.33C3139 1630.33 2227.39 1264.23 1865.05 942.723C1440.4 565.93 1126.24 696.059 756.815 313.76C567.424 117.768 571.945 -55.79 373.594 -245.566C196.327 -415.171 100.493 -433.84 -92.4852 -591.162C-434.277 -869.803 -599.994 -1411 -599.994 -1411" stroke="#848484" stroke-width="1.5965"></path> <path opacity="0.461847" d="M3137.4 1623.14C3137.4 1623.14 2230.46 1258.77 1869.98 938.788C1447.51 563.775 1134.96 693.289 767.425 312.796C579.004 117.73 583.502 -55.008 386.167 -243.888C209.808 -412.691 114.466 -431.272 -77.524 -587.851C-417.564 -865.175 -582.432 -1403.81 -582.432 -1403.81" stroke="#848484" stroke-width="1.5965"></path> <path opacity="0.465863" d="M3135.81 1615.96C3135.81 1615.96 2233.54 1253.32 1874.91 934.852C1454.61 561.619 1143.67 690.518 778.034 311.831C590.583 117.691 595.058 -54.2264 398.74 -242.21C223.289 -410.211 128.438 -428.704 -62.5632 -584.54C-400.852 -860.548 -564.871 -1396.63 -564.871 -1396.63" stroke="#848484" stroke-width="1.5965"></path> <path opacity="0.46988" d="M3134.21 1608.77C3134.21 1608.77 2236.61 1247.87 1879.84 930.916C1461.72 559.463 1152.39 687.748 788.643 310.867C602.163 117.653 606.615 -53.4447 411.313 -240.531C236.771 -407.732 142.41 -426.136 -47.602 -581.229C-384.14 -855.92 -547.31 -1389.44 -547.31 -1389.44" stroke="#848484" stroke-width="1.5965"></path> <path opacity="0.473896" d="M3132.61 1601.59C3132.61 1601.59 2239.69 1242.41 1884.77 926.981C1468.83 557.308 1161.11 684.978 799.253 309.903C613.743 117.615 618.171 -52.663 423.886 -238.853C250.252 -405.252 156.383 -423.569 -32.6409 -577.918C-367.427 -851.293 -529.748 -1382.26 -529.748 -1382.26" stroke="#848484" stroke-width="1.5965"></path> <path opacity="0.477912" d="M3131.02 1594.41C3131.02 1594.41 2242.76 1236.96 1889.7 923.045C1475.93 555.152 1169.82 682.207 809.862 308.939C625.323 117.577 629.728 -51.8813 436.459 -237.175C263.733 -402.773 170.355 -421.001 -17.6798 -574.607C-350.715 -846.665 -512.187 -1375.08 -512.187 -1375.08" stroke="#848484" stroke-width="1.5965"></path> <path opacity="0.481928" d="M3129.42 1587.22C3129.42 1587.22 2245.84 1231.5 1894.63 919.109C1483.04 552.996 1178.54 679.437 820.472 307.974C636.902 117.538 641.285 -51.0999 449.032 -235.497C277.214 -400.294 184.327 -418.433 -2.71889 -571.296C-334.003 -842.038 -494.625 -1367.89 -494.625 -1367.89" stroke="#848484" stroke-width="1.5965"></path> <path opacity="0.485944" d="M3127.82 1580.04C3127.82 1580.04 2248.91 1226.05 1899.57 915.173C1490.15 550.841 1187.26 676.667 831.081 307.01C648.482 117.5 652.841 -50.318 461.605 -233.818C290.696 -397.814 198.299 -415.865 12.2422 -567.985C-317.29 -837.411 -477.064 -1360.71 -477.064 -1360.71" stroke="#848484" stroke-width="1.5965"></path> <path opacity="0.48996" d="M3126.23 1572.85C3126.23 1572.85 2251.98 1220.59 1904.5 911.238C1497.25 548.685 1195.97 673.896 841.69 306.046C660.062 117.462 664.398 -49.5363 474.178 -232.14C304.177 -395.334 212.272 -413.298 27.2034 -564.674C-300.578 -832.783 -459.502 -1353.52 -459.502 -1353.52" stroke="#848484" stroke-width="1.5965"></path> <path opacity="0.493976" d="M3124.63 1565.67C3124.63 1565.67 2255.06 1215.14 1909.43 907.302C1504.36 546.53 1204.69 671.126 852.3 305.082C671.642 117.424 675.955 -48.7544 486.751 -230.461C317.658 -392.854 226.244 -410.73 42.1645 -561.363C-283.866 -828.156 -441.941 -1346.34 -441.941 -1346.34" stroke="#848484" stroke-width="1.5965"></path> <path opacity="0.497992" d="M3123.03 1558.48C3123.03 1558.48 2258.13 1209.68 1914.36 903.366C1511.47 544.374 1213.41 668.356 862.909 304.118C683.222 117.385 687.511 -47.9729 499.324 -228.783C331.139 -390.375 240.216 -408.162 57.1254 -558.052C-267.153 -823.528 -424.38 -1339.16 -424.38 -1339.16" stroke="#848484" stroke-width="1.5965"></path> <path opacity="0.502008" d="M3121.44 1551.3C3121.44 1551.3 2261.21 1204.23 1919.29 899.43C1518.57 542.218 1222.12 665.585 873.519 303.153C694.802 117.347 699.068 -47.1914 511.897 -227.105C344.621 -387.896 254.189 -405.594 72.0868 -554.741C-250.441 -818.901 -406.818 -1331.97 -406.818 -1331.97" stroke="#848484" stroke-width="1.5965"></path> <path opacity="0.506024" d="M3119.84 1544.12C3119.84 1544.12 2264.28 1198.77 1924.22 895.495C1525.68 540.063 1230.84 662.815 884.128 302.189C706.381 117.309 710.625 -46.4097 524.47 -225.427C358.102 -385.416 268.161 -403.027 87.0476 -551.43C-233.729 -814.274 -389.257 -1324.79 -389.257 -1324.79" stroke="#848484" stroke-width="1.5965"></path> <path opacity="0.51004" d="M3118.25 1536.93C3118.25 1536.93 2267.36 1193.32 1929.15 891.559C1532.79 537.907 1239.56 660.044 894.738 301.225C717.962 117.27 722.181 -45.6279 537.043 -223.749C371.584 -382.937 282.133 -400.459 102.009 -548.119C-217.016 -809.646 -371.695 -1317.6 -371.695 -1317.6" stroke="#848484" stroke-width="1.5965"></path> <path opacity="0.514056" d="M3116.65 1529.75C3116.65 1529.75 2270.43 1187.86 1934.08 887.623C1539.89 535.752 1248.27 657.274 905.347 300.261C729.541 117.232 733.738 -44.8465 549.616 -222.071C385.064 -380.457 296.105 -397.891 116.97 -544.808C-200.304 -805.019 -354.134 -1310.42 -354.134 -1310.42" stroke="#848484" stroke-width="1.5965"></path> <path opacity="0.518072" d="M3115.05 1522.56C3115.05 1522.56 2273.51 1182.41 1939.01 883.688C1547 533.596 1256.99 654.504 915.956 299.297C741.121 117.194 745.294 -44.0646 562.189 -220.392C398.546 -377.977 310.078 -395.323 131.931 -541.497C-183.592 -800.391 -336.572 -1303.23 -336.572 -1303.23" stroke="#848484" stroke-width="1.5965"></path> <path opacity="0.522088" d="M3113.46 1515.38C3113.46 1515.38 2276.58 1176.96 1943.94 879.752C1554.11 531.441 1265.7 651.733 926.566 298.332C752.701 117.156 756.851 -43.2828 574.762 -218.714C412.027 -375.498 324.05 -392.756 146.892 -538.186C-166.879 -795.764 -319.011 -1296.05 -319.011 -1296.05" stroke="#848484" stroke-width="1.5965"></path> <path opacity="0.526104" d="M3111.86 1508.2C3111.86 1508.2 2279.65 1171.5 1948.88 875.816C1561.21 529.285 1274.42 648.963 937.175 297.368C764.281 117.117 768.408 -42.5013 587.335 -217.036C425.508 -373.018 338.022 -390.188 161.853 -534.875C-150.167 -791.137 -301.449 -1288.87 -301.449 -1288.87" stroke="#848484" stroke-width="1.5965"></path> <path opacity="0.53012" d="M3110.26 1501.01C3110.26 1501.01 2282.73 1166.05 1953.81 871.881C1568.32 527.129 1283.14 646.193 947.784 296.404C775.86 117.079 779.964 -41.7196 599.907 -215.357C438.989 -370.539 351.994 -387.62 176.814 -531.564C-133.455 -786.509 -283.888 -1281.68 -283.888 -1281.68" stroke="#848484" stroke-width="1.5965"></path> <path opacity="0.534137" d="M3108.67 1493.83C3108.67 1493.83 2285.8 1160.59 1958.74 867.945C1575.43 524.974 1291.85 643.422 958.394 295.44C787.44 117.041 791.521 -40.9379 612.48 -213.679C452.471 -368.059 365.967 -385.052 191.775 -528.253C-116.742 -781.882 -266.326 -1274.5 -266.326 -1274.5" stroke="#848484" stroke-width="1.5965"></path> <path opacity="0.538153" d="M3107.07 1486.64C3107.07 1486.64 2288.88 1155.14 1963.67 864.009C1582.54 522.818 1300.57 640.652 969.003 294.475C799.02 117.002 803.078 -40.1562 625.053 -212.001C465.952 -365.58 379.939 -382.485 206.736 -524.942C-100.03 -777.254 -248.765 -1267.31 -248.765 -1267.31" stroke="#848484" stroke-width="1.5965"></path> <path opacity="0.542169" d="M3105.47 1479.46C3105.47 1479.46 2291.95 1149.68 1968.6 860.073C1589.64 520.663 1309.29 637.881 979.613 293.511C810.6 116.964 814.634 -39.3747 637.627 -210.323C479.433 -363.1 393.911 -379.917 221.697 -521.632C-83.3174 -772.627 -231.203 -1260.13 -231.203 -1260.13" stroke="#848484" stroke-width="1.5965"></path> <path opacity="0.546185" d="M3103.88 1472.27C3103.88 1472.27 2295.03 1144.23 1973.53 856.138C1596.75 518.507 1318 635.111 990.222 292.547C822.179 116.926 826.191 -38.593 650.199 -208.644C492.914 -360.621 407.883 -377.349 236.658 -518.32C-66.6056 -768 -213.642 -1252.94 -213.642 -1252.94" stroke="#848484" stroke-width="1.5965"></path> <path opacity="0.550201" d="M3102.28 1465.09C3102.28 1465.09 2298.1 1138.77 1978.46 852.202C1603.86 516.352 1326.72 632.341 1000.83 291.583C833.759 116.888 837.748 -37.8111 662.772 -206.966C506.396 -358.141 421.856 -374.781 251.619 -515.009C-49.8929 -763.372 -196.081 -1245.76 -196.081 -1245.76" stroke="#848484" stroke-width="1.5965"></path> <path opacity="0.554217" d="M3100.68 1457.91C3100.68 1457.91 2301.18 1133.32 1983.39 848.266C1610.96 514.196 1335.44 629.57 1011.44 290.618C845.339 116.849 849.304 -37.0297 675.345 -205.288C519.877 -355.662 435.828 -372.214 266.58 -511.699C-33.1808 -758.745 -178.519 -1238.58 -178.519 -1238.58" stroke="#848484" stroke-width="1.5965"></path> <path opacity="0.558233" d="M3099.09 1450.72C3099.09 1450.72 2304.25 1127.86 1988.32 844.33C1618.07 512.04 1344.15 626.8 1022.05 289.654C856.919 116.811 860.861 -36.248 687.918 -203.61C533.358 -353.182 449.8 -369.646 281.542 -508.387C-16.4681 -754.117 -160.958 -1231.39 -160.958 -1231.39" stroke="#848484" stroke-width="1.5965"></path> <path opacity="0.562249" d="M3097.49 1443.54C3097.49 1443.54 2307.32 1122.41 1993.25 840.395C1625.18 509.885 1352.87 624.03 1032.66 288.69C868.498 116.773 872.417 -35.466 700.491 -201.931C546.839 -350.702 463.772 -367.078 296.502 -505.076C0.243779 -749.49 -143.397 -1224.21 -143.397 -1224.21" stroke="#848484" stroke-width="1.5965"></path> <path opacity="0.566265" d="M3095.89 1436.35C3095.89 1436.35 2310.4 1116.95 1998.19 836.459C1632.28 507.729 1361.59 621.259 1043.27 287.726C880.079 116.734 883.974 -34.6846 713.064 -200.253C560.321 -348.223 477.745 -364.511 311.464 -501.765C16.9565 -744.863 -125.835 -1217.02 -125.835 -1217.02" stroke="#848484" stroke-width="1.5965"></path> <path opacity="0.570281" d="M3094.3 1429.17C3094.3 1429.17 2313.47 1111.5 2003.12 832.523C1639.39 505.573 1370.3 618.489 1053.88 286.761C891.658 116.696 895.531 -33.9032 725.637 -198.575C573.802 -345.744 491.717 -361.943 326.425 -498.455C33.6689 -740.235 -108.273 -1209.84 -108.273 -1209.84" stroke="#848484" stroke-width="1.5965"></path> <path opacity="0.574297" d="M3092.7 1421.98C3092.7 1421.98 2316.55 1106.04 2008.05 828.588C1646.5 503.418 1379.02 615.719 1064.49 285.797C903.238 116.658 907.088 -33.1211 738.21 -196.897C587.283 -343.264 505.69 -359.375 341.386 -495.143C50.3813 -735.608 -90.7118 -1202.65 -90.7118 -1202.65" stroke="#848484" stroke-width="1.5965"></path> <path opacity="0.578313" d="M3091.1 1414.8C3091.1 1414.8 2319.62 1100.59 2012.98 824.652C1653.6 501.262 1387.74 612.948 1075.1 284.833C914.818 116.619 918.644 -32.3396 750.783 -195.218C600.764 -340.784 519.662 -356.807 356.347 -491.832C67.0935 -730.98 -73.1505 -1195.47 -73.1505 -1195.47" stroke="#848484" stroke-width="1.5965"></path> <path opacity="0.582329" d="M3089.51 1407.62C3089.51 1407.62 2322.7 1095.14 2017.91 820.717C1660.71 499.107 1396.45 610.178 1085.71 283.869C926.398 116.581 930.201 -31.5577 763.356 -193.54C614.246 -338.305 533.634 -354.24 371.308 -488.521C83.8059 -726.353 -55.589 -1188.29 -55.589 -1188.29" stroke="#848484" stroke-width="1.5965"></path> <path opacity="0.586345" d="M3087.91 1400.43C3087.91 1400.43 2325.77 1089.68 2022.84 816.781C1667.82 496.951 1405.17 607.408 1096.32 282.905C937.978 116.543 941.757 -30.776 775.929 -191.862C627.727 -335.825 547.606 -351.672 386.269 -485.21C100.518 -721.725 -38.0275 -1181.1 -38.0275 -1181.1" stroke="#848484" stroke-width="1.5965"></path> <path opacity="0.590361" d="M3086.32 1393.25C3086.32 1393.25 2328.85 1084.23 2027.77 812.845C1674.92 494.796 1413.89 604.637 1106.93 281.94C949.558 116.505 953.314 -29.9944 788.502 -190.184C641.208 -333.346 561.579 -349.104 401.23 -481.899C117.231 -717.098 -20.4659 -1173.92 -20.4659 -1173.92" stroke="#848484" stroke-width="1.5965"></path> <path opacity="0.594378" d="M3084.72 1386.06C3084.72 1386.06 2331.92 1078.77 2032.7 808.909C1682.03 492.64 1422.6 601.867 1117.53 280.976C961.137 116.466 964.871 -29.2129 801.075 -188.505C654.689 -330.866 575.551 -346.537 416.191 -478.589C133.943 -712.471 -2.90455 -1166.73 -2.90455 -1166.73" stroke="#848484" stroke-width="1.5965"></path> <path opacity="0.598394" d="M3083.12 1378.88C3083.12 1378.88 2334.99 1073.32 2037.63 804.973C1689.14 490.484 1431.32 599.096 1128.14 280.012C972.717 116.428 976.427 -28.4312 813.648 -186.827C668.171 -328.387 589.523 -343.969 431.152 -475.278C150.655 -707.843 14.6568 -1159.55 14.6568 -1159.55" stroke="#848484" stroke-width="1.5965"></path> <path opacity="0.60241" d="M3081.53 1371.69C3081.53 1371.69 2338.07 1067.86 2042.56 801.038C1696.24 488.329 1440.04 596.326 1138.75 279.048C984.297 116.39 987.984 -27.6494 826.221 -185.149C681.652 -325.907 603.495 -341.401 446.113 -471.966C167.368 -703.216 32.2184 -1152.37 32.2184 -1152.37" stroke="#848484" stroke-width="1.5965"></path> <path opacity="0.606426" d="M3079.93 1364.51C3079.93 1364.51 2341.14 1062.41 2047.5 797.102C1703.35 486.173 1448.75 593.556 1149.36 278.084C995.877 116.352 999.541 -26.8677 838.794 -183.47C695.133 -323.428 617.468 -338.833 461.074 -468.655C184.08 -698.588 49.7799 -1145.18 49.7799 -1145.18" stroke="#848484" stroke-width="1.5965"></path> <path opacity="0.610442" d="M3078.33 1357.33C3078.33 1357.33 2344.22 1056.95 2052.43 793.166C1710.46 484.018 1457.47 590.785 1159.97 277.119C1007.46 116.313 1011.1 -26.0861 851.367 -181.792C708.614 -320.948 631.44 -336.265 476.035 -465.344C200.792 -693.961 67.3413 -1138 67.3413 -1138" stroke="#848484" stroke-width="1.5965"></path> <path opacity="0.614458" d="M3076.74 1350.14C3076.74 1350.14 2347.29 1051.5 2057.36 789.231C1717.57 481.862 1466.18 588.015 1170.58 276.155C1019.04 116.275 1022.65 -25.3043 863.94 -180.114C722.096 -318.468 645.412 -333.698 490.996 -462.033C217.505 -689.334 84.9027 -1130.81 84.9027 -1130.81" stroke="#848484" stroke-width="1.5965"></path> <path opacity="0.618474" d="M3075.14 1342.96C3075.14 1342.96 2350.37 1046.04 2062.29 785.295C1724.67 479.707 1474.9 585.245 1181.19 275.191C1030.62 116.237 1034.21 -24.5228 876.513 -178.436C735.577 -315.989 659.385 -331.13 505.958 -458.723C234.217 -684.706 102.465 -1123.63 102.465 -1123.63" stroke="#848484" stroke-width="1.5965"></path> <path opacity="0.62249" d="M3073.54 1335.77C3073.54 1335.77 2353.44 1040.59 2067.22 781.359C1731.78 477.551 1483.62 582.474 1191.8 274.227C1042.2 116.198 1045.77 -23.741 889.086 -176.758C749.058 -313.509 673.357 -328.562 520.919 -455.411C250.93 -680.079 120.026 -1116.44 120.026 -1116.44" stroke="#848484" stroke-width="1.5965"></path> <path opacity="0.626506" d="M3071.95 1328.59C3071.95 1328.59 2356.52 1035.13 2072.15 777.424C1738.89 475.396 1492.33 579.704 1202.41 273.262C1053.78 116.16 1057.32 -22.9593 901.659 -175.079C762.54 -311.03 687.329 -325.994 535.88 -452.1C267.642 -675.451 137.587 -1109.26 137.587 -1109.26" stroke="#848484" stroke-width="1.5965"></path> <path opacity="0.630522" d="M3070.35 1321.41C3070.35 1321.41 2359.59 1029.68 2077.08 773.488C1745.99 473.24 1501.05 576.933 1213.02 272.298C1065.36 116.122 1068.88 -22.1777 914.231 -173.401C776.02 -308.55 701.301 -323.427 550.841 -448.79C284.354 -670.824 155.148 -1102.08 155.148 -1102.08" stroke="#848484" stroke-width="1.5965"></path> <path opacity="0.634538" d="M3068.75 1314.22C3068.75 1314.22 2362.66 1024.23 2082.01 769.552C1753.1 471.084 1509.77 574.163 1223.63 271.334C1076.94 116.083 1080.44 -21.3962 926.805 -171.723C789.502 -306.071 715.274 -320.859 565.802 -445.479C301.067 -666.197 172.71 -1094.89 172.71 -1094.89" stroke="#848484" stroke-width="1.5965"></path> <path opacity="0.638554" d="M3067.16 1307.04C3067.16 1307.04 2365.74 1018.77 2086.94 765.616C1760.21 468.929 1518.48 571.393 1234.24 270.369C1088.52 116.045 1091.99 -20.6145 939.377 -170.045C802.983 -303.591 729.246 -318.291 580.763 -442.168C317.779 -661.569 190.272 -1087.71 190.272 -1087.71" stroke="#848484" stroke-width="1.5965"></path> <path opacity="0.64257" d="M3065.56 1299.85C3065.56 1299.85 2368.81 1013.32 2091.88 761.681C1767.31 466.773 1527.2 568.622 1244.85 269.405C1100.09 116.007 1103.55 -19.8327 951.95 -168.366C816.464 -301.112 743.218 -315.724 595.724 -438.857C334.491 -656.942 207.833 -1080.52 207.833 -1080.52" stroke="#848484" stroke-width="1.5965"></path> <path opacity="0.646586" d="M3063.96 1292.67C3063.96 1292.67 2371.89 1007.86 2096.81 757.745C1774.42 464.617 1535.92 565.852 1255.46 268.441C1111.67 115.969 1115.11 -19.0511 964.523 -166.688C829.945 -298.632 757.19 -313.156 610.685 -435.546C351.203 -652.315 225.394 -1073.34 225.394 -1073.34" stroke="#848484" stroke-width="1.5965"></path> <path opacity="0.650602" d="M3062.37 1285.48C3062.37 1285.48 2374.96 1002.41 2101.74 753.809C1781.53 462.462 1544.63 563.082 1266.07 267.477C1123.25 115.931 1126.66 -18.2692 977.096 -165.01C843.427 -296.153 771.163 -310.588 625.646 -432.234C367.916 -647.687 242.956 -1066.15 242.956 -1066.15" stroke="#848484" stroke-width="1.5965"></path> <path opacity="0.654619" d="M3060.77 1278.3C3060.77 1278.3 2378.04 996.952 2106.67 749.874C1788.63 460.306 1553.35 560.311 1276.68 266.513C1134.83 115.892 1138.22 -17.4876 989.669 -163.331C856.908 -293.673 785.135 -308.02 640.607 -428.923C384.628 -643.06 260.517 -1058.97 260.517 -1058.97" stroke="#848484" stroke-width="1.5965"></path> <path opacity="0.658635" d="M3059.17 1271.12C3059.17 1271.12 2381.11 991.497 2111.6 745.938C1795.74 458.151 1562.07 557.541 1287.29 265.548C1146.41 115.854 1149.78 -16.7061 1002.24 -161.653C870.389 -291.194 799.107 -305.453 655.568 -425.613C401.341 -638.432 278.079 -1051.79 278.079 -1051.79" stroke="#848484" stroke-width="1.5965"></path> <path opacity="0.662651" d="M3057.58 1263.93C3057.58 1263.93 2384.19 986.043 2116.53 742.002C1802.85 455.995 1570.78 554.77 1297.89 264.584C1157.99 115.816 1161.33 -15.9243 1014.82 -159.975C883.87 -288.714 813.08 -302.885 670.529 -422.302C418.053 -633.805 295.64 -1044.6 295.64 -1044.6" stroke="#848484" stroke-width="1.5965"></path> <path opacity="0.666667" d="M3055.98 1256.75C3055.98 1256.75 2387.26 980.588 2121.46 738.066C1809.95 453.839 1579.5 552 1308.5 263.62C1169.57 115.777 1172.89 -15.1428 1027.39 -158.297C897.352 -286.235 827.052 -300.317 685.49 -418.991C434.765 -629.178 313.202 -1037.42 313.202 -1037.42" stroke="#848484" stroke-width="1.5965"></path> <path opacity="0.670683" d="M3054.39 1249.56C3054.39 1249.56 2390.33 975.134 2126.39 734.131C1817.06 451.684 1588.22 549.23 1319.11 262.656C1181.15 115.739 1184.45 -14.361 1039.96 -156.618C910.833 -283.755 841.024 -297.749 700.451 -415.68C451.478 -624.55 330.763 -1030.23 330.763 -1030.23" stroke="#848484" stroke-width="1.5965"></path> <path opacity="0.674699" d="M3052.79 1242.38C3052.79 1242.38 2393.41 969.679 2131.32 730.195C1824.17 449.528 1596.93 546.459 1329.72 261.692C1192.73 115.701 1196 -13.5793 1052.53 -154.94C924.314 -281.276 854.996 -295.182 715.412 -412.369C468.19 -619.923 348.325 -1023.05 348.325 -1023.05" stroke="#848484" stroke-width="1.5965"></path> <path opacity="0.678715" d="M3051.19 1235.19C3051.19 1235.19 2396.48 964.224 2136.25 726.259C1831.27 447.373 1605.65 543.689 1340.33 260.727C1204.31 115.662 1207.56 -12.7977 1065.11 -153.262C937.795 -278.796 868.969 -292.614 730.373 -409.058C484.902 -615.295 365.886 -1015.86 365.886 -1015.86" stroke="#848484" stroke-width="1.5965"></path> <path opacity="0.682731" d="M3049.6 1228.01C3049.6 1228.01 2399.56 958.77 2141.19 722.324C1838.38 445.217 1614.37 540.919 1350.94 259.763C1215.89 115.624 1219.12 -12.016 1077.68 -151.584C951.277 -276.316 882.941 -290.046 745.335 -405.747C501.615 -610.668 383.447 -1008.68 383.447 -1008.68" stroke="#848484" stroke-width="1.5965"></path> <path opacity="0.686747" d="M3048 1220.83C3048 1220.83 2402.63 953.315 2146.12 718.388C1845.49 443.062 1623.08 538.148 1361.55 258.799C1227.47 115.586 1230.67 -11.2343 1090.25 -149.906C964.758 -273.837 896.913 -287.479 760.296 -402.436C518.327 -606.04 401.009 -1001.5 401.009 -1001.5" stroke="#848484" stroke-width="1.5965"></path> <path opacity="0.690763" d="M3046.4 1213.64C3046.4 1213.64 2405.71 947.86 2151.05 714.452C1852.6 440.906 1631.8 535.378 1372.16 257.835C1239.05 115.548 1242.23 -10.4526 1102.83 -148.227C978.239 -271.357 910.886 -284.911 775.257 -399.125C535.04 -601.413 418.571 -994.312 418.571 -994.312" stroke="#848484" stroke-width="1.5965"></path> <path opacity="0.694779" d="M3044.81 1206.46C3044.81 1206.46 2408.78 942.406 2155.98 710.517C1859.7 438.751 1640.52 532.608 1382.77 256.871C1250.63 115.509 1253.79 -9.67079 1115.4 -146.549C991.72 -268.878 924.858 -282.343 790.218 -395.813C551.751 -596.785 436.132 -987.128 436.132 -987.128" stroke="#848484" stroke-width="1.5965"></path> <path opacity="0.698795" d="M3043.21 1199.27C3043.21 1199.27 2411.86 936.951 2160.91 706.581C1866.81 436.595 1649.23 529.837 1393.38 255.906C1262.21 115.471 1265.34 -8.88922 1127.97 -144.871C1005.2 -266.398 938.83 -279.775 805.179 -392.503C568.464 -592.158 453.693 -979.944 453.693 -979.944" stroke="#848484" stroke-width="1.5965"></path> <path opacity="0.702811" d="M3041.61 1192.09C3041.61 1192.09 2414.93 931.497 2165.84 702.645C1873.92 434.44 1657.95 527.067 1403.99 254.942C1273.79 115.433 1276.9 -8.10741 1140.54 -143.192C1018.68 -263.919 952.802 -277.207 820.14 -389.191C585.176 -587.531 471.255 -972.759 471.255 -972.759" stroke="#848484" stroke-width="1.5965"></path> <path opacity="0.706827" d="M3040.02 1184.9C3040.02 1184.9 2418 926.042 2170.77 698.709C1881.02 432.284 1666.67 524.296 1414.6 253.978C1285.37 115.394 1288.46 -7.32591 1153.12 -141.514C1032.16 -261.439 966.775 -274.64 835.101 -385.881C601.889 -582.903 488.816 -965.575 488.816 -965.575" stroke="#848484" stroke-width="1.5965"></path> <path opacity="0.710843" d="M3038.42 1177.72C3038.42 1177.72 2421.08 920.587 2175.7 694.774C1888.13 430.128 1675.38 521.526 1425.21 253.014C1296.95 115.356 1300.01 -6.54417 1165.69 -139.836C1045.65 -258.96 980.747 -272.072 850.062 -382.57C618.601 -578.276 506.378 -958.391 506.378 -958.391" stroke="#848484" stroke-width="1.5965"></path> <path opacity="0.714859" d="M3036.82 1170.54C3036.82 1170.54 2424.15 915.132 2180.63 690.838C1895.24 427.972 1684.1 518.756 1435.82 252.049C1308.53 115.318 1311.57 -5.76268 1178.26 -138.158C1059.13 -256.48 994.719 -269.504 865.023 -379.259C635.314 -573.649 523.939 -951.207 523.939 -951.207" stroke="#848484" stroke-width="1.5965"></path> <path opacity="0.718876" d="M3035.23 1163.35C3035.23 1163.35 2427.23 909.678 2185.56 686.902C1902.34 425.817 1692.81 515.985 1446.43 251.085C1320.11 115.28 1323.13 -4.98086 1190.84 -136.479C1072.61 -254.001 1008.69 -266.937 879.984 -375.948C652.026 -569.021 541.501 -944.023 541.501 -944.023" stroke="#848484" stroke-width="1.5965"></path> <path opacity="0.722892" d="M3033.63 1156.17C3033.63 1156.17 2430.3 904.223 2190.5 682.966C1909.45 423.661 1701.53 513.215 1457.04 250.121C1331.69 115.241 1334.68 -4.1992 1203.41 -134.801C1086.09 -251.521 1022.66 -264.369 894.945 -372.637C668.738 -564.394 559.062 -936.838 559.062 -936.838" stroke="#848484" stroke-width="1.5965"></path> <path opacity="0.726908" d="M3032.03 1148.98C3032.03 1148.98 2433.38 898.769 2195.43 679.031C1916.56 421.506 1710.25 510.444 1467.65 249.156C1343.27 115.203 1346.24 -3.41763 1215.98 -133.123C1099.57 -249.042 1036.64 -261.801 909.906 -369.326C685.45 -559.766 576.623 -929.654 576.623 -929.654" stroke="#848484" stroke-width="1.5965"></path> <path opacity="0.730924" d="M3030.44 1141.8C3030.44 1141.8 2436.45 893.314 2200.36 675.095C1923.66 419.35 1718.96 507.674 1478.25 248.192C1354.85 115.165 1357.8 -2.63581 1228.56 -131.445C1113.05 -246.562 1050.61 -259.233 924.867 -366.015C702.163 -555.139 594.185 -922.47 594.185 -922.47" stroke="#848484" stroke-width="1.5965"></path> <path opacity="0.73494" d="M3028.84 1134.62C3028.84 1134.62 2439.53 887.859 2205.29 671.159C1930.77 417.195 1727.68 504.904 1488.86 247.228C1366.43 115.126 1369.35 -1.8542 1241.13 -129.766C1126.53 -244.082 1064.58 -256.666 939.829 -362.704C718.875 -550.512 611.746 -915.286 611.746 -915.286" stroke="#848484" stroke-width="1.5965"></path> <path opacity="0.738956" d="M3027.24 1127.43C3027.24 1127.43 2442.6 882.405 2210.22 667.224C1937.88 415.039 1736.4 502.133 1499.47 246.264C1378.01 115.088 1380.91 -1.07258 1253.7 -128.088C1140.01 -241.603 1078.55 -254.098 954.79 -359.393C735.588 -545.884 629.308 -908.101 629.308 -908.101" stroke="#848484" stroke-width="1.5965"></path> <path opacity="0.742972" d="M3025.65 1120.25C3025.65 1120.25 2445.67 876.95 2215.15 663.288C1944.98 412.883 1745.11 499.363 1510.08 245.3C1389.59 115.05 1392.47 -0.290837 1266.27 -126.41C1153.5 -239.123 1092.53 -251.53 969.751 -356.082C752.3 -541.257 646.869 -900.917 646.869 -900.917" stroke="#848484" stroke-width="1.5965"></path> <path opacity="0.746988" d="M3024.05 1113.06C3024.05 1113.06 2448.75 871.496 2220.08 659.352C1952.09 410.728 1753.83 496.593 1520.69 244.335C1401.17 115.012 1404.02 0.490854 1278.85 -124.732C1166.98 -236.644 1106.5 -248.962 984.712 -352.771C769.012 -536.629 664.431 -893.733 664.431 -893.733" stroke="#848484" stroke-width="1.5965"></path> <path opacity="0.751004" d="M3022.46 1105.88C3022.46 1105.88 2451.82 866.041 2225.01 655.417C1959.2 408.572 1762.55 493.822 1531.3 243.371C1412.75 114.973 1415.58 1.27255 1291.42 -123.053C1180.46 -234.164 1120.47 -246.395 999.673 -349.46C785.725 -532.002 681.992 -886.549 681.992 -886.549" stroke="#848484" stroke-width="1.5965"></path> <path opacity="0.75502" d="M3020.86 1098.69C3020.86 1098.69 2454.9 860.586 2229.94 651.481C1966.3 406.417 1771.26 491.052 1541.91 242.407C1424.33 114.935 1427.14 2.05416 1303.99 -121.375C1193.94 -231.685 1134.44 -243.827 1014.63 -346.149C802.437 -527.375 699.554 -879.365 699.554 -879.365" stroke="#848484" stroke-width="1.5965"></path> <path opacity="0.759036" d="M3019.26 1091.51C3019.26 1091.51 2457.97 855.132 2234.87 647.545C1973.41 404.261 1779.98 488.282 1552.52 241.443C1435.91 114.897 1438.69 2.83585 1316.57 -119.697C1207.42 -229.205 1148.41 -241.259 1029.59 -342.838C819.149 -522.747 717.115 -872.18 717.115 -872.18" stroke="#848484" stroke-width="1.5965"></path> <path opacity="0.763052" d="M3017.67 1084.33C3017.67 1084.33 2461.05 849.677 2239.81 643.609C1980.52 402.106 1788.7 485.511 1563.13 240.478C1447.49 114.858 1450.25 3.61747 1329.14 -118.019C1220.9 -226.726 1162.39 -238.692 1044.56 -339.527C835.862 -518.12 734.677 -864.996 734.677 -864.996" stroke="#848484" stroke-width="1.5965"></path> <path opacity="0.767068" d="M3016.07 1077.14C3016.07 1077.14 2464.12 844.222 2244.74 639.674C1987.63 399.95 1797.41 482.741 1573.74 239.514C1459.07 114.82 1461.81 4.39921 1341.71 -116.34C1234.38 -224.246 1176.36 -236.124 1059.52 -336.216C852.574 -513.492 752.238 -857.812 752.238 -857.812" stroke="#848484" stroke-width="1.5965"></path> <path opacity="0.771084" d="M3014.47 1069.96C3014.47 1069.96 2467.2 838.768 2249.67 635.738C1994.73 397.794 1806.13 479.97 1584.35 238.55C1470.65 114.782 1473.36 5.18083 1354.29 -114.662C1247.86 -221.767 1190.33 -233.556 1074.48 -332.905C869.286 -508.865 769.799 -850.628 769.799 -850.628" stroke="#848484" stroke-width="1.5965"></path> <path opacity="0.7751" d="M3012.88 1062.77C3012.88 1062.77 2470.27 833.313 2254.6 631.802C2001.84 395.639 1814.85 477.2 1594.96 237.586C1482.23 114.744 1484.92 5.96252 1366.86 -112.984C1261.35 -219.287 1204.3 -230.988 1089.44 -329.594C885.999 -504.238 787.361 -843.443 787.361 -843.443" stroke="#848484" stroke-width="1.5965"></path> <path opacity="0.779116" d="M3011.28 1055.59C3011.28 1055.59 2473.34 827.859 2259.53 627.867C2008.95 393.483 1823.56 474.43 1605.57 236.622C1493.81 114.705 1496.48 6.74433 1379.43 -111.305C1274.83 -216.807 1218.28 -228.42 1104.4 -326.283C902.711 -499.61 804.922 -836.259 804.922 -836.259" stroke="#848484" stroke-width="1.5965"></path> <path opacity="0.783133" d="M3009.68 1048.4C3009.68 1048.4 2476.42 822.404 2264.46 623.931C2016.05 391.328 1832.28 471.659 1616.18 235.657C1505.39 114.667 1508.03 7.52583 1392 -109.627C1288.31 -214.328 1232.25 -225.853 1119.36 -322.972C919.423 -494.983 822.484 -829.075 822.484 -829.075" stroke="#848484" stroke-width="1.5965"></path> <path opacity="0.787149" d="M3008.09 1041.22C3008.09 1041.22 2479.49 816.949 2269.39 619.995C2023.16 389.172 1841 468.889 1626.79 234.693C1516.97 114.629 1519.59 8.30757 1404.58 -107.949C1301.79 -211.849 1246.22 -223.285 1134.32 -319.661C936.136 -490.355 840.045 -821.891 840.045 -821.891" stroke="#848484" stroke-width="1.5965"></path> <path opacity="0.791165" d="M3006.49 1034.04C3006.49 1034.04 2482.57 811.495 2274.32 616.06C2030.27 387.017 1849.71 466.119 1637.4 233.729C1528.55 114.591 1531.15 9.08938 1417.15 -106.271C1315.27 -209.369 1260.19 -220.717 1149.28 -316.35C952.848 -485.728 857.607 -814.706 857.607 -814.706" stroke="#848484" stroke-width="1.5965"></path> <path opacity="0.795181" d="M3004.89 1026.85C3004.89 1026.85 2485.64 806.04 2279.25 612.124C2037.37 384.861 1858.43 463.348 1648 232.765C1540.13 114.552 1542.7 9.87088 1429.72 -104.593C1328.75 -206.889 1274.16 -218.15 1164.24 -313.039C969.56 -481.101 875.168 -807.522 875.168 -807.522" stroke="#848484" stroke-width="1.5965"></path> <path opacity="0.799197" d="M3003.3 1019.67C3003.3 1019.67 2488.72 800.585 2284.18 608.188C2044.48 382.705 1867.15 460.578 1658.61 231.8C1551.71 114.514 1554.26 10.6526 1442.3 -102.914C1342.23 -204.41 1288.14 -215.582 1179.21 -309.728C986.273 -476.473 892.73 -800.338 892.73 -800.338" stroke="#848484" stroke-width="1.5965"></path> <path opacity="0.803213" d="M3001.7 1012.48C3001.7 1012.48 2491.79 795.131 2289.12 604.252C2051.59 380.55 1875.86 457.808 1669.22 230.836C1563.29 114.476 1565.82 11.4344 1454.87 -101.236C1355.71 -201.93 1302.11 -213.014 1194.17 -306.417C1002.99 -471.846 910.291 -793.154 910.291 -793.154" stroke="#848484" stroke-width="1.5965"></path> <path opacity="0.807229" d="M3000.1 1005.3C3000.1 1005.3 2494.87 789.676 2294.05 600.317C2058.69 378.394 1884.58 455.037 1679.83 229.872C1574.87 114.437 1577.37 12.216 1467.44 -99.5578C1369.2 -199.451 1316.08 -210.446 1209.13 -303.106C1019.7 -467.218 927.853 -785.969 927.853 -785.969" stroke="#848484" stroke-width="1.5965"></path> <path opacity="0.811245" d="M2998.51 998.115C2998.51 998.115 2497.94 784.221 2298.98 596.381C2065.8 376.239 1893.29 452.267 1690.44 228.908C1586.45 114.399 1588.93 12.9977 1480.01 -97.8795C1382.68 -196.971 1330.05 -207.879 1224.09 -299.795C1036.41 -462.591 945.414 -778.785 945.414 -778.785" stroke="#848484" stroke-width="1.5965"></path> <path opacity="0.815261" d="M2996.91 990.93C2996.91 990.93 2501.01 778.767 2303.91 592.445C2072.91 374.083 1902.01 449.496 1701.05 227.943C1598.03 114.361 1600.49 13.7792 1492.59 -96.2014C1396.16 -194.492 1344.03 -205.311 1239.05 -296.484C1053.12 -457.964 962.976 -771.601 962.976 -771.601" stroke="#848484" stroke-width="1.5965"></path> <path opacity="0.819277" d="M2995.31 983.746C2995.31 983.746 2504.09 773.312 2308.84 588.509C2080.01 371.927 1910.73 446.726 1711.66 226.979C1609.61 114.323 1612.04 14.561 1505.16 -94.523C1409.64 -192.012 1358 -202.743 1254.01 -293.173C1069.83 -453.336 980.537 -764.417 980.537 -764.417" stroke="#848484" stroke-width="1.5965"></path> <path opacity="0.823293" d="M2993.72 976.562C2993.72 976.562 2507.16 767.857 2313.77 584.574C2087.12 369.772 1919.44 443.956 1722.27 226.015C1621.19 114.284 1623.6 15.3427 1517.73 -92.8448C1423.12 -189.533 1371.97 -200.175 1268.97 -289.862C1086.55 -448.709 998.098 -757.233 998.098 -757.233" stroke="#848484" stroke-width="1.5965"></path> <path opacity="0.827309" d="M2992.12 969.378C2992.12 969.378 2510.24 762.403 2318.7 580.638C2094.23 367.616 1928.16 441.185 1732.88 225.051C1632.77 114.246 1635.16 16.1243 1530.31 -91.1666C1436.6 -187.053 1385.94 -197.608 1283.93 -286.551C1103.26 -444.081 1015.66 -750.048 1015.66 -750.048" stroke="#848484" stroke-width="1.5965"></path> <path opacity="0.831325" d="M2990.53 962.194C2990.53 962.194 2513.31 756.948 2323.63 576.702C2101.33 365.461 1936.88 438.415 1743.49 224.087C1644.35 114.208 1646.71 16.9061 1542.88 -89.4882C1450.08 -184.574 1399.92 -195.04 1298.89 -283.24C1119.97 -439.454 1033.22 -742.864 1033.22 -742.864" stroke="#848484" stroke-width="1.5965"></path> <path opacity="0.835341" d="M2988.93 955.009C2988.93 955.009 2516.39 751.494 2328.56 572.767C2108.44 363.305 1945.59 435.645 1754.1 223.122C1655.93 114.169 1658.27 17.6877 1555.45 -87.81C1463.56 -182.094 1413.89 -192.472 1313.86 -279.929C1136.68 -434.826 1050.78 -735.68 1050.78 -735.68" stroke="#848484" stroke-width="1.5965"></path> <path opacity="0.839357" d="M2987.33 947.825C2987.33 947.825 2519.46 746.039 2333.49 568.831C2115.55 361.149 1954.31 432.874 1764.71 222.158C1667.51 114.131 1669.83 18.4693 1568.03 -86.1318C1477.05 -179.615 1427.86 -189.905 1328.82 -276.618C1153.4 -430.199 1068.34 -728.496 1068.34 -728.496" stroke="#848484" stroke-width="1.5965"></path> <path opacity="0.843373" d="M2985.74 940.641C2985.74 940.641 2522.54 740.584 2338.43 564.895C2122.66 358.994 1963.03 430.104 1775.32 221.194C1679.09 114.093 1681.38 19.251 1580.6 -84.4535C1490.53 -177.135 1441.83 -187.337 1343.78 -273.307C1170.11 -425.572 1085.91 -721.311 1085.91 -721.311" stroke="#848484" stroke-width="1.5965"></path> <path opacity="0.84739" d="M2984.14 933.457C2984.14 933.457 2525.61 735.13 2343.36 560.96C2129.76 356.838 1971.74 427.334 1785.93 220.23C1690.67 114.055 1692.94 20.0328 1593.17 -82.7752C1504.01 -174.655 1455.8 -184.769 1358.74 -269.996C1186.82 -420.944 1103.47 -714.127 1103.47 -714.127" stroke="#848484" stroke-width="1.5965"></path> <path opacity="0.851406" d="M2982.54 926.272C2982.54 926.272 2528.68 729.675 2348.29 557.024C2136.87 354.683 1980.46 424.563 1796.54 219.265C1702.25 114.016 1704.5 20.8143 1605.74 -81.097C1517.49 -172.176 1469.78 -182.201 1373.7 -266.685C1203.53 -416.317 1121.03 -706.943 1121.03 -706.943" stroke="#848484" stroke-width="1.5965"></path> <path opacity="0.855422" d="M2980.95 919.088C2980.95 919.088 2531.76 724.22 2353.22 553.088C2143.98 352.527 1989.18 421.793 1807.15 218.301C1713.82 113.978 1716.05 21.596 1618.32 -79.4188C1530.97 -169.696 1483.75 -179.634 1388.66 -263.374C1220.25 -411.689 1138.59 -699.759 1138.59 -699.759" stroke="#848484" stroke-width="1.5965"></path> <path opacity="0.859438" d="M2979.35 911.904C2979.35 911.904 2534.83 718.766 2358.15 549.152C2151.08 350.372 1997.89 419.022 1817.76 217.337C1725.4 113.94 1727.61 22.3777 1630.89 -77.7405C1544.45 -167.217 1497.72 -177.066 1403.62 -260.063C1236.96 -407.062 1156.15 -692.574 1156.15 -692.574" stroke="#848484" stroke-width="1.5965"></path> <path opacity="0.863454" d="M2977.75 904.72C2977.75 904.72 2537.91 713.311 2363.08 545.217C2158.19 348.216 2006.61 416.252 1828.36 216.373C1736.98 113.901 1739.17 23.1594 1643.46 -76.0622C1557.93 -164.737 1511.69 -174.498 1418.58 -256.752C1253.67 -402.435 1173.71 -685.39 1173.71 -685.39" stroke="#848484" stroke-width="1.5965"></path> <path opacity="0.86747" d="M2976.16 897.536C2976.16 897.536 2540.98 707.857 2368.01 541.281C2165.3 346.061 2015.33 413.482 1838.97 215.409C1748.56 113.863 1750.72 23.9412 1656.04 -74.3839C1571.41 -162.258 1525.67 -171.93 1433.54 -253.441C1270.38 -397.807 1191.27 -678.206 1191.27 -678.206" stroke="#848484" stroke-width="1.5965"></path> <path opacity="0.871486" d="M2974.56 890.351C2974.56 890.351 2544.06 702.402 2372.94 537.345C2172.4 343.905 2024.04 410.711 1849.58 214.444C1760.14 113.825 1762.28 24.7227 1668.61 -72.7058C1584.9 -159.778 1539.64 -169.363 1448.5 -250.13C1287.09 -393.18 1208.84 -671.022 1208.84 -671.022" stroke="#848484" stroke-width="1.5965"></path> <path opacity="0.875502" d="M2972.96 883.167C2972.96 883.167 2547.13 696.947 2377.87 533.41C2179.51 341.749 2032.76 407.941 1860.19 213.48C1771.72 113.787 1773.84 25.5044 1681.18 -71.0274C1598.38 -157.299 1553.61 -166.795 1463.47 -246.819C1303.81 -388.552 1226.4 -663.838 1226.4 -663.838" stroke="#848484" stroke-width="1.5965"></path> <path opacity="0.879518" d="M2971.37 875.983C2971.37 875.983 2550.21 691.493 2382.8 529.474C2186.62 339.594 2041.48 405.171 1870.8 212.516C1783.3 113.748 1785.39 26.2862 1693.75 -69.3491C1611.86 -154.819 1567.58 -164.227 1478.43 -243.508C1320.52 -383.925 1243.96 -656.653 1243.96 -656.653" stroke="#848484" stroke-width="1.5965"></path> <path opacity="0.883534" d="M2969.77 868.798C2969.77 868.798 2553.28 686.038 2387.74 525.538C2193.72 337.438 2050.19 402.4 1881.41 211.552C1794.88 113.71 1796.95 27.0677 1706.33 -67.671C1625.34 -152.34 1581.55 -161.66 1493.39 -240.197C1337.23 -379.298 1261.52 -649.469 1261.52 -649.469" stroke="#848484" stroke-width="1.5965"></path> <path opacity="0.88755" d="M2968.17 861.614C2968.17 861.614 2556.35 680.583 2392.67 521.602C2200.83 335.283 2058.91 399.63 1892.02 210.587C1806.46 113.672 1808.51 27.8495 1718.9 -65.9927C1638.82 -149.86 1595.53 -159.092 1508.35 -236.886C1353.94 -374.67 1279.08 -642.285 1279.08 -642.285" stroke="#848484" stroke-width="1.5965"></path> <path opacity="0.891566" d="M2966.58 854.43C2966.58 854.43 2559.43 675.129 2397.6 517.667C2207.94 333.127 2067.63 396.86 1902.63 209.623C1818.04 113.633 1820.06 28.6312 1731.47 -64.3144C1652.3 -147.381 1609.5 -156.524 1523.31 -233.575C1370.66 -370.043 1296.64 -635.101 1296.64 -635.101" stroke="#848484" stroke-width="1.5965"></path> <path opacity="0.895582" d="M2964.98 847.246C2964.98 847.246 2562.5 669.674 2402.53 513.731C2215.04 330.971 2076.34 394.089 1913.24 208.659C1829.62 113.595 1831.62 29.4129 1744.05 -62.6361C1665.78 -144.901 1623.47 -153.956 1538.27 -230.264C1387.37 -365.415 1314.2 -627.916 1314.2 -627.916" stroke="#848484" stroke-width="1.5965"></path> <path opacity="0.899598" d="M2963.38 840.062C2963.38 840.062 2565.58 664.219 2407.46 509.795C2222.15 328.816 2085.06 391.319 1923.85 207.695C1841.2 113.557 1843.18 30.1945 1756.62 -60.9579C1679.26 -142.421 1637.44 -151.388 1553.23 -226.953C1404.08 -360.788 1331.77 -620.732 1331.77 -620.732" stroke="#848484" stroke-width="1.5965"></path> <path opacity="0.903614" d="M2961.79 832.877C2961.79 832.877 2568.65 658.765 2412.39 505.859C2229.26 326.66 2093.78 388.548 1934.46 206.73C1852.78 113.519 1854.73 30.9761 1769.19 -59.2797C1692.75 -139.942 1651.42 -148.821 1568.19 -223.642C1420.79 -356.161 1349.33 -613.548 1349.33 -613.548" stroke="#848484" stroke-width="1.5965"></path> <path opacity="0.907631" d="M2960.19 825.693C2960.19 825.693 2571.73 653.31 2417.32 501.924C2236.36 324.505 2102.49 385.778 1945.07 205.766C1864.36 113.48 1866.29 31.7578 1781.77 -57.6014C1706.23 -137.462 1665.39 -146.253 1583.15 -220.331C1437.51 -351.533 1366.89 -606.364 1366.89 -606.364" stroke="#848484" stroke-width="1.5965"></path> <path opacity="0.911647" d="M2958.6 818.509C2958.6 818.509 2574.8 647.856 2422.25 497.988C2243.47 322.349 2111.21 383.008 1955.68 204.802C1875.94 113.442 1877.85 32.5395 1794.34 -55.9231C1719.71 -134.983 1679.36 -143.685 1598.12 -217.02C1454.22 -346.906 1384.45 -599.179 1384.45 -599.179" stroke="#848484" stroke-width="1.5965"></path> </svg> 